<?xml version="1.0" encoding="UTF-8" standalone="no"?>
<!-- Generator: Adobe Illustrator 16.0.0, SVG Export Plug-In . SVG Version: 6.00 Build 0)  -->

<svg
   xmlns:dc="http://purl.org/dc/elements/1.1/"
   xmlns:cc="http://creativecommons.org/ns#"
   xmlns:rdf="http://www.w3.org/1999/02/22-rdf-syntax-ns#"
   xmlns:svg="http://www.w3.org/2000/svg"
   xmlns="http://www.w3.org/2000/svg"
   xmlns:sodipodi="http://sodipodi.sourceforge.net/DTD/sodipodi-0.dtd"
   xmlns:inkscape="http://www.inkscape.org/namespaces/inkscape"
   version="1.1"
   id="Capa_1"
   x="0px"
   y="0px"
   width="160.979px"
   height="160.979px"
   viewBox="0 0 160.979 160.979"
   style="enable-background:new 0 0 160.979 160.979;"
   xml:space="preserve"
   sodipodi:docname="connected-databases.svg"
   inkscape:version="0.92.4 (5da689c313, 2019-01-14)"><metadata
   id="metadata2534"><rdf:RDF><cc:Work
       rdf:about=""><dc:format>image/svg+xml</dc:format><dc:type
         rdf:resource="http://purl.org/dc/dcmitype/StillImage" /></cc:Work></rdf:RDF></metadata><defs
   id="defs2532"><linearGradient
     gradientUnits="userSpaceOnUse"
     gradientTransform="matrix(0.92124426,0,0,1.0854884,2036.7329,-431.27208)"
     id="mx-gradient-325ea1-1-4889e8-1-e-0"
     y2="30.087837"
     x2="61.514629"
     y1="30.087837"
     x1="16.825071"><stop
       id="stop854"
       style="stop-color:#325EA1"
       offset="0%" /><stop
       id="stop856"
       style="stop-color:#4889E8"
       offset="100%" /></linearGradient></defs><sodipodi:namedview
   pagecolor="#ffffff"
   bordercolor="#666666"
   borderopacity="1"
   objecttolerance="10"
   gridtolerance="10"
   guidetolerance="10"
   inkscape:pageopacity="0"
   inkscape:pageshadow="2"
   inkscape:window-width="1920"
   inkscape:window-height="1017"
   id="namedview2530"
   showgrid="false"
   inkscape:zoom="2.0732791"
   inkscape:cx="92.276917"
   inkscape:cy="80.889075"
   inkscape:window-x="-8"
   inkscape:window-y="-8"
   inkscape:window-maximized="1"
   inkscape:current-layer="g2495" />
<g
   id="g2497">
	<g
   id="g2495">
		<path
   d="M30.872,113.012c-17.046,0-30.866-5.528-30.866-12.342v12.342c0,6.826,13.819,12.344,30.866,12.344    c17.047,0,30.866-5.529,30.866-12.344V100.67C61.732,107.483,47.913,113.012,30.872,113.012z"
   id="path2471"
   style="fill:#4889e8;fill-opacity:1" />
		<path
   d="M30.872,131.529c-17.046,0-30.866-5.522-30.866-12.343v12.343c0,6.826,13.819,12.343,30.866,12.343    c17.047,0,30.866-5.522,30.866-12.343v-12.343C61.732,126.007,47.913,131.529,30.872,131.529z"
   id="path2473"
   style="fill:#325ea1;fill-opacity:1" />
		<path
   d="M130.113,113.019c-17.05,0-30.866-5.529-30.866-12.349v12.349c0,6.819,13.816,12.337,30.866,12.337    s30.866-5.518,30.866-12.337V100.67C160.979,107.489,147.163,113.019,130.113,113.019z"
   id="path2475"
   style="fill:#4889e8;fill-opacity:1" />
		<path
   d="M130.113,131.541c-17.05,0-30.866-5.528-30.866-12.348v12.348c0,6.82,13.816,12.337,30.866,12.337    s30.866-5.522,30.866-12.337v-12.348C160.979,126.013,147.163,131.541,130.113,131.541z"
   id="path2477"
   style="fill:#325ea1;fill-opacity:1" />
		<path
   d="M133.231,69.935v-31.49c0-1.72-1.401-3.117-3.118-3.117l-99.247-0.013c-0.828,0-1.623,0.332-2.208,0.911    c-0.587,0.582-0.91,1.379-0.91,2.208v31.496C12.185,70.564,0,75.759,0,82.146v12.343c0,6.825,13.819,12.343,30.866,12.343    c17.046,0,30.866-5.523,30.866-12.343V82.146c0-6.388-12.19-11.582-27.748-12.218V41.55l93.012,0.013v28.372    c-15.564,0.636-27.749,5.83-27.749,12.212v12.349c0,6.826,13.816,12.349,30.866,12.349s30.866-5.529,30.866-12.349V82.146    C160.979,75.759,148.795,70.564,133.231,69.935z M58.645,82.146c0,3.775-10.817,9.256-27.779,9.256s-27.779-5.48-27.779-9.256    c0-3.525,9.548-8.504,24.661-9.134v9.066c0,1.724,1.397,3.118,3.118,3.118s3.118-1.395,3.118-3.118v-9.072    C49.091,73.637,58.645,78.615,58.645,82.146z M130.113,91.408c-16.964,0-27.778-5.48-27.778-9.262    c0-3.52,9.548-8.491,24.661-9.128v9.073c0,1.723,1.4,3.117,3.117,3.117s3.118-1.395,3.118-3.117v-9.073    c15.106,0.63,24.66,5.603,24.66,9.128C157.892,85.928,147.078,91.408,130.113,91.408z"
   id="path2479"
   style="fill:#325ea1;fill-opacity:1" />
		<polygon
   points="56.568,28.599 65.921,22.85 56.568,17.102 56.568,20.22 45.069,20.22 45.069,25.48 56.568,25.48   "
   id="polygon2481"
   style="fill:#4889e8;fill-opacity:1" />
		<polygon
   points="106.451,28.599 115.804,22.85 106.451,17.102 106.451,20.22 94.954,20.22 94.954,25.48 106.451,25.48   "
   id="polygon2483"
   style="fill:#4889e8;fill-opacity:1" />
		<polygon
   points="15.452,64.451 20.716,64.451 20.716,52.955 23.833,52.955 18.085,43.602 12.334,52.955 15.452,52.955   "
   id="polygon2485"
   style="fill:#4889e8;fill-opacity:1" />
		<polygon
   points="119.683,64.451 119.683,55.473 122.112,55.473 117.631,48.172 113.137,55.473 115.572,55.473 115.572,64.451       "
   id="polygon2487"
   style="fill:#4889e8;fill-opacity:1" />
		<polygon
   points="101.044,47.487 67.13,47.487 67.13,45.048 59.829,49.533 67.13,54.026 67.13,51.591 101.044,51.591   "
   id="polygon2489"
   style="fill:#4889e8;fill-opacity:1" />
		<polygon
   points="148.539,55.099 145.422,55.099 145.422,43.602 140.16,43.602 140.16,55.099 137.043,55.099 142.791,64.451   "
   id="polygon2491"
   style="fill:#4889e8;fill-opacity:1" />
		<polygon
   points="41.199,48.172 41.199,57.15 38.761,57.15 43.249,64.451 47.739,57.15 45.301,57.15 45.301,48.172   "
   id="polygon2493"
   style="fill:#4889e8;fill-opacity:1" />
	</g>
</g>
<g
   id="g2499">
</g>
<g
   id="g2501">
</g>
<g
   id="g2503">
</g>
<g
   id="g2505">
</g>
<g
   id="g2507">
</g>
<g
   id="g2509">
</g>
<g
   id="g2511">
</g>
<g
   id="g2513">
</g>
<g
   id="g2515">
</g>
<g
   id="g2517">
</g>
<g
   id="g2519">
</g>
<g
   id="g2521">
</g>
<g
   id="g2523">
</g>
<g
   id="g2525">
</g>
<g
   id="g2527">
</g>
</svg>