<?xml version="1.0" encoding="UTF-8" standalone="no"?>
<!-- Created with Inkscape (http://www.inkscape.org/) -->

<svg
   xmlns:dc="http://purl.org/dc/elements/1.1/"
   xmlns:cc="http://creativecommons.org/ns#"
   xmlns:rdf="http://www.w3.org/1999/02/22-rdf-syntax-ns#"
   xmlns:svg="http://www.w3.org/2000/svg"
   xmlns="http://www.w3.org/2000/svg"
   xmlns:xlink="http://www.w3.org/1999/xlink"
   xmlns:sodipodi="http://sodipodi.sourceforge.net/DTD/sodipodi-0.dtd"
   xmlns:inkscape="http://www.inkscape.org/namespaces/inkscape"
   width="508mm"
   height="303.12781mm"
   viewBox="0 0 508 303.12781"
   version="1.1"
   id="svg3577"
   inkscape:version="0.92.4 (5da689c313, 2019-01-14)"
   sodipodi:docname="header-background.svg">
  <defs
     id="defs3571">
    <clipPath
       id="clipPath1646"
       clipPathUnits="userSpaceOnUse">
      <path
         sodipodi:nodetypes="ccccccccccc"
         inkscape:connector-curvature="0"
         id="path1648"
         d="m -1512.2443,-1632.9085 h -988.216 v 286.056 h 172.1176 v 318.8409 h 276.517 v 67.71845 h 158.0096 v 118.50725 l 379.8332,0.87366 z"
         style="fill:none;stroke:#000000;stroke-width:1px;stroke-linecap:butt;stroke-linejoin:miter;stroke-opacity:1" />
    </clipPath>
    <clipPath
       id="clipPath1646-4"
       clipPathUnits="userSpaceOnUse">
      <path
         sodipodi:nodetypes="ccccccccccc"
         inkscape:connector-curvature="0"
         id="path1648-7"
         d="m -1512.2443,-1632.9085 h -988.216 v 286.056 h 172.1176 v 318.8409 h 276.517 v 67.71845 h 158.0096 v 118.50725 l 379.8332,0.87366 z"
         style="fill:none;stroke:#000000;stroke-width:1px;stroke-linecap:butt;stroke-linejoin:miter;stroke-opacity:1" />
    </clipPath>
    <linearGradient
       inkscape:collect="always"
       xlink:href="#linearGradient4318"
       id="linearGradient4815"
       x1="-108.44675"
       y1="-25.05794"
       x2="-98.609329"
       y2="224.7571"
       gradientUnits="userSpaceOnUse"
       gradientTransform="matrix(0.67208276,0,0,0.99351264,-107.83096,-0.23784759)" />
    <linearGradient
       inkscape:collect="always"
       id="linearGradient4318">
      <stop
         style="stop-color:#325fa2;stop-opacity:1;"
         offset="0"
         id="stop4314" />
      <stop
         id="stop4862"
         offset="0.29245761"
         style="stop-color:#2d65c0;stop-opacity:1" />
      <stop
         style="stop-color:#4178d2;stop-opacity:1"
         offset="1"
         id="stop4316" />
    </linearGradient>
    <clipPath
       clipPathUnits="userSpaceOnUse"
       id="clipPath6031">
      <path
         style="fill:none;stroke:#000000;stroke-width:0.26458332px;stroke-linecap:butt;stroke-linejoin:miter;stroke-opacity:1"
         d="m -330.97342,196.03003 h 169.40392 v -28.85746 h 72.143624 V 69.377884 h 44.889362 V -4.3689314 H 27.607132 V -41.242341 H -331.50782 Z"
         id="path6033"
         inkscape:connector-curvature="0" />
    </clipPath>
    <clipPath
       clipPathUnits="userSpaceOnUse"
       id="clipPath6031-3">
      <path
         style="fill:none;stroke:#000000;stroke-width:0.26458332px;stroke-linecap:butt;stroke-linejoin:miter;stroke-opacity:1"
         d="m -330.97342,196.03003 h 169.40392 v -28.85746 h 72.143624 V 69.377884 h 44.889362 V -4.3689314 H 27.607132 V -41.242341 H -331.50782 Z"
         id="path6033-6"
         inkscape:connector-curvature="0" />
    </clipPath>
  </defs>
  <sodipodi:namedview
     id="base"
     pagecolor="#ffffff"
     bordercolor="#666666"
     borderopacity="1.0"
     inkscape:pageopacity="0.0"
     inkscape:pageshadow="2"
     inkscape:zoom="0.49497475"
     inkscape:cx="950.61575"
     inkscape:cy="687.58742"
     inkscape:document-units="mm"
     inkscape:current-layer="layer1"
     showgrid="false"
     inkscape:window-width="1920"
     inkscape:window-height="1017"
     inkscape:window-x="-8"
     inkscape:window-y="-8"
     inkscape:window-maximized="1" />
  <metadata
     id="metadata3574">
    <rdf:RDF>
      <cc:Work
         rdf:about="">
        <dc:format>image/svg+xml</dc:format>
        <dc:type
           rdf:resource="http://purl.org/dc/dcmitype/StillImage" />
        <dc:title />
      </cc:Work>
    </rdf:RDF>
  </metadata>
  <g
     inkscape:label="Layer 1"
     inkscape:groupmode="layer"
     id="layer1"
     transform="translate(328.84274,37.883472)">
    <rect
       inkscape:export-ydpi="96"
       inkscape:export-xdpi="96"
       inkscape:export-filename="D:\Users\Lyosha\Desktop\evolo-landing-page\web\images\rect1665.png"
       y="-37.883472"
       x="-328.84274"
       height="285.75003"
       width="508"
       id="rect1665"
       style="fill:none;fill-opacity:1;stroke:none;stroke-width:2.22326946;stroke-linejoin:round;stroke-miterlimit:4;stroke-dasharray:none;stroke-opacity:1" />
    <rect
       style="opacity:1;fill:#f7f7f7;fill-opacity:0.43921569;stroke:none;stroke-width:0.21874167;stroke-opacity:1"
       id="rect4807-4"
       width="343.86703"
       height="252.49693"
       x="-328.83582"
       y="-37.883472"
       clip-path="url(#clipPath6031-3)"
       transform="matrix(-0.82941708,0,0,0.92456533,-93.584785,-2.8577307)" />
    <rect
       style="opacity:1;fill:url(#linearGradient4815);fill-opacity:1;stroke:none;stroke-width:0.21620242;stroke-opacity:1"
       id="rect4807"
       width="343.86703"
       height="252.49693"
       x="-328.83582"
       y="-37.883472"
       clip-path="url(#clipPath6031)"
       transform="matrix(-0.79720511,0,0,0.8708114,-82.992335,-4.8941129)" />
    <path
       inkscape:connector-curvature="0"
       class="cls-8"
       d="m -23.124234,-15.030805 0.306059,-0.868098 0.306041,0.868098 a 3.0612025,3.0308704 0 0 0 1.700388,1.714091 v 0 a 3.0605457,3.0302202 0 0 0 -1.700388,1.714109 l -0.306041,0.86808 -0.306059,-0.86808 a 3.0612025,3.0308704 0 0 0 -1.702995,-1.713448 v 0 a 3.0612025,3.0308704 0 0 0 1.702995,-1.714752 z"
       id="path2457"
       style="fill:#ffffff;stroke-width:0.65350753" />
    <path
       inkscape:connector-curvature="0"
       class="cls-8"
       d="m 36.475907,51.143429 0.198538,-0.563138 0.198528,0.563138 a 1.9857983,1.9661219 0 0 0 1.103041,1.111925 v 0 a 1.9853723,1.9657001 0 0 0 -1.103041,1.111941 l -0.198528,0.563119 -0.198538,-0.563119 a 1.9857983,1.9661219 0 0 0 -1.104733,-1.111511 v 0 a 1.9857983,1.9661219 0 0 0 1.104733,-1.112355 z"
       id="path2457-9-9"
       style="fill:#ffffff;stroke-width:0.42392957" />
    <path
       inkscape:connector-curvature="0"
       class="cls-8"
       d="m 146.60399,75.535377 0.14227,-0.403543 0.14227,0.403543 a 1.4230149,1.4089148 0 0 0 0.79043,0.796801 v 0 a 1.4227095,1.4086125 0 0 0 -0.79043,0.796813 l -0.14227,0.403532 -0.14227,-0.403532 a 1.4230149,1.4089148 0 0 0 -0.79164,-0.796505 v 0 a 1.4230149,1.4089148 0 0 0 0.79164,-0.797109 z"
       id="path2457-9-9-2-4"
       style="fill:#ffffff;stroke-width:0.30378616" />
    <path
       inkscape:connector-curvature="0"
       class="cls-8"
       d="m -8.0148731,27.576467 0.14657,-0.415724 0.14656,0.415724 a 1.4659728,1.4514472 0 0 0 0.81429,0.820855 v 0 a 1.4656584,1.4511359 0 0 0 -0.81429,0.820867 l -0.14656,0.415712 -0.14657,-0.415712 a 1.4659728,1.4514472 0 0 0 -0.81555,-0.820549 v 0 a 1.4659728,1.4514472 0 0 0 0.81555,-0.821173 z"
       id="path2457-9-9-7-2"
       style="fill:#ffffff;stroke-width:0.31295687" />
    <path
       inkscape:connector-curvature="0"
       class="cls-8"
       d="m -34.947017,33.865037 0.280856,-0.640876 0.280841,0.640876 a 2.8091522,2.2375369 0 0 0 1.560384,1.265422 v 0 a 2.8085495,2.2370569 0 0 0 -1.560384,1.26544 l -0.280841,0.640859 -0.280856,-0.640859 a 2.8091522,2.2375369 0 0 0 -1.562777,-1.264949 v 0 a 2.8091522,2.2375369 0 0 0 1.562777,-1.265913 z"
       id="path2457-9-9-1-6"
       style="fill:#ffffff;stroke-width:0.53789026" />
    <path
       inkscape:connector-curvature="0"
       class="cls-8"
       d="m 111.21759,5.6293105 0.19885,-0.5640304 0.19885,0.5640304 a 1.9889483,1.9692407 0 0 0 1.10478,1.1136885 v 0 a 1.9885215,1.9688182 0 0 0 -1.10478,1.1137059 l -0.19885,0.5640132 -0.19885,-0.5640132 a 1.9889483,1.9692407 0 0 0 -1.10649,-1.113275 v 0 a 1.9889483,1.9692407 0 0 0 1.10649,-1.1141194 z"
       id="path2457-9-9-72-2"
       style="fill:#ffffff;stroke-width:0.424602" />
    <path
       inkscape:connector-curvature="0"
       class="cls-8"
       d="m 78.859729,-7.5707839 0.187726,-0.434663 0.187718,0.434663 a 1.8776532,1.5175754 0 0 0 1.042969,0.858254 v 0 a 1.8772504,1.5172498 0 0 0 -1.042969,0.8582666 l -0.187718,0.4346505 -0.187726,-0.4346505 a 1.8776532,1.5175754 0 0 0 -1.044571,-0.8579332 v 0 a 1.8776532,1.5175754 0 0 0 1.044571,-0.8585874 z"
       id="path2457-9-9-4-2"
       style="fill:#ffffff;stroke-width:0.36216274" />
    <path
       inkscape:connector-curvature="0"
       class="cls-8"
       d="m 151.85133,-7.770993 0.1626,-0.5714201 0.16258,0.5714201 a 1.6262978,1.9950416 0 0 0 0.90335,1.1282796 v 0 a 1.6259489,1.9946135 0 0 0 -0.90335,1.1282944 l -0.16258,0.5714051 -0.1626,-0.5714051 a 1.6262978,1.9950416 0 0 0 -0.90474,-1.1278546 v 0 a 1.6262978,1.9950416 0 0 0 0.90474,-1.1287194 z"
       id="path2457-9-9-26-6"
       style="fill:#ffffff;stroke-width:0.38645321" />
    <path
       inkscape:connector-curvature="0"
       class="cls-8"
       d="m 148.12091,6.3821255 0.24722,-0.7012174 0.24721,0.7012174 a 2.4727121,2.4482111 0 0 0 1.3735,1.384568 v 0 a 2.4721816,2.4476859 0 0 0 -1.3735,1.384586 l -0.24721,0.7011982 -0.24722,-0.7011982 A 2.4727121,2.4482111 0 0 0 146.7453,7.7672284 v 0 a 2.4727121,2.4482111 0 0 0 1.37561,-1.3851029 z"
       id="path2457-9-9-9-7"
       style="fill:#ffffff;stroke-width:0.52787626" />
    <rect
       style="opacity:1;fill:#ffffff;fill-opacity:0;stroke:none;stroke-width:0.23747019;stroke-opacity:1"
       id="rect5957"
       width="198.31004"
       height="114.55808"
       x="-166.90561"
       y="-23.546036"
       transform="scale(-1,1)" />
    <path
       inkscape:connector-curvature="0"
       class="cls-8"
       d="M 9.3729658,15.860937 9.1941857,16.456273 8.9599502,15.880106 A 2.0678208,2.0473317 0 0 0 7.7578484,14.776774 v 0 a 2.0673772,2.0468925 0 0 0 1.0925801,-1.209852 l 0.1787702,-0.595323 0.2342477,0.576153 a 2.0678208,2.0473317 0 0 0 1.2038396,1.10282 v 0 a 2.0678208,2.0473317 0 0 0 -1.0943202,1.210365 z"
       id="path2457-9-96"
       style="fill:#ffffff;stroke-width:0.44143978" />
    <path
       inkscape:connector-curvature="0"
       class="cls-8"
       d="m 138.06705,102.98088 -0.30652,1.02071 -0.40159,-0.98784 a 3.5452746,3.5101461 0 0 0 -2.061,-1.89167 v 0 a 3.544514,3.509393 0 0 0 1.87323,-2.07429 l 0.3065,-1.020678 0.4016,0.987822 a 3.5452746,3.5101461 0 0 0 2.06399,1.890776 v 0 a 3.5452746,3.5101461 0 0 0 -1.87621,2.07517 z"
       id="path2457-9-9-72-8-1"
       style="fill:#ffffff;stroke-width:0.75684762" />
    <path
       inkscape:connector-curvature="0"
       class="cls-8"
       d="m 97.144338,111.43913 -0.200507,0.75473 -0.249864,-0.72507 a 2.2523114,2.5890231 3.9303599 0 0 -1.299848,-1.37856 v 0 a 2.2518283,2.5884677 3.9303611 0 0 1.202359,-1.54338 l 0.200498,-0.75471 0.249873,0.72505 a 2.2523114,2.5890231 3.9303599 0 0 1.301756,1.37789 v 0 a 2.2523114,2.5890231 3.9303599 0 0 -1.204267,1.54405 z"
       id="path2457-9-9-4-6"
       style="fill:#ffffff;stroke-width:0.51808757" />
    <path
       inkscape:connector-curvature="0"
       class="cls-8"
       d="m 79.696601,79.409075 -0.189867,0.590026 -0.224158,-0.559531 a 1.985202,2.0976805 60.794122 0 0 -1.183999,-1.050211 v 0 a 1.984776,2.0972305 60.794151 0 0 1.116277,-1.219633 l 0.189853,-0.590005 0.224167,0.559509 a 1.985202,2.0976805 60.794122 0 0 1.185753,1.049662 v 0 a 1.985202,2.0976805 60.794122 0 0 -1.118026,1.220183 z"
       id="path2457-9-9-26-4-1"
       style="fill:#ffffff;stroke-width:0.43781731" />
    <path
       inkscape:connector-curvature="0"
       class="cls-8"
       d="m 29.954103,101.00118 -0.195161,0.6499 -0.255708,-0.62898 a 2.2573509,2.2349838 0 0 0 -1.312282,-1.204459 v 0 a 2.2568666,2.2345043 0 0 0 1.192725,-1.32074 l 0.195156,-0.649894 0.255713,0.628961 a 2.2573509,2.2349838 0 0 0 1.314182,1.203908 v 0 a 2.2573509,2.2349838 0 0 0 -1.194625,1.321304 z"
       id="path2457-9-9-9-2-5"
       style="fill:#ffffff;stroke-width:0.48190078" />
  </g>
</svg>
