<?xml version="1.0" encoding="UTF-8" standalone="no"?>
<!-- Generator: Adobe Illustrator 16.0.0, SVG Export Plug-In . SVG Version: 6.00 Build 0)  -->

<svg
   xmlns:dc="http://purl.org/dc/elements/1.1/"
   xmlns:cc="http://creativecommons.org/ns#"
   xmlns:rdf="http://www.w3.org/1999/02/22-rdf-syntax-ns#"
   xmlns:svg="http://www.w3.org/2000/svg"
   xmlns="http://www.w3.org/2000/svg"
   xmlns:sodipodi="http://sodipodi.sourceforge.net/DTD/sodipodi-0.dtd"
   xmlns:inkscape="http://www.inkscape.org/namespaces/inkscape"
   version="1.1"
   id="Capa_1"
   x="0px"
   y="0px"
   width="232.317px"
   height="232.317px"
   viewBox="0 0 232.317 232.317"
   style="enable-background:new 0 0 232.317 232.317;"
   xml:space="preserve"
   sodipodi:docname="data-symbols-into-a-funnel.svg"
   inkscape:version="0.92.4 (5da689c313, 2019-01-14)"><metadata
   id="metadata3439"><rdf:RDF><cc:Work
       rdf:about=""><dc:format>image/svg+xml</dc:format><dc:type
         rdf:resource="http://purl.org/dc/dcmitype/StillImage" /></cc:Work></rdf:RDF></metadata><defs
   id="defs3437"><linearGradient
     gradientUnits="userSpaceOnUse"
     gradientTransform="matrix(0.92124426,0,0,1.0854884,2036.7329,-431.27208)"
     id="mx-gradient-325ea1-1-4889e8-1-e-0"
     y2="30.087837"
     x2="61.514629"
     y1="30.087837"
     x1="16.825071"><stop
       id="stop854"
       style="stop-color:#325EA1"
       offset="0%" /><stop
       id="stop856"
       style="stop-color:#4889E8"
       offset="100%" /></linearGradient></defs><sodipodi:namedview
   pagecolor="#ffffff"
   bordercolor="#666666"
   borderopacity="1"
   objecttolerance="10"
   gridtolerance="10"
   guidetolerance="10"
   inkscape:pageopacity="0"
   inkscape:pageshadow="2"
   inkscape:window-width="1920"
   inkscape:window-height="1017"
   id="namedview3435"
   showgrid="false"
   inkscape:zoom="2.0317067"
   inkscape:cx="153.4926"
   inkscape:cy="128.41602"
   inkscape:window-x="-8"
   inkscape:window-y="-8"
   inkscape:window-maximized="1"
   inkscape:current-layer="g3399" />
<g
   id="g3402">
	<g
   id="_x31_70_64_">
		<g
   id="g3399">
			<path
   d="M207.555,110.309c-10.613-0.056-175.376-0.978-183.503,0s55.924,63.591,60.989,71.686     c5.065,8.089,14.508,23.196,14.508,23.196h3.643v14.411h5.423v12.715h10.849v-12.715h5.426v-14.411h3.479l0.041-0.604     c0,0,8.846-16.143,14.609-21.754C148.788,177.217,218.163,110.365,207.555,110.309z"
   id="path3369"
   style="fill:#4889e8;fill-opacity:1" />
			<path
   d="M157.354,31.775L146.441,1.534c-5.483,9.338-10.963,18.672-16.447,28.005c-0.457,0.782-1.254,1.109-2.117,0.767     c-10.212-4.083-20.429-8.166-30.648-12.248c-0.015,0.079-0.01,0.162-0.025,0.241l11.237,31.13L157.354,31.775z"
   id="path3371"
   style="fill:#325ea1;fill-opacity:1" />
			<path
   d="M124.717,25.613c1.057,0.427,2.107,0.848,3.164,1.27c5.261-8.955,10.512-17.892,15.767-26.842     c-0.116-0.021-0.238-0.021-0.36-0.041L99.856,15.676c4.913,1.973,9.831,3.933,14.746,5.898     C117.977,22.92,121.346,24.268,124.717,25.613z"
   id="path3373"
   style="fill:#325ea1;fill-opacity:1" />
			<path
   d="M111.393,74.738c-1.196-1.904-3.963-7.848-7.249-7.708c-3.151,0.112-5.413,6.944-6.281,8.785     c-1.574,3.336-2.983,6.743-4.283,10.158c-0.173,0.455,0.066,0.759,0.432,0.917c0.16,0.104,0.358,0.17,0.617,0.154     c7.218-0.403,14.437-0.81,21.653-1.211c0.614-0.041,1.211-0.64,0.932-1.181C115.382,81.299,113.447,77.988,111.393,74.738z"
   id="path3375"
   style="fill:#4889e8;fill-opacity:1" />
			<path
   d="M117.585,71.222c-1.429,0.208-3.187,3.389-4.148,5.329c1.683,2.747,3.329,5.545,4.877,8.399     c0.104,0.203,0.145,0.417,0.129,0.625c2.648-0.142,5.309-0.297,7.965-0.441c0.528-0.033,1.051-0.554,0.797-1.016     c-1.32-2.453-2.731-4.873-4.234-7.249C122.075,75.438,119.355,70.962,117.585,71.222z"
   id="path3377"
   style="fill:#4889e8;fill-opacity:1" />
			<path
   d="M113.586,69.573c2.202-0.005,3.677-2.079,3.672-4.103c-0.239-2.204-1.902-3.682-4.113-3.677     c-2.199,0-3.671,2.08-3.671,4.113C109.484,68.101,111.566,69.579,113.586,69.573z"
   id="path3379"
   style="fill:#4889e8;fill-opacity:1" />
			<path
   d="M135.427,57.458l-0.117-2.209l-0.025-0.432l-53.204,2.978l0.073,1.315l0.074,1.328l1.788,31.94l0.137,2.48l0.264,4.768     l53.199-2.983l-0.314-5.657l-0.097-1.587L135.427,57.458z M86.664,92.229l-1.785-31.948l47.903-2.676l1.792,31.936L86.664,92.229     z"
   id="path3381"
   style="fill:#325ea1;fill-opacity:1" />
			<path
   d="M153.52,71.811l9.445,5.405c0.34,0.198,0.741,0.143,0.883-0.106l5.454-9.526c0.147-0.262-0.016-0.62-0.355-0.812     l-9.45-5.413c-0.335-0.193-0.731-0.15-0.884,0.109l-5.448,9.521C153.017,71.242,153.18,71.612,153.52,71.811z"
   id="path3383"
   style="fill:#325ea1;fill-opacity:1" />
			<path
   d="M168.459,47.137l22.765,13.035c0.827,0.475,1.604,0.66,1.736,0.426l5.048-8.813c0.137-0.238-0.422-0.817-1.249-1.29     L173.995,37.46c-0.828-0.47-1.605-0.663-1.737-0.421l-5.047,8.818C167.073,46.085,167.631,46.662,168.459,47.137z"
   id="path3385"
   style="fill:#325ea1;fill-opacity:1" />
			<path
   d="M164.722,52.705c7.789,4.456,15.574,8.919,23.358,13.375c1.955,1.117,3.691-1.915,1.736-3.032     c-7.789-4.456-15.574-8.919-23.358-13.375C164.503,48.556,162.767,51.587,164.722,52.705z"
   id="path3387"
   style="fill:#4889e8;fill-opacity:1" />
			<path
   d="M161.244,58.265c7.79,4.456,15.574,8.917,23.358,13.373c1.955,1.117,3.691-1.919,1.736-3.037     c-7.789-4.456-15.573-8.917-23.358-13.373C161.025,54.108,159.284,57.146,161.244,58.265z"
   id="path3389"
   style="fill:#325ea1;fill-opacity:1" />
			<path
   d="M180.733,75.175c-2.712-1.557-5.429-3.11-8.141-4.659c-1.954-1.12-3.686,1.912-1.736,3.031     c2.712,1.554,5.429,3.108,8.141,4.659C180.952,79.328,182.688,76.297,180.733,75.175z"
   id="path3391"
   style="fill:#4889e8;fill-opacity:1" />
			<path
   d="M177.924,80.083c-2.711-1.554-5.428-3.11-8.14-4.659c-1.955-1.117-3.687,1.915-1.736,3.032     c2.711,1.554,5.428,3.11,8.14,4.659C178.143,84.231,179.879,81.199,177.924,80.083z"
   id="path3393"
   style="fill:#325ea1;fill-opacity:1" />
			<path
   d="M182.023,99.447l26.954-47.081l-3.479-12.058L171.222,20.69L139.931,75.35L182.023,99.447z M172.786,26.411     l28.757,16.463l-3.306,5.771l6.058,3.468l-23.82,41.609l-34.815-19.931L172.786,26.411z"
   id="path3395"
   style="fill:#325ea1;fill-opacity:1" />
			<path
   d="M36.854,54.494l4.42,2.605l-3.76,6.375l19.885,11.72l3.544-6.012l4.42,2.605L61.817,77.8l1.493,0.878l30.222-51.25     l-1.493-0.878l-3.971,6.723l-4.42-2.604l3.968-6.729L67.73,12.218l-3.755,6.37l-4.418-2.604l3.752-6.371l-1.435-0.851     L31.659,60.017l1.435,0.848L36.854,54.494z M66.544,69.767l-4.42-2.6l4.222-7.16l4.42,2.604L66.544,69.767z M82.461,32.674     l4.42,2.605l-4.222,7.157l-4.42-2.607L82.461,32.674z M77.053,41.848l4.42,2.605l-4.222,7.154l-4.42-2.604L77.053,41.848z      M71.65,51.021l4.42,2.604l-4.223,7.155l-4.42-2.605L71.65,51.021z M64.75,37.958c0.853-0.447,2.186-0.089,2.168,1.066     c-0.025,3.12-0.051,6.223-0.076,9.338c-0.01,0.978-1.051,1.919-2.023,1.348c-2.76-1.643-5.527-3.283-8.292-4.92     c-0.261-0.155-0.426-0.368-0.536-0.586c-0.391-0.551-0.406-1.3,0.284-1.742c0.025-0.025,0.054-0.043,0.079-0.063     c0.005-0.005,0.005-0.01,0.015-0.02c0.01,0,0.02-0.01,0.03-0.02c0.127-0.1,0.262-0.163,0.412-0.203     C59.458,40.751,62.104,39.357,64.75,37.958z M58.372,17.997l4.417,2.605l-4.217,7.155l-4.418-2.605L58.372,17.997z      M52.968,27.162l4.42,2.613l-4.217,7.15l-4.42-2.607L52.968,27.162z M47.56,36.331l4.421,2.605l-4.223,7.155l-4.42-2.605     L47.56,36.331z M42.261,45.326l4.421,2.605l-4.218,7.15l-4.42-2.6L42.261,45.326z"
   id="path3397"
   style="fill:#325ea1;fill-opacity:1" />
		</g>
	</g>
</g>
<g
   id="g3404">
</g>
<g
   id="g3406">
</g>
<g
   id="g3408">
</g>
<g
   id="g3410">
</g>
<g
   id="g3412">
</g>
<g
   id="g3414">
</g>
<g
   id="g3416">
</g>
<g
   id="g3418">
</g>
<g
   id="g3420">
</g>
<g
   id="g3422">
</g>
<g
   id="g3424">
</g>
<g
   id="g3426">
</g>
<g
   id="g3428">
</g>
<g
   id="g3430">
</g>
<g
   id="g3432">
</g>
</svg>