<?xml version="1.0" encoding="UTF-8" standalone="no"?>
<!-- Created with Inkscape (http://www.inkscape.org/) -->

<svg
   xmlns:dc="http://purl.org/dc/elements/1.1/"
   xmlns:cc="http://creativecommons.org/ns#"
   xmlns:rdf="http://www.w3.org/1999/02/22-rdf-syntax-ns#"
   xmlns:svg="http://www.w3.org/2000/svg"
   xmlns="http://www.w3.org/2000/svg"
   xmlns:xlink="http://www.w3.org/1999/xlink"
   xmlns:sodipodi="http://sodipodi.sourceforge.net/DTD/sodipodi-0.dtd"
   xmlns:inkscape="http://www.inkscape.org/namespaces/inkscape"
   width="470.34222mm"
   height="371.71658mm"
   viewBox="0 0 470.34222 371.71659"
   version="1.1"
   id="svg3577"
   inkscape:version="0.92.4 (5da689c313, 2019-01-14)"
   sodipodi:docname="about-background.svg">
  <defs
     id="defs3571">
    <linearGradient
       inkscape:collect="always"
       id="linearGradient4318">
      <stop
         style="stop-color:#325fa2;stop-opacity:1;"
         offset="0"
         id="stop4314" />
      <stop
         id="stop4864"
         offset="0.23555687"
         style="stop-color:#497fd5;stop-opacity:1" />
      <stop
         id="stop4862"
         offset="0.36901668"
         style="stop-color:#2d65c0;stop-opacity:1" />
      <stop
         style="stop-color:#4178d2;stop-opacity:1"
         offset="1"
         id="stop4316" />
    </linearGradient>
    <clipPath
       id="clipPath1646"
       clipPathUnits="userSpaceOnUse">
      <path
         sodipodi:nodetypes="ccccccccccc"
         inkscape:connector-curvature="0"
         id="path1648"
         d="m -1512.2443,-1632.9085 h -988.216 v 286.056 h 172.1176 v 318.8409 h 276.517 v 67.71845 h 158.0096 v 118.50725 l 379.8332,0.87366 z"
         style="fill:none;stroke:#000000;stroke-width:1px;stroke-linecap:butt;stroke-linejoin:miter;stroke-opacity:1" />
    </clipPath>
    <clipPath
       id="clipPath1646-4"
       clipPathUnits="userSpaceOnUse">
      <path
         sodipodi:nodetypes="ccccccccccc"
         inkscape:connector-curvature="0"
         id="path1648-7"
         d="m -1512.2443,-1632.9085 h -988.216 v 286.056 h 172.1176 v 318.8409 h 276.517 v 67.71845 h 158.0096 v 118.50725 l 379.8332,0.87366 z"
         style="fill:none;stroke:#000000;stroke-width:1px;stroke-linecap:butt;stroke-linejoin:miter;stroke-opacity:1" />
    </clipPath>
    <clipPath
       clipPathUnits="userSpaceOnUse"
       id="clipPath4349">
      <path
         style="fill:none;stroke:#000000;stroke-width:0.26458332px;stroke-linecap:butt;stroke-linejoin:miter;stroke-opacity:1"
         d="m -52.486062,152.18556 c 0,0 -159.219378,21.88008 -172.586328,23.17242 -35.78046,3.45931 -125.03341,7.21152 -108.97687,-0.16967 13.7088,-6.30193 0.78347,-51.47849 2.23024,-139.238472 0.0835,-5.067742 10.53431,-7.51972 21.15061,-13.657273 34.2105,-19.7779431 66.28284,18.708867 106.90781,23.51972 40.62496,4.81085 12.82893,-57.195678 87.6644,-37.4177324 74.835457,19.7779454 66.282827,44.9012784 66.282827,44.9012784 z"
         id="path4351"
         inkscape:connector-curvature="0"
         sodipodi:nodetypes="csssssscc" />
    </clipPath>
    <linearGradient
       inkscape:collect="always"
       xlink:href="#linearGradient4318"
       id="linearGradient4815"
       x1="-108.44675"
       y1="-25.05794"
       x2="-25.241619"
       y2="225.19398"
       gradientUnits="userSpaceOnUse"
       gradientTransform="matrix(0.67208276,0,0,1.1132954,-107.83096,4.2920246)" />
    <clipPath
       clipPathUnits="userSpaceOnUse"
       id="clipPath6031">
      <path
         style="fill:none;stroke:#000000;stroke-width:0.26458332px;stroke-linecap:butt;stroke-linejoin:miter;stroke-opacity:1"
         d="m -330.97342,196.03003 h 169.40392 v -28.85746 h 72.143624 V 69.377884 h 44.889362 V -4.3689314 H 27.607132 V -41.242341 H -331.50782 Z"
         id="path6033"
         inkscape:connector-curvature="0" />
    </clipPath>
    <clipPath
       clipPathUnits="userSpaceOnUse"
       id="clipPath6031-3">
      <path
         style="fill:none;stroke:#000000;stroke-width:0.26458332px;stroke-linecap:butt;stroke-linejoin:miter;stroke-opacity:1"
         d="m -330.97342,196.03003 h 169.40392 v -28.85746 h 72.143624 V 69.377884 h 44.889362 V -4.3689314 H 27.607132 V -41.242341 H -331.50782 Z"
         id="path6033-6"
         inkscape:connector-curvature="0" />
    </clipPath>
    <clipPath
       clipPathUnits="userSpaceOnUse"
       id="clipPath7568">
      <rect
         style="opacity:1;fill:none;fill-opacity:1;stroke:#8fafe4;stroke-width:0.26458332;stroke-opacity:1"
         id="rect7570"
         width="236.17244"
         height="253.9326"
         x="-329.21375"
         y="-39.696999" />
    </clipPath>
    <linearGradient
       inkscape:collect="always"
       xlink:href="#linearGradient4318"
       id="linearGradient7574"
       gradientUnits="userSpaceOnUse"
       gradientTransform="matrix(0.67208276,0,0,1.1132954,-40.214828,3.4798212)"
       x1="-108.44675"
       y1="-25.05794"
       x2="-25.241619"
       y2="225.19398" />
  </defs>
  <sodipodi:namedview
     id="base"
     pagecolor="#ffffff"
     bordercolor="#666666"
     borderopacity="1.0"
     inkscape:pageopacity="0.0"
     inkscape:pageshadow="2"
     inkscape:zoom="0.49510611"
     inkscape:cx="122.30902"
     inkscape:cy="810.32183"
     inkscape:document-units="mm"
     inkscape:current-layer="g7566"
     showgrid="false"
     inkscape:window-width="1920"
     inkscape:window-height="1017"
     inkscape:window-x="-8"
     inkscape:window-y="-8"
     inkscape:window-maximized="1"
     inkscape:snap-global="false" />
  <metadata
     id="metadata3574">
    <rdf:RDF>
      <cc:Work
         rdf:about="">
        <dc:format>image/svg+xml</dc:format>
        <dc:type
           rdf:resource="http://purl.org/dc/dcmitype/StillImage" />
        <dc:title />
      </cc:Work>
    </rdf:RDF>
  </metadata>
  <g
     inkscape:label="Layer 1"
     inkscape:groupmode="layer"
     id="layer1"
     transform="translate(329.34604,37.939924)">
    <rect
       inkscape:export-ydpi="96"
       inkscape:export-xdpi="96"
       inkscape:export-filename="D:\Users\Lyosha\Desktop\evolo-landing-page\web\images\rect1665.png"
       y="-37.883472"
       x="-179.16417"
       height="285.75003"
       width="508"
       id="rect1665"
       style="fill:none;fill-opacity:1;stroke:none;stroke-width:2.22326946;stroke-linejoin:round;stroke-miterlimit:4;stroke-dasharray:none;stroke-opacity:1"
       transform="scale(-1,1)" />
    <path
       inkscape:connector-curvature="0"
       class="cls-8"
       d="m 131.67145,-131.10631 -0.39296,-1.12576 -0.39294,1.12576 a 3.9304375,3.9304375 0 0 1 -2.18322,2.22283 v 0 a 3.9295943,3.9295943 0 0 1 2.18322,2.22286 l 0.39294,1.12572 0.39296,-1.12572 a 3.9304375,3.9304375 0 0 1 2.18657,-2.222 v 0 a 3.9304375,3.9304375 0 0 1 -2.18657,-2.22369 z"
       id="path2457-9-9-29"
       style="fill:#ffffff;stroke-width:0.84326059" />
    <rect
       style="opacity:1;fill:#ffffff;fill-opacity:0;stroke:none;stroke-width:0.26458332;stroke-opacity:1"
       id="rect5957-6"
       width="219.85469"
       height="128.27483"
       x="-151.81273"
       y="-128.41811"
       transform="rotate(-177.3161)" />
    <g
       id="g7566"
       clip-path="url(#clipPath7568)"
       transform="translate(-54.41413,0.7557518)">
      <rect
         transform="matrix(0.82941707,0,0,1.0868145,-56.093776,3.2888365)"
         clip-path="url(#clipPath6031-3)"
         y="-37.883472"
         x="-328.83582"
         height="252.49693"
         width="343.86703"
         id="rect4807-4"
         style="opacity:1;fill:#5b8dd8;fill-opacity:1;stroke:none;stroke-width:0.22886483;stroke-opacity:1" />
      <rect
         transform="matrix(0.79720512,0,0,1,-68.5756,0.7557518)"
         clip-path="url(#clipPath6031)"
         y="-37.883472"
         x="-328.83582"
         height="252.49693"
         width="343.86703"
         id="rect4807"
         style="opacity:1;fill:url(#linearGradient7574);fill-opacity:1;stroke:none;stroke-width:0.22886483;stroke-opacity:1" />
      <path
         style="fill:#ffffff;stroke-width:0.7281217"
         id="path2457"
         d="m -117.62651,-15.523123 -0.33931,-0.972046 -0.33929,0.972046 a 3.3937753,3.3937753 0 0 1 -1.88512,1.919323 v 0 a 3.3930471,3.3930471 0 0 1 1.88512,1.919352 l 0.33929,0.972018 0.33931,-0.972018 a 3.3937753,3.3937753 0 0 1 1.88801,-1.918609 v 0 a 3.3937753,3.3937753 0 0 1 -1.88801,-1.920066 z"
         class="cls-8"
         inkscape:connector-curvature="0" />
      <path
         style="fill:#ffffff;stroke-width:0.84326059"
         id="path2457-9-9"
         d="m -184.6635,56.123834 -0.39296,-1.12576 -0.39294,1.12576 a 3.9304376,3.9304376 0 0 1 -2.18322,2.22283 v 0 a 3.9295943,3.9295943 0 0 1 2.18322,2.22286 l 0.39294,1.12572 0.39296,-1.12572 a 3.9304376,3.9304376 0 0 1 2.18657,-2.222 v 0 a 3.9304376,3.9304376 0 0 1 -2.18657,-2.22369 z"
         class="cls-8"
         inkscape:connector-curvature="0" />
      <path
         style="fill:#ffffff;stroke-width:0.84326059"
         id="path2457-9-9-2"
         d="m -263.01537,93.508164 -0.39296,-1.12576 -0.39294,1.12576 a 3.9304375,3.9304375 0 0 1 -2.18322,2.22283 v 0 a 3.9295943,3.9295943 0 0 1 2.18322,2.22286 l 0.39294,1.125734 0.39296,-1.125734 a 3.9304375,3.9304375 0 0 1 2.18657,-2.222 v 0 a 3.9304375,3.9304375 0 0 1 -2.18657,-2.22369 z"
         class="cls-8"
         inkscape:connector-curvature="0" />
      <path
         style="fill:#ffffff;stroke-width:0.84326059"
         id="path2457-9-9-7"
         d="m -258.43851,42.038386 -0.39296,-1.125757 -0.39294,1.125757 a 3.9304375,3.9304375 0 0 1 -2.18322,2.22283 v 0 a 3.9295943,3.9295943 0 0 1 2.18322,2.222861 l 0.39294,1.125725 0.39296,-1.125725 a 3.9304375,3.9304375 0 0 1 2.18657,-2.222001 v 0 a 3.9304375,3.9304375 0 0 1 -2.18657,-2.22369 z"
         class="cls-8"
         inkscape:connector-curvature="0" />
      <path
         style="fill:#ffffff;stroke-width:1.54031718"
         id="path2457-9-9-1"
         d="m -250.55139,31.534676 -0.80027,-1.84439 -0.80023,1.84439 a 8.0044119,6.4394542 0 0 1 -4.44617,3.641786 v 0 a 8.0026947,6.4380728 0 0 1 4.44617,3.641837 l 0.80023,1.844338 0.80027,-1.844338 a 8.0044119,6.4394542 0 0 1 4.45299,-3.640428 v 0 a 8.0044119,6.4394542 0 0 1 -4.45299,-3.643195 z"
         class="cls-8"
         inkscape:connector-curvature="0" />
      <path
         style="fill:#ffffff;stroke-width:0.84326059"
         id="path2457-9-9-72"
         d="m -267.52327,5.1649774 -0.39296,-1.125757 -0.39294,1.125757 a 3.9304375,3.9304375 0 0 1 -2.18322,2.22283 v 0 a 3.9295943,3.9295943 0 0 1 2.18322,2.222861 l 0.39294,1.1257246 0.39296,-1.1257246 a 3.9304375,3.9304375 0 0 1 2.18657,-2.222001 v 0 a 3.9304375,3.9304375 0 0 1 -2.18657,-2.22369 z"
         class="cls-8"
         inkscape:connector-curvature="0" />
      <path
         style="fill:#ffffff;stroke-width:1.15674508"
         id="path2457-9-9-4"
         d="m -232.85186,-11.666247 -0.59662,-1.395244 -0.59659,1.395244 a 5.9674247,4.8713188 0 0 1 -3.31469,2.7549394 v 0 a 5.9661445,4.8702737 0 0 1 3.31469,2.754977 l 0.59659,1.395205 0.59662,-1.395205 a 5.9674247,4.8713188 0 0 1 3.31978,-2.753911 v 0 a 5.9674247,4.8713188 0 0 1 -3.31978,-2.7560054 z"
         class="cls-8"
         inkscape:connector-curvature="0" />
      <path
         style="fill:#ffffff;stroke-width:0.73096186"
         id="path2457-9-9-26"
         d="m -278.70314,-14.137925 -0.4337,-0.766441 -0.43367,0.766441 a 4.3378349,2.6759291 0 0 1 -2.40951,1.513352 v 0 a 4.3369043,2.6753551 0 0 1 2.40951,1.513373 l 0.43367,0.766419 0.4337,-0.766419 a 4.3378349,2.6759291 0 0 1 2.41321,-1.512788 v 0 a 4.3378349,2.6759291 0 0 1 -2.41321,-1.513937 z"
         class="cls-8"
         inkscape:connector-curvature="0" />
      <path
         style="fill:#ffffff;stroke-width:0.84326059"
         id="path2457-9-9-9"
         d="m -261.64489,-4.186974 -0.39296,-1.125757 -0.39294,1.125757 a 3.9304375,3.9304375 0 0 1 -2.18322,2.22283 v 0 a 3.9295943,3.9295943 0 0 1 2.18322,2.22286086 l 0.39294,1.12572504 0.39296,-1.12572504 a 3.9304375,3.9304375 0 0 1 2.18657,-2.22200086 v 0 a 3.9304375,3.9304375 0 0 1 -2.18657,-2.22369 z"
         class="cls-8"
         inkscape:connector-curvature="0" />
      <rect
         y="-25.05794"
         x="-328.30142"
         height="128.27483"
         width="219.85468"
         id="rect5957"
         style="opacity:1;fill:#ffffff;fill-opacity:0;stroke:none;stroke-width:0.26458332;stroke-opacity:1" />
      <path
         style="fill:#ffffff;stroke-width:1.80472195"
         id="path2457-9-96"
         d="m -120.48162,56.309404 0.72727,2.44604 0.95286,-2.36728 a 8.411809,8.411809 0 0 1 4.8901,-4.53323 v 0 a 8.4100043,8.4100043 0 0 1 -4.44457,-4.97088 l -0.72723,-2.44598 -0.95291,2.36722 a 8.411809,8.411809 0 0 1 -4.89717,4.53112 v 0 a 8.411809,8.411809 0 0 1 4.45165,4.97299 z"
         class="cls-8"
         inkscape:connector-curvature="0" />
      <path
         style="fill:#ffffff;stroke-width:0.84326059"
         id="path2457-9-9-72-8"
         d="m -225.33277,162.05465 0.33982,1.14292 0.44522,-1.10612 a 3.9304375,3.9304375 0 0 1 2.28491,-2.11817 v 0 a 3.9295943,3.9295943 0 0 1 -2.07674,-2.32266 l -0.33979,-1.14289 -0.44524,1.1061 a 3.9304375,3.9304375 0 0 1 -2.28822,2.11717 v 0 a 3.9304375,3.9304375 0 0 1 2.08004,2.32365 z"
         class="cls-8"
         inkscape:connector-curvature="0" />
      <path
         style="fill:#ffffff;stroke-width:1.1567452"
         id="path2457-9-9-4-6"
         d="m -205.55705,127.27259 0.53063,1.42165 0.66127,-1.36579 a 5.9674247,4.8713189 2.6838959 0 1 3.44006,-2.5967 v 0 a 5.9661446,4.8702738 2.6838959 0 1 -3.18205,-2.90716 l -0.53061,-1.42161 -0.66129,1.36573 a 5.9674247,4.8713189 2.6838959 0 1 -3.4451,2.59545 v 0 a 5.9674247,4.8713189 2.6838959 0 1 3.18709,2.90843 z"
         class="cls-8"
         inkscape:connector-curvature="0" />
      <path
         style="fill:#ffffff;stroke-width:0.73096186"
         id="path2457-9-9-26-4"
         d="m -171.71845,136.26098 0.39733,0.78591 0.46909,-0.74529 a 4.337835,2.6759292 2.6838959 0 1 2.47773,-1.39887 v 0 a 4.3369045,2.675355 2.6838959 0 1 -2.33601,-1.62454 l -0.3973,-0.78588 -0.46911,0.74526 a 4.337835,2.6759292 2.6838959 0 1 -2.4814,1.39814 v 0 a 4.337835,2.6759292 2.6838959 0 1 2.33967,1.62527 z"
         class="cls-8"
         inkscape:connector-curvature="0" />
      <path
         style="fill:#ffffff;stroke-width:0.84326059"
         id="path2457-9-9-9-2"
         d="m -177.58659,113.98688 0.33981,1.14292 0.44523,-1.10612 a 3.9304375,3.9304375 0 0 1 2.28491,-2.11816 v 0 a 3.9295943,3.9295943 0 0 1 -2.07674,-2.32266 l -0.3398,-1.14289 -0.44524,1.10608 a 3.9304375,3.9304375 0 0 1 -2.28822,2.11719 v 0 a 3.9304375,3.9304375 0 0 1 2.08005,2.32364 z"
         class="cls-8"
         inkscape:connector-curvature="0" />
      <rect
         y="85.929092"
         x="-258.0675"
         height="38.802654"
         width="34.847755"
         id="rect7216"
         style="opacity:1;fill:#5b8dd8;fill-opacity:1;stroke:none;stroke-width:0.16135356;stroke-opacity:1" />
      <rect
         y="74.236595"
         x="-229.20158"
         height="34.174278"
         width="9.9079456"
         id="rect7216-5"
         style="opacity:1;fill:#5b8dd8;fill-opacity:1;stroke:none;stroke-width:0.08074244;stroke-opacity:1" />
      <rect
         transform="rotate(90)"
         y="211.92413"
         x="35.177872"
         height="11.501724"
         width="9.9079456"
         id="rect7216-5-5"
         style="opacity:1;fill:#5b8dd8;fill-opacity:1;stroke:none;stroke-width:0.04684181;stroke-opacity:1" />
      <rect
         transform="rotate(90)"
         y="200.65318"
         x="24.122438"
         height="34.174278"
         width="15.95396"
         id="rect7216-5-5-5"
         style="opacity:1;fill:#5b8dd8;fill-opacity:1;stroke:none;stroke-width:0.10245764;stroke-opacity:1" />
      <rect
         transform="rotate(90)"
         y="134.57089"
         x="-1.3347176"
         height="34.174278"
         width="32.580502"
         id="rect7216-5-5-5-3"
         style="opacity:1;fill:#5b8dd8;fill-opacity:1;stroke:none;stroke-width:0.14641614;stroke-opacity:1" />
      <rect
         transform="rotate(90)"
         y="266.68042"
         x="149.02542"
         height="27.761511"
         width="14.064582"
         id="rect7216-5-5-5-3-0"
         style="opacity:1;fill:#5b8dd8;fill-opacity:1;stroke:none;stroke-width:0.09619965;stroke-opacity:1" />
      <rect
         transform="rotate(90)"
         y="280.69992"
         x="86.596062"
         height="13.599985"
         width="64.322075"
         id="rect7216-5-5-5-3-0-9"
         style="opacity:1;fill:#5b8dd8;fill-opacity:1;stroke:none;stroke-width:0.20572643;stroke-opacity:1" />
      <rect
         transform="rotate(90)"
         y="269.61185"
         x="10.060654"
         height="25.089525"
         width="64.322075"
         id="rect7216-5-5-5-3-0-9-7"
         style="opacity:1;fill:#5b8dd8;fill-opacity:1;stroke:none;stroke-width:0.20572643;stroke-opacity:1" />
      <rect
         transform="rotate(90)"
         y="139.1185"
         x="-1.067521"
         height="29.631901"
         width="27.770926"
         id="rect7216-5-5-5-3-9"
         style="opacity:1;fill:#ffffff;fill-opacity:1;stroke:none;stroke-width:0.1258738;stroke-opacity:1" />
      <rect
         y="74.260788"
         x="-229.64363"
         height="28.481951"
         width="6.5712652"
         id="rect7216-5-8"
         style="opacity:1;fill:#ffffff;fill-opacity:1;stroke:none;stroke-width:0.04122478;stroke-opacity:1" />
      <rect
         y="85.914322"
         x="-258.1091"
         height="32.756641"
         width="30.313244"
         id="rect7216-2"
         style="opacity:1;fill:#ffffff;fill-opacity:1;stroke:none;stroke-width:0.16135356;stroke-opacity:1" />
      <rect
         transform="rotate(90)"
         y="204.26215"
         x="23.97411"
         height="30.433498"
         width="14.083571"
         id="rect7216-5-5-5-4"
         style="opacity:1;fill:#ffffff;fill-opacity:1;stroke:none;stroke-width:0.10245765;stroke-opacity:1" />
      <rect
         transform="rotate(90)"
         y="214.95335"
         x="32.894474"
         height="8.8297377"
         width="9.9079456"
         id="rect7216-5-5-9"
         style="opacity:1;fill:#ffffff;fill-opacity:1;stroke:none;stroke-width:0.04684181;stroke-opacity:1" />
      <rect
         transform="rotate(90)"
         y="273.84448"
         x="9.9246111"
         height="20.93289"
         width="60.16544"
         id="rect7216-5-5-5-3-0-9-7-7"
         style="opacity:1;fill:#ffffff;fill-opacity:1;stroke:none;stroke-width:0.20572643;stroke-opacity:1" />
      <rect
         transform="rotate(90)"
         y="269.26413"
         x="148.91795"
         height="34.174278"
         width="10.323801"
         id="rect7216-5-5-5-3-0-7"
         style="opacity:1;fill:#ffffff;fill-opacity:1;stroke:none;stroke-width:0.09619965;stroke-opacity:1" />
      <rect
         inkscape:transform-center-y="2.8044345"
         inkscape:transform-center-x="-0.59936368"
         transform="matrix(0.59671651,0.80245212,-0.75475269,0.65600944,0,0)"
         y="195.98392"
         x="-122.6309"
         height="7.8639197"
         width="9.1199608"
         id="rect7216-5-5-9-9"
         style="opacity:1;fill:#ffffff;fill-opacity:1;stroke:none;stroke-width:0.04690977;stroke-opacity:1" />
      <rect
         transform="matrix(-0.72299657,0.69085162,-0.65871206,-0.75239512,0,0)"
         y="82.623093"
         x="310.14517"
         height="12.825263"
         width="8.485858"
         id="rect7216-5-5-5-3-0-7-1"
         style="opacity:1;fill:#ffffff;fill-opacity:1;stroke:none;stroke-width:0.09624531;stroke-opacity:1" />
      <rect
         style="opacity:1;fill:#5b8dd8;fill-opacity:1;stroke:none;stroke-width:0.26458332;stroke-opacity:1"
         id="rect7578"
         width="10.893091"
         height="36.857201"
         x="-104.06005"
         y="-37.67588" />
    </g>
    <rect
       style="opacity:1;fill:#ffffff;fill-opacity:1;stroke:none;stroke-width:0.20572643;stroke-opacity:1"
       id="rect7216-5-5-5-3-0-9-5"
       width="66.72686"
       height="34.174278"
       x="87.404343"
       y="338.10693"
       transform="rotate(90)" />
  </g>
</svg>
