<?xml version="1.0" encoding="UTF-8" standalone="no"?>
<!-- Created with Inkscape (http://www.inkscape.org/) -->

<svg
   xmlns:dc="http://purl.org/dc/elements/1.1/"
   xmlns:cc="http://creativecommons.org/ns#"
   xmlns:rdf="http://www.w3.org/1999/02/22-rdf-syntax-ns#"
   xmlns:svg="http://www.w3.org/2000/svg"
   xmlns="http://www.w3.org/2000/svg"
   xmlns:sodipodi="http://sodipodi.sourceforge.net/DTD/sodipodi-0.dtd"
   xmlns:inkscape="http://www.inkscape.org/namespaces/inkscape"
   width="508mm"
   height="211.66667mm"
   viewBox="0 0 508 211.66667"
   version="1.1"
   id="svg8"
   inkscape:version="0.92.4 (5da689c313, 2019-01-14)"
   sodipodi:docname="contact-background.svg">
  <defs
     id="defs2" />
  <sodipodi:namedview
     id="base"
     pagecolor="#ffffff"
     bordercolor="#666666"
     borderopacity="1.0"
     inkscape:pageopacity="0.0"
     inkscape:pageshadow="2"
     inkscape:zoom="0.49497475"
     inkscape:cx="1180.1358"
     inkscape:cy="3.8885445"
     inkscape:document-units="mm"
     inkscape:current-layer="layer1"
     showgrid="false"
     inkscape:window-width="1920"
     inkscape:window-height="1017"
     inkscape:window-x="-8"
     inkscape:window-y="-8"
     inkscape:window-maximized="1" />
  <metadata
     id="metadata5">
    <rdf:RDF>
      <cc:Work
         rdf:about="">
        <dc:format>image/svg+xml</dc:format>
        <dc:type
           rdf:resource="http://purl.org/dc/dcmitype/StillImage" />
        <dc:title />
      </cc:Work>
    </rdf:RDF>
  </metadata>
  <g
     inkscape:label="Layer 1"
     inkscape:groupmode="layer"
     id="layer1"
     transform="translate(324.30356,-16.54166)">
    <g
       id="g1093"
       transform="matrix(0.36018805,0,0,0.36018805,117.50817,74.559077)"
       style="stroke-width:2.77632761">
      <path
         style="fill:#d6e2ed;stroke-width:2.77632761"
         d="m 179.72769,201.06674 c -1.52797,-0.33899 -4.20688,-0.91534 -5.95313,-1.28077 -14.89551,-3.11716 -34.72428,-7.32299 -35.126,-7.45049 -0.80626,-0.2559 -2.30693,-1.70805 -2.83519,-2.74357 -0.92118,-1.80564 -0.90856,-2.59559 0.11922,-7.46244 0.53297,-2.52386 1.61126,-7.62494 2.39614,-11.33572 0.78489,-3.71079 3.63951,-17.28391 6.3436,-30.1625 2.70409,-12.8786 5.59231,-26.61862 6.41824,-30.53338 1.74495,-8.27094 2.0702,-9.02293 4.36427,-10.091 0.77944,-0.362878 1.87905,-0.646588 2.51172,-0.64804 0.61891,-0.0013 3.9461,0.592727 7.3937,1.32033 3.4476,0.72761 6.34846,1.32292 6.44639,1.32292 0.16377,0 0.8029,-2.702083 0.67127,-2.838097 -0.0319,-0.03299 -2.96791,-0.673016 -6.52444,-1.422289 -6.80471,-1.433584 -8.22642,-1.939388 -10.02916,-3.56806 -2.32405,-2.099633 -2.29301,-2.006322 -7.03929,-21.165125 -4.68707,-18.919722 -4.7144,-19.079443 -3.52558,-20.590806 0.29147,-0.370536 0.9865,-0.796637 1.54448,-0.946891 1.10813,-0.298384 1.17896,-0.284933 24.9799,4.743924 6.23612,1.317622 11.4451,2.395675 11.57552,2.395675 0.13827,0 0.23709,11.800557 0.23709,28.310417 0,18.880082 -0.089,28.310412 -0.26718,28.310412 -0.14695,0 -2.20077,-0.41083 -4.56406,-0.91296 -2.36328,-0.50212 -7.15439,-1.52043 -10.64689,-2.26291 -6.85733,-1.4578 -7.6596,-1.49591 -9.51399,-0.45195 -2.21726,1.24824 -2.26187,1.38184 -5.3208,15.93847 -1.52812,7.27191 -3.31004,15.7023 -3.95983,18.7342 -0.64976,3.03191 -1.18142,5.98 -1.18142,6.55133 0,1.99466 1.59605,4.35112 3.41559,5.04291 0.367,0.13953 2.2787,0.59962 4.24823,1.02242 5.64311,1.21139 27.55717,5.81558 27.67978,5.81558 0.0608,0 0.11057,8.33437 0.11057,18.52083 V 201.75 l -0.59531,-0.0335 c -0.32742,-0.0184 -1.84547,-0.31081 -3.37344,-0.6498 z m 0.70461,-40.95752 c -1.59176,-0.35222 -2.69158,-0.73478 -2.83157,-0.98494 -0.20391,-0.36436 -0.10419,-1.01312 0.67699,-4.40397 0.16912,-0.73413 0.88313,-0.76842 3.53417,-0.16973 l 1.88455,0.42558 v 2.88171 c 0,2.1435 -0.0847,2.87473 -0.33073,2.85449 -0.1819,-0.015 -1.50193,-0.28639 -2.93341,-0.60314 z m -8.50982,-1.7894 c -1.30969,-0.29373 -2.48864,-0.63764 -2.6199,-0.76423 -0.31803,-0.30674 0.52922,-4.496 1.00563,-4.97241 0.31244,-0.31245 0.79113,-0.27909 3.2394,0.22578 1.58003,0.32582 3.03379,0.74188 3.23056,0.92457 0.30004,0.27856 0.27868,0.7105 -0.13229,2.67691 l -0.49006,2.34476 -0.92605,0.0494 c -0.50932,0.0271 -1.9976,-0.19099 -3.30729,-0.48473 z m -7.85839,-1.64262 c -1.41168,-0.31259 -2.70946,-0.71111 -2.88396,-0.88559 -0.4187,-0.4187 0.19127,-4.14033 0.79542,-4.85314 0.41201,-0.48612 0.49326,-0.48219 3.45726,0.16706 3.00712,0.6587 3.53594,0.92837 3.32684,1.69655 -0.0594,0.21828 -0.2486,1.11125 -0.42045,1.98437 -0.38528,1.95764 -0.66976,2.52142 -1.25468,2.48632 -0.24953,-0.015 -1.60872,-0.28298 -3.02043,-0.59557 z m -8.54577,-1.79579 c -1.30969,-0.29295 -2.53392,-0.68039 -2.72053,-0.86096 -0.27567,-0.26677 -0.2485,-0.74266 0.14491,-2.53841 0.26755,-1.22124 0.66146,-2.32191 0.8804,-2.46002 0.26408,-0.16656 1.40719,-0.0402 3.42697,0.37882 l 3.03075,0.62876 -0.0609,1.32009 c -0.0334,0.72605 -0.21204,1.91541 -0.39687,2.64301 -0.30454,1.19902 -0.41037,1.32753 -1.12978,1.37213 -0.43656,0.0271 -1.86531,-0.19047 -3.17499,-0.48342 z m 25.39999,-2.25557 c -0.87312,-0.21021 -1.68581,-0.4799 -1.80601,-0.59931 -0.28483,-0.28299 0.59184,-4.69637 1.00023,-5.03529 0.20645,-0.17134 0.87193,-0.15635 1.94871,0.0439 l 1.6352,0.3041 v 2.86372 c 0,3.28798 0.17634,3.1342 -2.77813,2.42289 z m -6.74967,-1.39863 c -3.66602,-0.83504 -3.43959,-0.72409 -3.41085,-1.67132 0.0143,-0.47017 0.22259,-1.62876 0.46302,-2.57464 0.38348,-1.50885 0.51982,-1.72944 1.11159,-1.79839 0.91538,-0.10666 5.5944,0.95113 6.00583,1.35775 0.26398,0.26087 0.24141,0.7499 -0.11234,2.43407 -0.24347,1.15918 -0.55552,2.25644 -0.69345,2.43834 -0.31353,0.41345 -0.8672,0.38286 -3.3638,-0.18581 z m -8.99303,-1.90006 c -1.23693,-0.28419 -2.39252,-0.66039 -2.568,-0.83599 -0.24897,-0.24919 -0.21412,-0.80141 0.15875,-2.51531 0.26276,-1.20781 0.60648,-2.32476 0.76386,-2.48213 0.20507,-0.20509 1.11006,-0.11542 3.19587,0.31669 1.60039,0.33154 3.06181,0.69675 3.24763,0.81159 0.27382,0.16923 0.27218,0.60062 -0.008,2.27621 -0.1905,1.13707 -0.4573,2.27577 -0.5929,2.53043 -0.31494,0.59148 -1.28236,0.56808 -4.19666,-0.10149 z m -7.8758,-1.65944 c -1.49405,-0.32425 -2.84406,-0.71715 -3.00001,-0.87311 -0.37676,-0.37675 0.45199,-4.59266 0.98457,-5.00866 0.29263,-0.22857 1.09027,-0.15109 3.33171,0.32363 1.62084,0.34327 3.06353,0.74068 3.20596,0.88311 0.30604,0.30605 -0.44408,4.38963 -0.90932,4.95021 -0.36642,0.44153 -0.28033,0.44809 -3.61291,-0.27518 z m 26.19877,-3.20001 c 0.003,-0.58208 0.0571,-0.78905 0.12042,-0.45993 0.0633,0.32912 0.0609,0.80537 -0.005,1.05833 -0.0662,0.25297 -0.118,-0.0163 -0.11506,-0.5984 z m -5.31521,0.0212 c -2.67552,-0.5805 -3.31467,-0.9395 -3.09959,-1.74095 0.0586,-0.21828 0.1847,-0.81359 0.28027,-1.32292 0.50215,-2.67571 0.62592,-2.91078 1.52956,-2.90469 1.15884,0.008 5.52325,0.9901 5.84975,1.3166 0.34475,0.34477 -0.49279,4.77448 -0.95864,5.07013 -0.43265,0.27457 -0.38079,0.28059 -3.60135,-0.41817 z m -8.70355,-1.80312 c -1.7359,-0.39047 -2.48372,-0.67886 -2.58461,-0.99671 -0.13401,-0.42229 0.4195,-3.56053 0.80492,-4.56352 0.0979,-0.25466 0.36949,-0.46302 0.60365,-0.46302 0.97835,0 5.76373,1.14319 6.09449,1.45593 0.30194,0.28549 0.27874,0.71266 -0.14579,2.68296 l -0.5049,2.3434 -0.91255,0.0452 c -0.50189,0.0249 -2.01173,-0.20205 -3.35521,-0.50425 z m -9.19149,-1.95045 c -2.32418,-0.50007 -4.3448,-1.02821 -4.49024,-1.17364 -0.28888,-0.28888 0.49868,-4.69701 0.915,-5.12132 0.28107,-0.28648 8.55337,1.37534 9.20007,1.84821 0.41452,0.30311 0.41354,0.46624 -0.0151,2.50518 -0.42498,2.02141 -0.80955,2.92874 -1.21785,2.87332 -0.0913,-0.0124 -2.06767,-0.43168 -4.39187,-0.93175 z m 22.08101,-3.15178 c -0.4496,-0.54174 0.1555,-4.16943 0.83021,-4.97735 0.46834,-0.56077 0.47948,-0.50591 0.48808,2.40269 0.008,2.73859 -0.0309,2.97656 -0.48797,2.97656 -0.27321,0 -0.64685,-0.18086 -0.83032,-0.4019 z m -5.68436,-0.95836 c -1.30969,-0.29295 -2.53407,-0.68053 -2.72084,-0.86127 -0.27615,-0.26725 -0.25641,-0.72058 0.1057,-2.427 0.62259,-2.93373 0.62547,-2.93573 3.45795,-2.38813 1.2827,0.24799 2.73266,0.57716 3.22214,0.7315 0.87855,0.27701 0.88784,0.29631 0.72533,1.50694 -0.0905,0.67449 -0.31242,1.82165 -0.49307,2.54925 -0.29816,1.20093 -0.40164,1.32746 -1.12221,1.37213 -0.43656,0.0271 -1.86531,-0.19047 -3.175,-0.48342 z m -12.42531,-2.62982 c -3.34142,-0.71583 -6.28822,-1.36908 -6.54844,-1.45167 -0.56689,-0.17993 -0.5924,-0.92759 -0.1085,-3.18139 0.42444,-1.97699 0.57004,-2.22513 1.30463,-2.22348 1.01611,0.002 12.96358,2.61944 13.24565,2.90152 0.35153,0.35153 -0.47783,4.77646 -0.95162,5.07713 -0.45273,0.28732 -0.0858,0.34663 -6.94172,-1.12211 z m 14.2068,-4.58388 c -1.49405,-0.32425 -2.84406,-0.71715 -3,-0.87311 -0.37677,-0.37675 0.45199,-4.59266 0.98457,-5.00866 0.29263,-0.22857 1.09027,-0.15109 3.33171,0.32363 1.62084,0.34327 3.06382,0.74098 3.20662,0.88378 0.28993,0.28991 -0.49268,4.41868 -0.94396,4.98008 -0.32776,0.40777 -0.26786,0.41288 -3.57894,-0.30572 z m -8.79295,-1.8377 c -2.19104,-0.50064 -2.52436,-0.65022 -2.59797,-1.16576 -0.13507,-0.94641 0.76923,-4.58773 1.17833,-4.74472 0.6524,-0.25035 6.19175,1.02855 6.43321,1.48528 0.2218,0.41953 -0.44609,4.07393 -0.86199,4.71654 -0.29046,0.44877 -1.18822,0.38577 -4.15158,-0.29134 z m -5.95312,-1.25551 c -0.58209,-0.1303 -1.91101,-0.42178 -2.95317,-0.64772 -1.04217,-0.22595 -1.95573,-0.56944 -2.03013,-0.76331 -0.17057,-0.4445 0.71615,-4.58863 1.05416,-4.92664 0.30199,-0.30197 5.69732,0.72279 6.36119,1.20822 0.39997,0.29246 0.41005,0.5139 0.10374,2.27644 -0.32258,1.85622 -0.86614,3.17441 -1.28513,3.11651 -0.10578,-0.0146 -0.66858,-0.13319 -1.25066,-0.2635 z m 16.31627,-4.32871 c -1.50355,-0.33579 -2.85538,-0.7322 -3.00411,-0.88091 -0.35014,-0.35015 -0.0249,-2.31151 0.44858,-2.70439 0.26815,-0.22255 1.09543,-0.15012 3.29822,0.28877 l 2.94028,0.58581 -0.0777,1.61158 c -0.0576,1.19407 -0.18058,1.62428 -0.47464,1.66062 -0.21828,0.027 -1.62705,-0.22569 -3.1306,-0.56148 z m -8.64335,-1.82273 -2.64584,-0.56994 0.0172,-1.26443 c 0.0277,-2.04734 0.26101,-2.13079 3.80831,-1.36209 1.66743,0.36133 3.12573,0.80246 3.24067,0.98029 0.22569,0.34913 0.0322,1.62555 -0.35984,2.37383 -0.30062,0.5738 -0.74485,0.55655 -4.06043,-0.15766 z m -7.92827,-1.67959 c -1.59565,-0.34693 -2.99442,-0.77497 -3.10838,-0.95119 -0.22418,-0.34665 -0.0292,-1.62498 0.36163,-2.37093 0.30777,-0.5874 0.81061,-0.5687 4.05768,0.15092 2.87528,0.63723 2.98344,0.73686 2.66168,2.45197 -0.25241,1.34555 -0.71054,1.42849 -3.97261,0.71923 z"
         id="path1107"
         inkscape:connector-curvature="0" />
      <path
         style="fill:#b2b7ce;stroke-width:2.77632761"
         d="m 183.03498,198.17846 c -0.14552,-0.0496 -1.18732,-0.28645 -2.3151,-0.52633 -1.90498,-0.40519 -2.05052,-0.48384 -2.05052,-1.1082 0,-0.5945 4.62314,-23.09746 4.88259,-23.76581 0.0565,-0.14552 0.11211,5.53971 0.12361,12.63386 0.0114,7.09414 -0.0684,12.88903 -0.17756,12.87754 -0.10914,-0.0115 -0.3175,-0.0615 -0.46302,-0.11106 z m -1.98437,-37.9845 c -1.23693,-0.27556 -2.53315,-0.56954 -2.8805,-0.65329 -0.59952,-0.14455 -0.6232,-0.22864 -0.46717,-1.65949 0.22617,-2.07443 0.66051,-3.49235 1.12432,-3.67033 0.21423,-0.0822 1.39745,0.062 2.62935,0.32056 l 2.23983,0.47004 v 2.86906 c 0,1.57799 -0.0893,2.85903 -0.19844,2.84676 -0.10914,-0.0123 -1.21047,-0.24776 -2.44739,-0.52331 z m -8.85645,-1.86445 c -1.30578,-0.27778 -2.52836,-0.65926 -2.71685,-0.84775 -0.28054,-0.28053 -0.2653,-0.72401 0.084,-2.44504 0.23469,-1.15629 0.5688,-2.25144 0.7425,-2.43366 0.25242,-0.26479 0.88543,-0.21718 3.15236,0.2371 3.81978,0.76545 3.74263,0.69045 3.23156,3.14036 -0.2273,1.08951 -0.47773,2.18929 -0.55655,2.44395 -0.17939,0.5796 -0.84106,0.56364 -3.93702,-0.095 z m -8.03947,-1.69282 c -1.50742,-0.3362 -2.86198,-0.73251 -3.01017,-0.8807 -0.27249,-0.27249 0.13475,-3.1612 0.63598,-4.51127 0.21426,-0.57708 0.34176,-0.61807 1.48402,-0.47709 2.48264,0.30641 5.12585,1.03644 5.28863,1.46068 0.39534,1.03019 -0.85225,5.15344 -1.52546,5.04161 -0.0728,-0.0121 -1.36562,-0.29705 -2.873,-0.63323 z m -8.58026,-1.8026 c -1.42433,-0.31724 -2.68875,-0.73733 -2.80979,-0.93353 -0.24567,-0.39817 0.57311,-4.44771 0.98197,-4.85656 0.33139,-0.33141 5.86261,0.75627 6.37945,1.25448 0.32253,0.3109 0.30382,0.68355 -0.13507,2.68903 -0.60518,2.76536 -0.49612,2.71977 -4.41656,1.84658 z m 25.60918,-2.19507 c -2.22356,-0.53748 -2.29732,-0.65351 -1.83086,-2.87965 0.67172,-3.20572 0.61481,-3.15102 2.77376,-2.66553 l 1.43764,0.32329 0.0751,2.82477 c 0.0857,3.22406 0.26032,3.05362 -2.45563,2.39712 z m -7.33033,-1.52532 c -1.41192,-0.30832 -2.71135,-0.70511 -2.88764,-0.88175 -0.43161,-0.43252 0.4586,-4.81591 1.02198,-5.0321 0.58846,-0.22582 5.97959,0.98246 6.3204,1.41655 0.22672,0.28877 0.187,0.88977 -0.16241,2.45719 -0.25439,1.1412 -0.5453,2.20885 -0.64645,2.37254 -0.23286,0.37674 -0.51692,0.35084 -3.64588,-0.33243 z m -8.67767,-1.84411 c -2.22848,-0.5092 -2.52347,-0.64414 -2.60112,-1.18983 -0.13597,-0.95575 0.7308,-4.47449 1.14101,-4.6319 0.50208,-0.19267 5.86531,0.95361 6.24684,1.33512 0.23368,0.23368 0.22696,0.74115 -0.028,2.1128 -0.5002,2.69118 -0.6571,2.99978 -1.51107,2.97201 -0.4038,-0.0131 -1.86526,-0.28232 -3.2477,-0.5982 z m -7.76963,-1.62133 c -2.8135,-0.58952 -3.43923,-0.92436 -3.22429,-1.72535 0.0586,-0.21828 0.18471,-0.81359 0.28028,-1.32291 0.46738,-2.49051 0.65799,-2.91042 1.32106,-2.91042 1.3312,0 5.92407,1.13054 6.06295,1.4924 0.0777,0.20239 -0.0474,1.28885 -0.27797,2.41435 -0.39417,1.92428 -0.73657,2.74306 -1.12114,2.68106 -0.0913,-0.0147 -1.45974,-0.29783 -3.04089,-0.62913 z M 183.49324,144.6 c 0,-0.50933 0.0545,-0.71769 0.12099,-0.46303 0.0666,0.25467 0.0666,0.67138 0,0.92605 -0.0665,0.25466 -0.12099,0.0463 -0.12099,-0.46302 z m -4.82388,-0.0315 c -1.23693,-0.27338 -2.51685,-0.55899 -2.84427,-0.63469 -0.46734,-0.10805 -0.59442,-0.3214 -0.59119,-0.99249 0.006,-1.17101 0.66397,-3.87773 1.0328,-4.24657 0.2258,-0.22579 1.0481,-0.14939 3.27038,0.30387 1.6328,0.33304 3.07613,0.71184 3.20739,0.84178 0.28601,0.28318 -0.49033,4.39814 -0.92967,4.9275 -0.35515,0.42793 -0.28765,0.43221 -3.14544,-0.1994 z m -8.92165,-1.91059 c -1.34165,-0.3143 -2.56394,-0.69836 -2.71621,-0.85348 -0.34287,-0.34932 0.40637,-4.30392 0.91652,-4.83721 0.28575,-0.29874 0.8087,-0.25973 3.21617,0.23995 1.58123,0.32819 3.02598,0.73329 3.21056,0.90023 0.27043,0.24459 0.25193,0.71177 -0.0952,2.40588 -0.64157,3.13134 -0.53505,3.08092 -4.53187,2.14463 z m -9.86377,-2.054 c -1.96453,-0.43238 -3.73346,-0.94753 -3.93091,-1.14477 -0.30234,-0.30198 -0.28589,-0.69734 0.10424,-2.5029 0.25482,-1.17935 0.60815,-2.26449 0.78521,-2.41143 0.35996,-0.29875 8.76247,1.38285 9.22602,1.84641 0.17692,0.17693 0.0946,1.03537 -0.24781,2.58324 l -0.51279,2.31825 -0.92604,0.0487 c -0.50933,0.0268 -2.53339,-0.30509 -4.49792,-0.73747 z m 22.61796,-2.9855 c -0.47138,-0.34469 -0.48025,-0.47747 -0.14584,-2.18281 0.43577,-2.22215 0.71472,-3.00643 1.06923,-3.00643 0.16794,0 0.27115,1.0577 0.27115,2.77813 0,2.93461 -0.12726,3.19151 -1.19454,2.41111 z m -5.68463,-1.00189 c -1.38244,-0.28649 -2.64911,-0.69562 -2.81479,-0.90918 -0.22829,-0.29421 -0.18982,-0.90181 0.15872,-2.50789 0.253,-1.16578 0.58333,-2.24294 0.73406,-2.39369 0.34163,-0.34162 5.85145,0.71048 6.37905,1.21808 0.28916,0.27819 0.29832,0.63407 0.0488,1.89527 -0.53763,2.71708 -0.7815,3.27545 -1.4175,3.24543 -0.31613,-0.0149 -1.70588,-0.26153 -3.08833,-0.54802 z m -12.75503,-2.69964 c -3.45001,-0.74548 -6.41191,-1.49555 -6.58204,-1.66683 -0.23603,-0.23764 -0.22982,-0.73908 0.0262,-2.11667 0.44681,-2.40389 0.68959,-2.99587 1.22865,-2.99587 0.83529,0 13.18477,2.68415 13.42607,2.91815 0.28628,0.27764 -0.49115,4.39428 -0.92967,4.92266 -0.37277,0.44918 0.24522,0.54068 -7.16923,-1.06144 z m 14.38344,-4.5362 c -1.50548,-0.33018 -2.85912,-0.72222 -3.0081,-0.87119 -0.18476,-0.18476 -0.16875,-0.71922 0.0503,-1.68132 0.77856,-3.41922 0.76766,-3.39525 1.538,-3.38911 1.20335,0.01 5.44092,1.03251 5.81115,1.40276 0.28752,0.28752 0.27006,0.71226 -0.10057,2.44629 -0.46448,2.17312 -0.74552,2.78352 -1.25524,2.72636 -0.16409,-0.0184 -1.53008,-0.30361 -3.03556,-0.63379 z m -8.43338,-1.80402 c -1.34165,-0.3143 -2.57871,-0.71314 -2.74905,-0.88632 -0.2367,-0.24066 -0.19712,-0.8513 0.16801,-2.59111 0.26273,-1.25193 0.58542,-2.34283 0.71713,-2.42422 0.26955,-0.16661 5.79977,0.92765 6.32325,1.25117 0.27381,0.16922 0.27217,0.60061 -0.008,2.2762 -0.56478,3.37111 -0.45212,3.31101 -4.45079,2.37428 z m -8.47887,-1.77132 c -2.64684,-0.59766 -2.70883,-0.63268 -2.70391,-1.52772 0.006,-1.08283 0.77311,-4.11001 1.09146,-4.30675 0.34168,-0.21119 6.0374,0.9644 6.39239,1.31939 0.2508,0.25079 -0.17169,3.19661 -0.63939,4.45818 -0.27393,0.73891 -1.07154,0.74987 -4.14055,0.0569 z m 18.83373,-3.82229 c -3.77849,-0.81562 -3.62947,-0.72591 -3.41482,-2.05602 0.2993,-1.85432 0.42408,-1.89404 3.78937,-1.20624 l 2.95473,0.60389 v 1.49686 c 0,0.95695 -0.1193,1.54023 -0.33073,1.61712 -0.1819,0.0661 -1.53125,-0.13888 -2.99855,-0.45561 z m -8.76874,-1.82495 c -1.48791,-0.32558 -2.78217,-0.66884 -2.87613,-0.76281 -0.33284,-0.33284 0.18354,-2.60315 0.63119,-2.77492 0.59225,-0.22727 5.87166,0.87411 6.31497,1.31743 0.29311,0.29311 0.29546,0.559 0.0135,1.53594 -0.41707,1.44511 -0.52451,1.46312 -4.08356,0.68436 z m -8.53948,-1.78822 c -1.23693,-0.28274 -2.39249,-0.65811 -2.56794,-0.83416 -0.35094,-0.35215 -0.0688,-2.15475 0.41251,-2.63613 0.26734,-0.26732 5.70212,0.70104 6.41816,1.14358 0.24881,0.15378 0.27003,0.52395 0.085,1.48246 -0.23649,1.2249 -0.28477,1.27916 -1.17269,1.31791 -0.50932,0.0222 -1.93807,-0.19092 -3.175,-0.47366 z m 14.80354,-11.72789 c -2.84485,-0.61398 -5.48179,-1.19397 -5.85986,-1.28885 l -0.68738,-0.17253 0.63849,-2.95214 c 0.35115,-1.62367 0.58542,-3.005198 0.52057,-3.070047 -0.0649,-0.06485 -3.08195,-0.748181 -6.70465,-1.518518 -3.73819,-0.794888 -7.08038,-1.652429 -7.72814,-1.982896 -1.60305,-0.817816 -3.63238,-2.937192 -4.37845,-4.572743 -0.34756,-0.761916 -1.5829,-5.254834 -2.74519,-9.984262 -1.16231,-4.729427 -3.07919,-12.523007 -4.25971,-17.319067 -2.04227,-8.296923 -2.1314,-8.782772 -1.83668,-10.011362 0.36761,-1.532385 1.3667,-2.295668 3.02392,-2.310218 0.58208,-0.0051 8.88664,1.631556 18.45455,3.637032 l 17.3962,3.646323 1.6e-4,24.540105 c 10e-5,19.472993 -0.0682,24.533433 -0.3306,24.507803 -0.1819,-0.0178 -2.65835,-0.53465 -5.50323,-1.14863 z"
         id="path1105"
         inkscape:connector-curvature="0" />
      <path
         style="fill:#979eaa;stroke-width:2.77632761"
         d="m 180.83042,160.08662 c -1.50355,-0.33419 -2.86956,-0.74346 -3.03559,-0.9095 -0.22614,-0.22612 -0.19018,-0.8421 0.14322,-2.45454 0.24482,-1.18396 0.55965,-2.26716 0.69958,-2.40712 0.16291,-0.1629 1.11885,-0.0797 2.65666,0.2311 l 2.40215,0.48556 v 2.85373 c 0,1.56955 -0.0298,2.84352 -0.0661,2.83105 -0.0364,-0.0125 -1.29632,-0.2961 -2.79987,-0.63028 z m -8.51106,-1.77671 c -1.38245,-0.28783 -2.65711,-0.66257 -2.83258,-0.83277 -0.24863,-0.24118 -0.21291,-0.79708 0.16195,-2.52022 0.26451,-1.21592 0.62852,-2.30198 0.80889,-2.41345 0.4106,-0.25378 6.12375,0.93524 6.36436,1.32455 0.21331,0.34514 -0.50609,4.22133 -0.87021,4.68875 -0.32113,0.41225 -0.53724,0.39756 -3.63241,-0.24686 z m -8.72877,-1.84014 c -1.23555,-0.28279 -2.35354,-0.62126 -2.48443,-0.75215 -0.35002,-0.35 0.6364,-4.78674 1.10413,-4.96622 0.20926,-0.0803 1.70622,0.13988 3.32655,0.48931 3.42919,0.73951 3.40598,0.70578 2.62075,3.81033 -0.46447,1.83636 -0.4763,1.85242 -1.39448,1.89249 -0.50933,0.0222 -1.93697,-0.19097 -3.17252,-0.47376 z m -7.41082,-1.56748 c -1.23692,-0.27556 -2.51685,-0.56545 -2.84427,-0.64419 -0.42304,-0.10175 -0.59531,-0.33717 -0.59531,-0.81352 0,-0.98128 0.79563,-4.3166 1.07019,-4.48628 0.34742,-0.21473 5.88176,0.96364 6.29708,1.34078 0.29737,0.27004 0.28091,0.66506 -0.10022,2.40524 -0.46869,2.13988 -0.76047,2.76014 -1.28016,2.72129 -0.1641,-0.0123 -1.31038,-0.24777 -2.54731,-0.52332 z m 25.14047,-2.26348 c -2.61895,-0.5723 -2.53042,-0.25941 -1.44216,-5.09706 0.13385,-0.59503 0.22077,-0.62083 1.56067,-0.46336 2.35384,0.27665 2.25769,0.13872 2.25769,3.23845 0,2.03764 -0.0856,2.74294 -0.33073,2.72326 -0.1819,-0.0146 -1.10236,-0.19519 -2.04547,-0.40129 z m -7.37597,-1.55837 c -1.50741,-0.3362 -2.8593,-0.72983 -3.00421,-0.87475 -0.26588,-0.26589 0.41849,-4.11352 0.85823,-4.82503 0.28882,-0.46731 6.33219,0.73824 6.55031,1.30669 0.21302,0.55507 -0.68056,4.59197 -1.07137,4.84018 -0.18021,0.11446 -0.3872,0.19822 -0.45996,0.18613 -0.0728,-0.0121 -1.36562,-0.29704 -2.873,-0.63322 z m -8.55118,-1.8026 c -1.40835,-0.31724 -2.64601,-0.66354 -2.75037,-0.76954 -0.30011,-0.30485 0.45305,-4.16223 0.92033,-4.71362 0.41219,-0.48636 0.48829,-0.4833 3.29822,0.13283 1.58194,0.34687 2.9928,0.7472 3.13523,0.88963 0.16891,0.1689 0.0887,1.07339 -0.23045,2.6006 -0.58132,2.78138 -0.47805,2.73745 -4.37296,1.8601 z m -8.34466,-1.75469 c -3.02303,-0.64322 -3.00083,-0.61429 -2.47798,-3.22979 0.25198,-1.26065 0.59996,-2.26358 0.83732,-2.41329 0.48149,-0.30373 5.90979,0.76051 6.30441,1.236 0.22032,0.26547 -0.16377,2.85344 -0.66201,4.46049 -0.18013,0.58099 -1.0764,0.56902 -4.00174,-0.0534 z m 21.39725,-3.0772 c -1.50548,-0.3214 -2.86279,-0.70992 -3.01625,-0.86339 -0.34068,-0.34067 0.23294,-4.04103 0.73229,-4.7239 0.30628,-0.41888 0.51501,-0.40904 3.20357,0.15098 1.58176,0.32948 3.0253,0.7446 3.20781,0.92249 0.46228,0.4505 -0.35822,4.60282 -0.96727,4.89517 -0.23484,0.11272 -1.64036,-0.0569 -3.16015,-0.38135 z m 5.02795,0.15405 c 0,-0.36381 0.0601,-0.51263 0.13346,-0.33073 0.0734,0.1819 0.0734,0.47955 0,0.66145 -0.0734,0.18191 -0.13346,0.0331 -0.13346,-0.33072 z m -13.5887,-1.94572 c -1.41169,-0.31259 -2.69113,-0.69277 -2.84319,-0.84483 -0.32684,-0.32683 0.41809,-4.2819 0.90911,-4.82682 0.24979,-0.27722 0.86921,-0.22008 3.29827,0.30428 1.64489,0.35509 3.07776,0.78648 3.18418,0.95866 0.20391,0.32996 -0.34325,3.42253 -0.78489,4.4362 -0.30803,0.70697 -0.45135,0.70592 -3.76348,-0.0275 z m -9.92767,-2.10658 c -2.06976,-0.46337 -3.88734,-0.96941 -4.03913,-1.12453 -0.36521,-0.37323 0.42912,-4.36823 0.94982,-4.77698 0.28578,-0.22435 1.42296,-0.0765 4.67252,0.60766 2.36215,0.49729 4.3964,1.00574 4.52054,1.12987 0.12456,0.12457 0.006,1.27511 -0.26371,2.56735 -0.47969,2.29522 -0.50514,2.3426 -1.28315,2.39038 -0.43656,0.0268 -2.48716,-0.33038 -4.55689,-0.79375 z m 22.74699,-2.83512 c -0.70561,-0.28362 -0.7162,-0.56996 -0.11633,-3.1464 0.69514,-2.98572 1.10852,-2.75486 1.10852,0.61906 0,1.54009 -0.0893,2.79263 -0.19844,2.7834 -0.10914,-0.009 -0.46633,-0.12445 -0.79375,-0.25606 z m -5.22552,-1.02877 c -3.6191,-0.77626 -3.57187,-0.75649 -3.57187,-1.49548 0,-0.98128 0.79563,-4.3166 1.07018,-4.48628 0.34743,-0.21473 5.88177,0.96364 6.29709,1.34078 0.29736,0.27004 0.2809,0.66506 -0.10023,2.40524 -0.46921,2.14229 -0.76192,2.76344 -1.28016,2.71667 -0.16409,-0.0148 -1.25084,-0.23123 -2.41501,-0.48093 z m -13.31211,-2.80983 c -3.53812,-0.75492 -6.56111,-1.50076 -6.71777,-1.65742 -0.36952,-0.36951 0.53139,-4.81128 1.01335,-4.99622 0.5085,-0.19514 13.14313,2.54918 13.54709,2.94251 0.29192,0.28425 0.2725,0.70927 -0.1148,2.51159 -0.28951,1.34718 -0.62325,2.24574 -0.88056,2.37077 -0.23807,0.11568 -3.1514,-0.38265 -6.84731,-1.17123 z m 15.1642,-4.35793 c -0.43657,-0.12076 -1.46805,-0.35445 -2.29217,-0.5193 -0.82412,-0.16486 -1.5539,-0.44429 -1.62168,-0.62095 -0.21268,-0.55421 0.74938,-4.49457 1.16072,-4.75403 0.47792,-0.30146 5.76191,0.71967 6.23914,1.20571 0.25001,0.25464 0.23511,0.72945 -0.0684,2.17772 -0.59753,2.85175 -0.5552,2.78107 -1.64954,2.75427 -0.53589,-0.0131 -1.33154,-0.12267 -1.7681,-0.24342 z m -9.18335,-1.9349 c -1.41282,-0.31677 -2.70518,-0.7134 -2.87192,-0.88141 -0.36735,-0.37014 0.42572,-4.4248 0.95068,-4.86049 0.2986,-0.2478 1.53373,-0.0505 5.87906,0.93939 0.72763,0.16575 0.75314,1.02038 0.10637,3.56511 -0.52158,2.05223 -0.48274,2.0404 -4.06419,1.2374 z m -8.54374,-1.80521 c -1.30969,-0.29366 -2.4884,-0.63728 -2.61937,-0.76359 -0.30253,-0.29175 0.32472,-4.06123 0.77922,-4.68278 0.31462,-0.43026 0.50398,-0.423 3.31676,0.12723 1.64071,0.32095 3.09288,0.69331 3.22705,0.82747 0.14883,0.14883 0.0531,1.15671 -0.24551,2.58555 -0.47966,2.29501 -0.50519,2.34261 -1.28315,2.39085 -0.43656,0.0271 -1.86531,-0.19106 -3.175,-0.48473 z m 18.1601,-3.94493 c -2.3926,-0.53994 -3.02175,-0.88139 -2.84482,-1.54389 0.0625,-0.23412 0.18325,-0.73995 0.26826,-1.12409 0.085,-0.38413 0.30445,-0.75546 0.48762,-0.82519 0.18315,-0.0697 1.58316,0.13322 3.11113,0.45099 l 2.77813,0.57777 0.0793,1.5042 0.0794,1.5042 -0.8731,-0.0223 c -0.4802,-0.0123 -1.86886,-0.24702 -3.08592,-0.52168 z m -8.05227,-1.69435 c -1.42571,-0.32517 -2.7154,-0.71445 -2.866,-0.86506 -0.17682,-0.1768 -0.19335,-0.68331 -0.0467,-1.42949 0.28514,-1.45077 0.59666,-1.50226 4.18197,-0.69126 l 2.64584,0.59848 -0.018,1.27523 c -0.0172,1.21642 -0.36515,1.79481 -1.04042,1.72907 -0.14553,-0.0142 -1.43106,-0.2918 -2.85676,-0.61697 z m -8.65262,-1.82828 -2.51354,-0.5793 0.0169,-1.25254 c 0.009,-0.6889 0.14544,-1.38113 0.30261,-1.5383 0.38634,-0.38633 6.16008,0.83182 6.50049,1.37148 0.15338,0.24313 0.13221,0.80499 -0.0567,1.5067 -0.36071,1.33957 -0.50128,1.35584 -4.24966,0.49196 z M 177.55006,106.518 c -3.16224,-0.68331 -5.83125,-1.32411 -5.93113,-1.424 -0.0999,-0.0999 0.0847,-1.42966 0.41018,-2.95505 0.60854,-2.851915 0.58269,-3.307234 -0.18838,-3.318286 -1.17412,-0.01683 -12.63955,-2.666571 -13.6456,-3.153592 -1.37843,-0.667282 -3.38616,-2.59311 -4.25961,-4.085802 -0.43942,-0.750983 -1.99308,-6.586069 -5.00988,-18.815651 -4.4972,-18.230802 -4.4921,-18.20364 -3.74827,-19.990044 0.27699,-0.665196 1.61345,-1.309192 2.70885,-1.305282 0.55962,0.0021 8.81611,1.644685 18.34772,3.650412 l 17.33021,3.646776 0.0675,24.527716 c 0.0371,13.490242 -0.0225,24.513643 -0.13229,24.496453 -0.10991,-0.0172 -2.7871,-0.59034 -5.94932,-1.27365 z"
         id="path1103"
         inkscape:connector-curvature="0" />
      <path
         style="fill:#6f7687;stroke-width:2.77632761"
         d="m 180.25781,159.90965 c -1.2364,-0.28465 -2.35725,-0.62678 -2.49076,-0.76029 -0.3161,-0.3161 0.60806,-4.76501 1.0229,-4.92419 0.16939,-0.065 1.31289,0.10172 2.54111,0.3705 l 2.23309,0.4887 0.0754,2.69532 c 0.0881,3.14855 0.34359,2.98762 -3.38174,2.12996 z m -8.00584,-1.67056 c -1.41949,-0.32384 -2.66264,-0.6705 -2.76249,-0.77036 -0.16952,-0.16951 0.33157,-3.78916 0.63346,-4.57586 0.075,-0.19546 0.45104,-0.35068 0.83566,-0.34494 1.14139,0.017 5.35152,0.96407 5.66082,1.27338 0.30509,0.3051 -0.16471,3.70149 -0.63672,4.60316 -0.29541,0.56434 -0.48583,0.55488 -3.73073,-0.18538 z m -8.58375,-1.79905 c -1.42481,-0.31485 -2.49208,-0.69057 -2.57492,-0.90645 -0.14449,-0.37649 0.71921,-4.48369 1.0024,-4.76689 0.2653,-0.26529 6.31367,1.08688 6.4499,1.44194 0.0704,0.18341 -0.0941,1.3147 -0.36544,2.51398 -0.4795,2.11914 -0.5157,2.18155 -1.28595,2.21783 -0.4359,0.0205 -1.88762,-0.20465 -3.22599,-0.50041 z m -7.69133,-1.62858 c -1.49405,-0.32425 -2.85303,-0.72611 -3.01993,-0.89303 -0.37097,-0.37096 0.46152,-4.7196 0.93853,-4.90264 0.40542,-0.15558 5.98393,1.0301 6.29092,1.33709 0.14769,0.14768 0.0673,1.06521 -0.20476,2.33831 -0.42537,1.99026 -0.75195,2.78558 -1.12228,2.73327 -0.0913,-0.0129 -1.38846,-0.28875 -2.88248,-0.613 z m 25.47059,-2.19203 c -1.01864,-0.2157 -1.96117,-0.49694 -2.09449,-0.62499 -0.26128,-0.25093 0.26191,-3.75133 0.68011,-4.55017 0.28342,-0.54143 0.53639,-0.56062 2.32741,-0.17652 l 1.33593,0.28651 v 2.7562 c 0,1.51591 -0.0893,2.74381 -0.19844,2.72867 -0.10914,-0.0151 -1.03187,-0.20401 -2.05052,-0.4197 z m -6.61458,-1.40755 c -0.43656,-0.12076 -1.46804,-0.35444 -2.29217,-0.5193 -0.82412,-0.16486 -1.55792,-0.4548 -1.63065,-0.64432 -0.17806,-0.46406 0.67363,-4.28961 1.03555,-4.65136 0.2072,-0.20707 1.11826,-0.1083 3.25425,0.3528 1.63158,0.35221 3.04167,0.71553 3.13351,0.80738 0.17402,0.17403 -0.36833,3.29103 -0.75285,4.32677 -0.23947,0.64506 -1.19089,0.75864 -2.74764,0.32803 z m -9.18335,-1.93962 c -1.41282,-0.31417 -2.70404,-0.70754 -2.86938,-0.87414 -0.22449,-0.22622 -0.19401,-0.81842 0.12042,-2.33884 0.50149,-2.42491 0.54975,-2.51762 1.31082,-2.51762 0.83905,0 5.55345,1.04887 5.79705,1.28974 0.24286,0.2401 -0.54338,4.25791 -0.92551,4.72953 -0.3297,0.4069 -0.2907,0.41018 -3.4334,-0.28867 z m -8.53191,-1.78971 c -1.30318,-0.27726 -2.4819,-0.61659 -2.61937,-0.75406 -0.30639,-0.30639 0.29236,-4.05345 0.74707,-4.67531 0.28676,-0.39215 0.57,-0.37436 3.33587,0.20949 3.51933,0.7429 3.46242,0.66426 2.76132,3.81561 -0.50919,2.28869 -0.33694,2.23144 -4.22489,1.40427 z m 26.33509,-2.77231 c 0.0127,-0.30823 0.0754,-0.37092 0.15986,-0.15985 0.0764,0.19099 0.067,0.4192 -0.0209,0.50711 -0.0879,0.0879 -0.15047,-0.0684 -0.13898,-0.34726 z m -5.433,-0.39675 c -1.30318,-0.28053 -2.48214,-0.62276 -2.61991,-0.76052 -0.27879,-0.27881 0.46421,-4.45556 0.86368,-4.85502 0.28654,-0.28657 5.83311,0.80772 6.28899,1.24075 0.23815,0.22623 0.20478,0.82389 -0.142,2.54463 -0.44233,2.19459 -0.47223,2.25006 -1.2373,2.29458 -0.43122,0.0251 -1.85029,-0.1839 -3.15346,-0.46442 z m -7.55246,-1.58204 c -1.23692,-0.27555 -2.51685,-0.56544 -2.84427,-0.64419 -0.44045,-0.10593 -0.5929,-0.33115 -0.58602,-0.86574 0.0156,-1.21419 0.7144,-4.08762 1.04354,-4.29103 0.2857,-0.17658 6.04536,0.92117 6.33079,1.20659 0.17444,0.17444 -0.50339,4.10923 -0.80571,4.67698 -0.29414,0.55242 -0.28694,0.55261 -3.13833,-0.0826 z m -10.37275,-2.18999 c -2.13976,-0.45994 -4.00751,-0.95532 -4.15054,-1.10084 -0.17053,-0.1735 -0.12692,-0.90216 0.12673,-2.11667 0.55735,-2.66878 0.60756,-2.77812 1.27572,-2.77812 1.10535,0 8.22153,1.60831 8.54847,1.93202 0.31758,0.31444 0.28832,0.52956 -0.59224,4.35183 -0.17518,0.76044 -0.38314,0.74893 -5.20814,-0.28822 z m 22.85815,-2.77501 c -0.87873,-0.12454 -0.92197,-0.48094 -0.35415,-2.91946 0.81286,-3.49088 1.15028,-3.36388 1.0414,0.39198 -0.0743,2.56201 -0.088,2.61242 -0.68725,2.52748 z m -5.7939,-1.19831 c -1.48566,-0.31191 -2.84464,-0.71163 -3.01993,-0.88827 -0.24863,-0.25056 -0.21526,-0.81409 0.15177,-2.56298 0.25873,-1.23299 0.60595,-2.2938 0.77155,-2.35735 0.39817,-0.15279 5.9812,1.02737 6.28166,1.32785 0.13536,0.13535 0.0477,1.11998 -0.20818,2.33831 -0.42105,2.00479 -0.74337,2.79998 -1.10961,2.73775 -0.0913,-0.0155 -1.3816,-0.28341 -2.86726,-0.59531 z m -13.42424,-2.83057 c -3.33923,-0.71865 -6.17794,-1.41326 -6.30825,-1.54358 -0.28782,-0.28779 0.53075,-4.25045 0.9762,-4.7259 0.2467,-0.26329 1.6319,-0.0546 6.7827,1.02181 3.56,0.74397 6.62091,1.49177 6.80202,1.66179 0.26204,0.246 0.23117,0.76666 -0.15124,2.55007 -0.46508,2.16893 -0.5054,2.24257 -1.25534,2.29169 -0.42614,0.0279 -3.50689,-0.53723 -6.84609,-1.25588 z m 14.40815,-4.52596 c -1.23555,-0.27945 -2.35474,-0.61637 -2.48709,-0.74871 -0.29702,-0.29703 0.3129,-4.05943 0.75642,-4.66597 0.28676,-0.39215 0.56999,-0.37436 3.33587,0.20949 3.51933,0.7429 3.46241,0.66426 2.76132,3.81561 -0.43352,1.94858 -0.44183,1.96109 -1.2782,1.92948 -0.46302,-0.0175 -1.85277,-0.26045 -3.08832,-0.5399 z m -7.89559,-1.66874 c -1.50355,-0.33419 -2.84668,-0.72057 -2.98474,-0.85863 -0.29554,-0.29555 0.48149,-4.27215 0.92937,-4.75622 0.22392,-0.24201 0.95544,-0.17046 3.16746,0.30982 1.58195,0.34348 2.99932,0.74756 3.14974,0.89795 0.33128,0.3313 -0.50996,4.55835 -0.96676,4.85755 -0.35685,0.23374 0.007,0.28351 -3.29507,-0.45047 z m -8.51107,-1.778 c -1.38244,-0.28854 -2.62093,-0.6278 -2.75219,-0.75391 -0.27295,-0.26225 0.49554,-4.4539 0.88863,-4.84699 0.31657,-0.31656 5.81236,0.75231 6.27142,1.21972 0.25561,0.26029 0.24209,0.72043 -0.0642,2.18193 -0.56015,2.67333 -0.60928,2.78122 -1.25267,2.75099 -0.3176,-0.0149 -1.70857,-0.26321 -3.09102,-0.55174 z m 17.99469,-4.00663 c -2.72992,-0.6309 -2.84909,-0.74646 -2.52905,-2.45237 0.2005,-1.06878 0.6518,-1.13298 3.50179,-0.49816 0.99131,0.22081 2.07634,0.46273 2.41122,0.5376 0.55372,0.12382 0.60161,0.26111 0.52917,1.51677 -0.0727,1.25984 -0.13756,1.38481 -0.74115,1.42849 -0.3638,0.0263 -1.7912,-0.21323 -3.17198,-0.53233 z m -7.76018,-1.63655 c -1.57432,-0.32312 -2.97815,-0.70326 -3.11965,-0.84476 -0.25241,-0.2524 0.0596,-2.31249 0.40206,-2.65498 0.0856,-0.0856 1.55467,0.13772 3.26464,0.49621 l 3.10907,0.65179 -0.0238,1.12635 c -0.0384,1.81077 -0.31899,1.90542 -3.63223,1.22539 z m -8.11784,-1.69388 c -3.85805,-0.89354 -3.52438,-0.70258 -3.36063,-1.92339 0.24037,-1.79217 0.44614,-1.85732 3.66101,-1.15921 1.54766,0.33607 2.95029,0.69532 3.11698,0.79833 0.33933,0.20973 0.12523,1.9137 -0.30925,2.46114 -0.32726,0.41234 -0.64121,0.39448 -3.10811,-0.17687 z m 13.25176,-12.08258 c -2.97077,-0.64189 -5.45531,-1.221 -5.52122,-1.28691 -0.0659,-0.0659 0.17555,-1.44535 0.53655,-3.06543 0.45112,-2.024418 0.56425,-2.974471 0.36182,-3.037902 -0.16198,-0.05076 -3.1832,-0.693917 -6.7138,-1.429234 -3.5306,-0.73532 -6.91103,-1.587818 -7.51205,-1.894441 -1.56732,-0.799584 -3.61223,-2.806094 -4.35637,-4.274571 -0.84439,-1.666372 -9.09669,-35.001883 -9.09669,-36.746562 0,-1.684821 0.957,-2.846244 2.51354,-3.050463 0.75766,-0.0994 5.94434,0.886201 18.25625,3.469167 9.45886,1.984412 17.40628,3.669614 17.66094,3.744896 0.43661,0.129069 0.46302,1.523683 0.46302,24.460711 v 24.323839 l -0.59531,-0.023 c -0.32742,-0.0126 -3.02594,-0.54819 -5.99668,-1.19009 z"
         id="path1101"
         inkscape:connector-curvature="0" />
      <path
         style="fill:#5a6174;stroke-width:2.77632761"
         d="m 180.38915,159.90123 c -1.30969,-0.29039 -2.48185,-0.62475 -2.6048,-0.74304 -0.28591,-0.27507 0.52957,-4.26198 0.9597,-4.69212 0.3202,-0.3202 0.5266,-0.29224 4.35708,0.5902 0.56843,0.13095 0.59531,0.25636 0.59531,2.77793 0,3.05827 0.30464,2.86787 -3.30729,2.06703 z m -8.01778,-1.67868 c -1.49936,-0.32892 -2.80217,-0.67409 -2.89512,-0.76705 -0.1791,-0.17909 0.60365,-4.61882 0.85939,-4.87458 0.20744,-0.20742 5.9871,0.94372 6.2977,1.25431 0.2495,0.24949 -0.17458,3.19987 -0.64061,4.45695 -0.25795,0.6958 -0.12012,0.69845 -3.62136,-0.0696 z m -8.44449,-1.80073 c -1.34165,-0.31737 -2.55082,-0.6961 -2.68708,-0.84162 -0.28956,-0.30929 0.4791,-4.18974 0.91659,-4.62725 0.33425,-0.33423 5.58938,0.67213 6.13572,1.175 0.27408,0.25228 0.24894,0.73551 -0.13229,2.54331 -0.55939,2.65253 -0.50864,2.63154 -4.23294,1.75056 z m -8.52437,-1.7867 c -1.22785,-0.27698 -2.34162,-0.61276 -2.47505,-0.74617 -0.36224,-0.36225 0.60251,-4.54154 1.0917,-4.72926 0.52909,-0.20303 5.9228,0.92693 6.14564,1.28748 0.15226,0.24636 -0.29205,2.95048 -0.70213,4.27314 -0.18426,0.59432 -1.13641,0.57435 -4.06016,-0.0852 z m 26.11241,-2.07525 c -1.12707,-0.25341 -2.13365,-0.54517 -2.23681,-0.64834 -0.22865,-0.22867 0.62344,-4.41622 0.96893,-4.76171 0.15261,-0.15261 0.85767,-0.1171 1.84806,0.0931 l 1.60134,0.33983 v 2.74197 c 0,1.50809 -0.0298,2.73162 -0.0661,2.71896 -0.0364,-0.0127 -0.98829,-0.23036 -2.11537,-0.48378 z m -8.00494,-1.66295 c -1.30969,-0.29929 -2.45557,-0.66046 -2.5464,-0.8026 -0.20003,-0.31302 0.64976,-4.36559 0.98533,-4.69903 0.28536,-0.28353 5.80525,0.82951 6.23245,1.25672 0.21217,0.21217 0.15594,0.89016 -0.2068,2.49314 -0.4836,2.13713 -0.52147,2.2031 -1.29077,2.24882 -0.4359,0.0259 -1.86412,-0.19777 -3.17381,-0.49705 z m -7.74351,-1.64171 c -1.49405,-0.32425 -2.83374,-0.70684 -2.97709,-0.85019 -0.36044,-0.36045 0.50705,-4.60499 0.97811,-4.78575 0.52779,-0.20254 6.1254,1.01041 6.25803,1.35604 0.13447,0.35045 -0.65492,4.10975 -0.96292,4.58562 -0.11774,0.1819 -0.29633,0.32018 -0.39687,0.30728 -0.10057,-0.0129 -1.40523,-0.28875 -2.89926,-0.613 z m -8.77154,-1.84249 c -1.3707,-0.31007 -2.54072,-0.71035 -2.60009,-0.88951 -0.13605,-0.41063 0.66839,-4.35209 0.94464,-4.62834 0.21556,-0.21557 5.5617,0.76518 6.14873,1.12799 0.27742,0.17145 0.27705,0.56939 -0.003,2.15053 -0.57028,3.23152 -0.42513,3.15916 -4.4913,2.23933 z m 20.96251,-3.175 c -1.33744,-0.31007 -2.50817,-0.64309 -2.60165,-0.74005 -0.19224,-0.19945 0.61651,-4.479 0.90422,-4.78461 0.26061,-0.27684 5.82115,0.86988 6.23763,1.28635 0.34218,0.34218 0.33589,0.39291 -0.53036,4.26986 -0.16547,0.74055 -0.69752,0.73637 -4.00984,-0.0316 z m -6.03496,-1.27287 c -0.58208,-0.12279 -1.93564,-0.41552 -3.00794,-0.65051 l -1.94958,-0.42725 0.15089,-1.09095 c 0.083,-0.60001 0.28874,-1.73087 0.45723,-2.51302 l 0.30638,-1.42208 1.36004,0.16952 c 0.74803,0.0932 2.1935,0.37711 3.21215,0.63082 l 1.85208,0.46131 -0.0289,0.92355 c -0.0466,1.48891 -0.63381,3.91103 -0.97729,4.03113 -0.1742,0.0609 -0.79299,0.0103 -1.37507,-0.11252 z m -11.70953,-2.44303 c -2.22015,-0.4753 -4.11813,-0.94566 -4.21772,-1.04525 -0.16915,-0.16915 0.33252,-3.78988 0.63396,-4.57537 0.19363,-0.50459 0.7751,-0.44683 5.23912,0.52039 l 3.96875,0.85991 -0.0487,1.44727 c -0.0603,1.79157 -0.61383,3.54009 -1.14194,3.60697 -0.21828,0.0276 -2.21335,-0.33862 -4.43349,-0.81392 z m 22.21106,-3.13705 c -0.33531,-0.40402 0.42269,-4.21209 0.9417,-4.73086 0.26458,-0.26445 0.33073,0.20925 0.33073,2.36817 0,2.46369 -0.0433,2.69875 -0.49678,2.69875 -0.27321,0 -0.62228,-0.15123 -0.77565,-0.33606 z m -5.82393,-0.97962 c -1.21087,-0.25745 -2.32349,-0.59001 -2.47251,-0.73902 -0.25432,-0.25431 0.32547,-3.94525 0.72001,-4.58362 0.19063,-0.30848 1.31464,-0.30585 2.49886,0.006 0.50932,0.13406 1.61065,0.37996 2.4474,0.54645 1.47007,0.29251 1.5213,0.33106 1.51987,1.14385 0,0.46262 -0.10832,1.25786 -0.23889,1.76718 -0.1306,0.50932 -0.31078,1.25346 -0.40045,1.65364 -0.19741,0.88116 -0.76298,0.90971 -4.07429,0.20568 z m -10.10156,-2.12121 c -1.81901,-0.4012 -4.57983,-0.99662 -6.13516,-1.32315 -1.55532,-0.32653 -2.88443,-0.74109 -2.95357,-0.92123 -0.16734,-0.4361 0.68229,-4.27628 1.01894,-4.6054 0.29591,-0.2893 13.17702,2.32349 13.61525,2.7617 0.23516,0.23516 0.15261,0.77433 -0.6559,4.28382 -0.17561,0.76226 -0.62812,0.74415 -4.88956,-0.19574 z m 11.64511,-5.12837 c -1.89143,-0.42549 -2.53185,-0.67776 -2.59845,-1.02353 -0.11155,-0.5792 0.72591,-4.39239 1.00217,-4.56312 0.24905,-0.15391 5.62702,0.90071 6.10753,1.19769 0.27742,0.17145 0.27705,0.56938 -0.003,2.15053 -0.57045,3.2325 -0.42072,3.15817 -4.50927,2.23843 z m -7.78719,-1.64903 c -1.5889,-0.33808 -2.97127,-0.74792 -3.07192,-0.91076 -0.15899,-0.25724 0.27406,-2.93366 0.69361,-4.28693 0.0854,-0.27546 0.40542,-0.46302 0.78999,-0.46302 0.91445,0 5.48981,1.04208 5.7617,1.31227 0.27956,0.27783 -0.58817,4.4205 -0.99179,4.73507 -0.17058,0.13293 -1.49762,-0.0283 -3.18159,-0.38663 z m -8.68781,-1.8112 c -1.41949,-0.32384 -2.64826,-0.65614 -2.73058,-0.73846 -0.25826,-0.25824 0.74639,-4.74014 1.09228,-4.87286 0.46908,-0.18001 5.74548,0.96592 6.11384,1.3278 0.23294,0.22883 0.20097,0.78107 -0.13229,2.28609 -0.24168,1.09141 -0.53573,2.1332 -0.65345,2.31511 -0.27252,0.42104 -0.56023,0.39627 -3.6898,-0.31768 z m 18.19135,-3.93633 -2.64583,-0.57464 0.0236,-1.13485 c 0.0403,-1.93862 -0.0662,-1.92219 5.21488,-0.80431 l 1.26974,0.26878 -0.0791,1.36436 c -0.0966,1.66499 -0.13296,1.67347 -3.78328,0.88066 z m -7.14375,-1.49723 c -0.43656,-0.12414 -1.46804,-0.36059 -2.29216,-0.52545 -0.82413,-0.16486 -1.56112,-0.46316 -1.63777,-0.66289 -0.16391,-0.42714 0.27797,-2.17397 0.60034,-2.3732 0.25995,-0.16066 5.62379,0.87776 6.12089,1.18498 0.25162,0.15551 0.2758,0.49861 0.0957,1.35677 -0.2259,1.07618 -0.29954,1.15169 -1.16716,1.19707 -0.50932,0.0266 -1.28323,-0.0531 -1.71979,-0.17728 z m -9.33709,-1.97693 c -1.49738,-0.33287 -2.79472,-0.67744 -2.88298,-0.76571 -0.0883,-0.0883 -0.0507,-0.66892 0.0836,-1.29034 l 0.24408,-1.12985 1.44831,0.063 c 0.79655,0.0346 2.28174,0.27345 3.30038,0.53073 l 1.85208,0.46779 -0.0918,0.92371 c -0.11168,1.12351 -0.4776,1.85909 -0.90967,1.8286 -0.17676,-0.0125 -1.54654,-0.29502 -3.04392,-0.62788 z m 13.83612,-11.95997 c -3.0553,-0.65431 -5.58263,-1.21716 -5.61623,-1.25077 -0.0336,-0.0336 0.22675,-1.42027 0.57859,-3.08148 0.35182,-1.66121 0.61695,-3.030591 0.58915,-3.043068 -0.0278,-0.01246 -2.84851,-0.599493 -6.26825,-1.304481 -3.41974,-0.704988 -6.84239,-1.509755 -7.60589,-1.788369 -1.77983,-0.649505 -4.01892,-2.68913 -4.938,-4.498176 -0.87622,-1.724647 -9.15194,-35.063859 -9.15194,-36.86914 0,-0.978961 0.14465,-1.355998 0.75393,-1.965296 0.41468,-0.414669 1.16933,-0.831864 1.67698,-0.927103 0.67448,-0.126532 5.54771,0.797735 18.09763,3.432442 9.44603,1.983081 17.44322,3.672687 17.77156,3.754681 l 0.59701,0.14908 -0.006,24.312565 c -0.006,22.894465 -0.0329,24.311285 -0.46471,24.290675 -0.2522,-0.012 -2.95836,-0.55725 -6.01369,-1.21156 z"
         id="path1099"
         inkscape:connector-curvature="0" />
      <path
         style="fill:#484e65;stroke-width:2.77632761"
         d="m 180.33869,159.84813 c -1.33744,-0.31007 -2.49952,-0.63443 -2.58241,-0.72081 -0.19463,-0.20285 0.63103,-4.24744 0.94684,-4.63829 0.17706,-0.21911 0.70932,-0.20197 2.02152,0.0651 3.32975,0.67771 2.9718,0.28264 2.9718,3.28007 0,3.05848 0.31996,2.86657 -3.35775,2.01393 z m -7.71035,-1.63125 c -1.50355,-0.32447 -2.86234,-0.71857 -3.01956,-0.87578 -0.31123,-0.31125 0.40841,-4.19477 0.86125,-4.64761 0.27892,-0.27893 6.02019,0.85178 6.25512,1.2319 0.22664,0.36673 -0.73478,4.65463 -1.07088,4.77595 -0.16071,0.058 -1.52239,-0.15999 -3.02593,-0.48446 z m -8.62322,-1.80215 c -1.61031,-0.34954 -2.67272,-0.71319 -2.74728,-0.94037 -0.17423,-0.53094 0.45953,-3.86992 0.82876,-4.36629 0.28149,-0.37842 0.57904,-0.36151 3.14579,0.17886 1.55919,0.32826 2.95068,0.71415 3.09218,0.85755 0.22773,0.23074 -0.15518,2.80019 -0.65982,4.42791 -0.17534,0.56558 -0.36539,0.55739 -3.65963,-0.15766 z m -8.61661,-1.80312 c -1.23555,-0.27945 -2.34003,-0.60166 -2.45438,-0.71601 -0.11435,-0.11436 0.004,-1.20925 0.26244,-2.4331 0.35766,-1.69202 0.58285,-2.24685 0.93988,-2.31561 0.25826,-0.0497 1.71662,0.17255 3.2408,0.49396 3.29795,0.69544 3.1482,0.34306 2.10264,4.94717 -0.1679,0.73928 -0.90818,0.74355 -4.09138,0.0236 z m 26.10879,-2.07829 c -1.13675,-0.2582 -2.13645,-0.53906 -2.22154,-0.62415 -0.20104,-0.20103 0.64703,-4.43512 0.94879,-4.73686 0.13123,-0.13123 0.92951,-0.0932 1.85129,0.0881 l 1.6206,0.31883 v 2.7437 c 0,1.50904 -0.0298,2.72932 -0.0661,2.71175 -0.0364,-0.0176 -0.99623,-0.2432 -2.13299,-0.50139 z m -7.72274,-1.62234 c -1.30968,-0.29346 -2.4884,-0.6369 -2.61937,-0.76321 -0.31229,-0.30117 0.34663,-4.16328 0.78512,-4.60176 0.26655,-0.26654 0.89176,-0.21442 3.16344,0.26373 1.55721,0.32775 2.94011,0.70476 3.07314,0.83779 0.1461,0.1461 0.0558,1.12434 -0.22815,2.4706 -0.55666,2.63961 -0.50128,2.61582 -4.17418,1.79285 z m -8.02888,-1.68836 c -1.50548,-0.32919 -2.84398,-0.70528 -2.97445,-0.83576 -0.13994,-0.13992 -0.0403,-1.15519 0.24294,-2.47507 0.38873,-1.81151 0.57735,-2.25046 0.9901,-2.3041 0.28043,-0.0364 1.7005,0.20347 3.15571,0.53315 l 2.64584,0.59941 -0.0487,1.45123 c -0.0533,1.58871 -0.59192,3.4978 -1.00965,3.57853 -0.14552,0.0281 -1.49632,-0.21819 -3.0018,-0.54739 z m -8.55229,-1.80558 c -1.40703,-0.31245 -2.64625,-0.65636 -2.75381,-0.76425 -0.22579,-0.2265 0.649,-4.64709 0.95732,-4.83764 0.23339,-0.14424 6.03192,1.06654 6.27581,1.31043 0.1678,0.1678 -0.38526,3.30685 -0.76092,4.31869 -0.26281,0.70788 -0.41298,0.70678 -3.7184,-0.0272 z m 20.8997,-3.17186 c -1.40835,-0.31418 -2.63898,-0.65093 -2.73476,-0.74835 -0.23606,-0.24012 0.64972,-4.24104 1.02624,-4.63548 0.23149,-0.24248 0.9578,-0.17195 3.16545,0.30739 1.57575,0.34215 2.93881,0.69586 3.02898,0.78604 0.20931,0.2093 -0.38867,3.73421 -0.74711,4.40391 -0.32826,0.61336 -0.50442,0.60801 -3.7388,-0.11351 z m -8.37218,-1.75461 c -1.21087,-0.25745 -2.33365,-0.60016 -2.49507,-0.76159 -0.32409,-0.3241 0.37716,-4.16013 0.84627,-4.62923 0.28561,-0.28563 5.77543,0.7205 6.18924,1.13432 0.15533,0.15533 0.0702,1.09955 -0.22649,2.51361 -0.47511,2.26392 -0.47561,2.2648 -1.29384,2.23789 -0.45019,-0.0148 -1.80924,-0.23756 -3.02011,-0.495 z m -9.54164,-2.00874 c -2.23864,-0.49033 -4.13115,-0.95239 -4.20558,-1.02681 -0.21855,-0.21855 0.51578,-4.07601 0.86754,-4.55704 0.29684,-0.40597 0.64693,-0.37189 4.52649,0.44061 2.31262,0.48433 4.31385,0.97632 4.44717,1.09331 0.26189,0.2298 -0.26453,3.73621 -0.68011,4.53007 -0.29871,0.57066 -0.0463,0.59511 -4.95551,-0.48014 z m 22.28757,-3.03809 c -0.34131,-0.34132 0.4005,-4.29546 0.89887,-4.79134 0.26448,-0.26315 0.33073,0.21156 0.33073,2.36968 0,2.42241 -0.0488,2.69875 -0.47625,2.69875 -0.26194,0 -0.60095,-0.12469 -0.75335,-0.27709 z m -5.91166,-1.08838 c -1.23555,-0.27945 -2.34855,-0.61018 -2.47333,-0.73495 -0.12607,-0.12609 -0.003,-1.20844 0.27644,-2.43666 l 0.50332,-2.2098 1.30855,0.0591 c 2.15206,0.0971 4.9948,0.92184 5.09994,1.47954 0.0498,0.26414 -0.10641,1.36547 -0.3471,2.44739 -0.43492,1.95487 -0.44291,1.96693 -1.2795,1.93532 -0.46302,-0.0175 -1.85277,-0.26046 -3.08832,-0.53991 z m -12.54845,-2.6313 c -3.33505,-0.7171 -6.20517,-1.42123 -6.3781,-1.56474 -0.24138,-0.20034 -0.21344,-0.76763 0.12036,-2.44294 0.39489,-1.98209 0.49443,-2.18905 1.08641,-2.25886 0.69437,-0.0819 12.87063,2.41803 13.15307,2.70047 0.22802,0.22803 -0.44818,4.17377 -0.786,4.58628 -0.36864,0.45017 -0.3357,0.45484 -7.19574,-1.02021 z m 14.2857,-4.56643 c -1.44423,-0.31764 -2.6738,-0.72128 -2.73238,-0.89697 -0.13382,-0.40154 0.67054,-4.34649 0.94152,-4.61746 0.20185,-0.20186 6.03811,0.92643 6.33672,1.22504 0.16865,0.16864 -0.38298,3.30469 -0.75983,4.31978 -0.26413,0.71151 -0.41836,0.71028 -3.78603,-0.0304 z m -8.46375,-1.77526 c -1.2971,-0.2793 -2.42115,-0.57061 -2.49791,-0.64735 -0.13872,-0.13871 0.41497,-3.85488 0.67551,-4.53382 0.075,-0.19545 0.36383,-0.35537 0.64182,-0.35537 0.76843,0 5.62706,1.07799 5.86105,1.3004 0.11301,0.10739 -0.006,1.19818 -0.26458,2.42398 -0.45884,2.17576 -0.48887,2.22983 -1.26375,2.27437 -0.43657,0.0251 -1.85503,-0.1829 -3.15214,-0.46221 z m -7.88125,-1.65858 c -1.41169,-0.31416 -2.69066,-0.69514 -2.84216,-0.84664 -0.39661,-0.39661 0.56131,-4.73056 1.06371,-4.81253 0.20703,-0.0338 1.62657,0.21269 3.15454,0.54772 l 2.77813,0.60915 -0.0487,1.43665 c -0.0605,1.78476 -0.61582,3.53131 -1.14195,3.59146 -0.21828,0.025 -1.55188,-0.21166 -2.96359,-0.52581 z m 18.57121,-3.86068 c -3.55574,-0.81824 -3.43678,-0.7677 -3.43678,-1.46031 0,-0.96901 0.46804,-1.99656 0.90942,-1.99656 0.21635,0 1.59412,0.25569 3.06173,0.5682 l 2.66838,0.56818 -0.0786,1.35004 c -0.0938,1.61045 -0.19982,1.64339 -3.12412,0.97045 z m -9.12532,-1.91224 c -1.30969,-0.29599 -2.45529,-0.65765 -2.54577,-0.80368 -0.19773,-0.31914 0.15896,-2.03185 0.49265,-2.36554 0.28599,-0.28598 5.60488,0.77881 6.09433,1.22003 0.23995,0.21629 0.27509,0.60423 0.12198,1.34639 -0.18844,0.91326 -0.31226,1.04865 -0.99851,1.09176 -0.4309,0.0271 -1.855,-0.19296 -3.16468,-0.48896 z m -7.85879,-1.64551 c -1.41192,-0.30831 -2.68872,-0.68247 -2.83734,-0.83146 -0.36936,-0.37026 -0.0344,-2.25354 0.43267,-2.43278 0.5261,-0.20188 5.95876,0.91893 6.17863,1.27472 0.18553,0.30016 -0.0681,1.79682 -0.3938,2.32378 -0.22183,0.35894 -0.19241,0.36185 -3.38016,-0.33426 z m 13.67962,-12.00546 c -3.05594,-0.65408 -5.57938,-1.20734 -5.60763,-1.22946 -0.0283,-0.0221 0.24148,-1.39438 0.59944,-3.04946 0.35795,-1.65509 0.6192,-3.03271 0.58054,-3.061393 -0.0386,-0.02869 -3.03503,-0.673384 -6.65863,-1.432661 -3.6236,-0.75928 -7.13595,-1.635966 -7.80521,-1.948193 -1.54043,-0.718648 -3.71724,-2.877291 -4.4618,-4.424572 -0.31509,-0.654844 -1.95178,-6.786562 -3.63704,-13.626042 -1.68527,-6.839479 -3.59445,-14.587852 -4.24262,-17.218607 -0.64818,-2.630755 -1.17806,-5.190599 -1.17753,-5.688542 0.003,-1.358625 0.84381,-2.539923 2.07386,-2.908456 0.95519,-0.286179 2.42501,-0.02146 17.67361,3.183223 9.14746,1.92245 17.19731,3.614106 17.88853,3.759235 l 1.25677,0.263871 v 1.830158 c 0,1.006589 -0.074,1.83016 -0.16446,1.83016 -0.0905,0 -7.05896,-1.437564 -15.48551,-3.194587 -8.42658,-1.757024 -15.42169,-3.156009 -15.54467,-3.108855 -0.123,0.04715 0.51932,3.24089 1.4274,7.097192 3.41874,14.518188 5.94519,25.334757 6.37228,27.281719 l 0.4418,2.014014 4.13438,0.836806 c 2.27393,0.460243 4.43206,0.833374 4.79586,0.829183 0.36381,-0.0042 3.63107,-0.602451 7.26057,-1.329463 3.6295,-0.727014 6.63583,-1.321842 6.68073,-1.321842 0.0449,0 0.0816,2.133203 0.0816,4.740452 0,3.544798 -0.0834,4.77411 -0.33073,4.8739 -0.26458,0.10677 -0.26458,0.13763 0,0.15434 0.24421,0.0154 0.33073,0.81696 0.33073,3.0636 0,2.73461 -0.0469,3.03921 -0.46302,3.00811 -0.25466,-0.019 -2.96333,-0.56975 -6.01927,-1.22383 z m 5.4901,-5.2668 c -0.1819,-0.0734 -0.47955,-0.0734 -0.66146,0 -0.1819,0.0734 -0.0331,0.13345 0.33073,0.13345 0.36381,0 0.51263,-0.0601 0.33073,-0.13345 z m -1.19613,-0.24921 c -0.0879,-0.0879 -0.31612,-0.0973 -0.50712,-0.0209 -0.21106,0.0845 -0.14838,0.14715 0.15986,0.15985 0.2789,0.0115 0.43519,-0.0511 0.34726,-0.13897 z m -1.18512,-0.27996 c -0.1819,-0.0734 -0.47955,-0.0734 -0.66146,0 -0.1819,0.0734 -0.0331,0.13346 0.33073,0.13346 0.36381,0 0.51263,-0.0601 0.33073,-0.13346 z m -1.32291,-0.26458 c -0.18191,-0.0734 -0.47956,-0.0734 -0.66146,0 -0.1819,0.0734 -0.0331,0.13345 0.33073,0.13345 0.3638,0 0.51263,-0.0601 0.33073,-0.13345 z m -1.32292,-0.264584 c -0.1819,-0.0734 -0.47956,-0.0734 -0.66146,0 -0.1819,0.07339 -0.0331,0.133454 0.33073,0.133454 0.3638,0 0.51263,-0.0601 0.33073,-0.133454 z m -1.19613,-0.249208 c -0.0879,-0.08792 -0.31612,-0.09732 -0.50713,-0.02088 -0.21105,0.08446 -0.14837,0.147156 0.15987,0.159851 0.27889,0.01148 0.43518,-0.05105 0.34726,-0.138964 z M 175.29592,99.4456 c -0.1819,-0.0734 -0.47956,-0.0734 -0.66146,0 -0.1819,0.0734 -0.0331,0.133453 0.33073,0.133453 0.3638,0 0.51263,-0.06006 0.33073,-0.133453 z M 173.973,99.181016 c -0.1819,-0.0734 -0.47955,-0.0734 -0.66146,0 -0.1819,0.0734 -0.0331,0.133454 0.33073,0.133454 0.36381,0 0.51263,-0.06006 0.33073,-0.133454 z"
         id="path1097"
         inkscape:connector-curvature="0" />
      <path
         style="fill:#171e39;stroke-width:2.77632761"
         d="m 176.48654,96.088005 c -3.45612,-0.740613 -6.28385,-1.41265 -6.28385,-1.493414 0,-0.146722 12.53736,-2.677874 13.16302,-2.657467 0.24289,0.0079 0.33073,0.748554 0.33073,2.788912 0,2.482699 -0.0492,2.774426 -0.46302,2.743333 -0.25466,-0.01913 -3.29076,-0.64075 -6.74688,-1.381364 z"
         id="path1095"
         inkscape:connector-curvature="0" />
    </g>
  </g>
</svg>
