<?xml version="1.0" encoding="UTF-8" standalone="no"?>
<svg
   xmlns:dc="http://purl.org/dc/elements/1.1/"
   xmlns:cc="http://creativecommons.org/ns#"
   xmlns:rdf="http://www.w3.org/1999/02/22-rdf-syntax-ns#"
   xmlns:svg="http://www.w3.org/2000/svg"
   xmlns="http://www.w3.org/2000/svg"
   xmlns:xlink="http://www.w3.org/1999/xlink"
   xmlns:sodipodi="http://sodipodi.sourceforge.net/DTD/sodipodi-0.dtd"
   xmlns:inkscape="http://www.inkscape.org/namespaces/inkscape"
   id="Layer_1"
   data-name="Layer 1"
   viewBox="0 0 456.61334 342.82714"
   version="1.1"
   sodipodi:docname="testimonials-2-men-talking.svg"
   width="456.61334"
   height="342.82715"
   inkscape:version="0.92.4 (5da689c313, 2019-01-14)">
  <metadata
     id="metadata8286">
    <rdf:RDF>
      <cc:Work
         rdf:about="">
        <dc:format>image/svg+xml</dc:format>
        <dc:type
           rdf:resource="http://purl.org/dc/dcmitype/StillImage" />
      </cc:Work>
    </rdf:RDF>
  </metadata>
  <sodipodi:namedview
     pagecolor="#ffffff"
     bordercolor="#666666"
     borderopacity="1"
     objecttolerance="10"
     gridtolerance="10"
     guidetolerance="10"
     inkscape:pageopacity="0"
     inkscape:pageshadow="2"
     inkscape:window-width="1920"
     inkscape:window-height="1017"
     id="namedview8284"
     showgrid="false"
     inkscape:zoom="1.3123797"
     inkscape:cx="325.06288"
     inkscape:cy="269.76773"
     inkscape:window-x="-8"
     inkscape:window-y="-8"
     inkscape:window-maximized="1"
     inkscape:current-layer="Layer_1" />
  <defs
     id="defs8073">
    <style
       id="style8071">.cls-1,.cls-6{fill:#2c2a40;}.cls-1{opacity:0.15;}.cls-2{fill:#63676d;}.cls-3{fill:#404348;}.cls-4{fill:#a0bbe7;}.cls-5{fill:#ecb28a;}.cls-7{fill:#82a6e1;}.cls-8{fill:#383851;}.cls-9{fill:#82423c;}.cls-10{fill:#5c1a31;}.cls-11{fill:#bfd7f7;}.cls-12{fill:#e8967c;}.cls-13{fill:#ededed;}.cls-14{fill:#107b85;}.cls-15{fill:#079798;}.cls-16{fill:#fff;}.cls-17{opacity:0.2;}.cls-18{fill:#ff6160;}.cls-19{fill:#9ca4ae;}.cls-20{fill:#00b3d8;}</style>
    <linearGradient
       inkscape:collect="always"
       xlink:href="#linearGradient4318"
       id="linearGradient7574"
       gradientUnits="userSpaceOnUse"
       gradientTransform="matrix(3.5611677,0,0,5.8990231,821.76975,143.49678)"
       x1="-108.44675"
       y1="-25.05794"
       x2="-25.241619"
       y2="225.19398" />
    <linearGradient
       inkscape:collect="always"
       id="linearGradient4318">
      <stop
         style="stop-color:#325fa2;stop-opacity:1;"
         offset="0"
         id="stop4314" />
      <stop
         id="stop4864"
         offset="0.23555687"
         style="stop-color:#497fd5;stop-opacity:1" />
      <stop
         id="stop4862"
         offset="0.36901668"
         style="stop-color:#2d65c0;stop-opacity:1" />
      <stop
         style="stop-color:#4178d2;stop-opacity:1"
         offset="1"
         id="stop4316" />
    </linearGradient>
    <clipPath
       clipPathUnits="userSpaceOnUse"
       id="clipPath6031">
      <path
         style="fill:none;stroke:#000000;stroke-width:0.26458332px;stroke-linecap:butt;stroke-linejoin:miter;stroke-opacity:1"
         d="m -330.97342,196.03003 h 169.40392 v -28.85746 h 72.143624 V 69.377884 h 44.889362 V -4.3689314 H 27.607132 V -41.242341 H -331.50782 Z"
         id="path6033"
         inkscape:connector-curvature="0" />
    </clipPath>
    <clipPath
       clipPathUnits="userSpaceOnUse"
       id="clipPath6031-3">
      <path
         style="fill:none;stroke:#000000;stroke-width:0.26458332px;stroke-linecap:butt;stroke-linejoin:miter;stroke-opacity:1"
         d="m -330.97342,196.03003 h 169.40392 v -28.85746 h 72.143624 V 69.377884 h 44.889362 V -4.3689314 H 27.607132 V -41.242341 H -331.50782 Z"
         id="path6033-6"
         inkscape:connector-curvature="0" />
    </clipPath>
    <linearGradient
       inkscape:collect="always"
       xlink:href="#linearGradient4318"
       id="linearGradient9377"
       gradientUnits="userSpaceOnUse"
       gradientTransform="matrix(2.2501035,0,0,3.7272641,397.16316,102.02568)"
       x1="-108.44675"
       y1="-25.05794"
       x2="-25.241619"
       y2="225.19398" />
  </defs>
  <title
     id="title8075">testimonials-2-men-talking</title>
  <rect
     transform="matrix(0.946855,0,0,1.2269114,315.2576,49.942049)"
     clip-path="url(#clipPath6031-3)"
     y="-37.883472"
     x="-328.83582"
     height="252.49693"
     width="343.86703"
     id="rect4807-4"
     style="opacity:1;fill:#5b8dd8;fill-opacity:1;stroke:none;stroke-width:0.76196045;stroke-opacity:1" />
  <rect
     transform="matrix(0.8999696,0,0,1.128906,301.32494,47.082439)"
     clip-path="url(#clipPath6031)"
     y="-37.883472"
     x="-328.83582"
     height="252.49693"
     width="343.86703"
     id="rect4807"
     style="opacity:1;fill:url(#linearGradient9377);fill-opacity:1;stroke:none;stroke-width:0.76622939;stroke-opacity:1" />
  <path
     style="fill:#ffffff;stroke-width:2.75195599"
     id="path2457"
     d="m 184.44745,26.896169 -0.38306,-1.09735 -0.38302,1.09735 a 3.8312531,3.8312531 0 0 1 -2.12812,2.16675 v 0 a 3.830431,3.830431 0 0 1 2.12812,2.16677 l 0.38302,1.09731 0.38306,-1.09731 a 3.8312531,3.8312531 0 0 1 2.13139,-2.16593 v 0 a 3.8312531,3.8312531 0 0 1 -2.13139,-2.16759 z"
     class="cls-8"
     inkscape:connector-curvature="0" />
  <path
     style="fill:#ffffff;stroke-width:3.18712664"
     id="path2457-9-9"
     d="m 170.27259,109.58781 -0.44362,-1.27089 -0.44357,1.27089 a 4.4370944,4.4370944 0 0 1 -2.46466,2.50933 v 0 a 4.4361424,4.4361424 0 0 1 2.46466,2.50942 l 0.44357,1.27082 0.44362,-1.27082 a 4.4370944,4.4370944 0 0 1 2.46844,-2.50844 v 0 a 4.4370944,4.4370944 0 0 1 -2.46844,-2.51031 z"
     class="cls-8"
     inkscape:connector-curvature="0" />
  <path
     style="fill:#ffffff;stroke-width:3.18712664"
     id="path2457-9-9-2"
     d="m 81.820706,151.79118 -0.44363,-1.27088 -0.44359,1.27088 a 4.4370944,4.4370944 0 0 1 -2.46464,2.50937 v 0 a 4.4361424,4.4361424 0 0 1 2.46464,2.5094 l 0.44359,1.27085 0.44363,-1.27085 a 4.4370944,4.4370944 0 0 1 2.46844,-2.50844 v 0 a 4.4370944,4.4370944 0 0 1 -2.46844,-2.51033 z"
     class="cls-8"
     inkscape:connector-curvature="0" />
  <path
     style="fill:#ffffff;stroke-width:3.18712664"
     id="path2457-9-9-7"
     d="m 86.987546,93.686659 -0.44361,-1.27089 -0.4436,1.27089 a 4.4370944,4.4370944 0 0 1 -2.46465,2.50937 v 0 a 4.4361424,4.4361424 0 0 1 2.46465,2.50938 l 0.4436,1.27085 0.44361,-1.27085 a 4.4370944,4.4370944 0 0 1 2.46844,-2.50842 v 0 a 4.4370944,4.4370944 0 0 1 -2.46844,-2.51033 z"
     class="cls-8"
     inkscape:connector-curvature="0" />
  <path
     style="fill:#ffffff;stroke-width:5.82167053"
     id="path2457-9-9-1"
     d="m 189.95572,97.506349 -0.90344,-2.08214 -0.90338,2.08214 a 9.0362285,7.2695383 0 0 1 -5.01931,4.111231 v 0 a 9.0342897,7.2679789 0 0 1 5.01931,4.11128 l 0.90338,2.08208 0.90344,-2.08208 a 9.0362285,7.2695383 0 0 1 5.027,-4.10969 v 0 a 9.0362285,7.2695383 0 0 1 -5.027,-4.112821 z"
     class="cls-8"
     inkscape:connector-curvature="0" />
  <path
     style="fill:#ffffff;stroke-width:3.18712664"
     id="path2457-9-9-72"
     d="m 51.406686,106.9309 -0.44362,-1.27087 -0.44359,1.27087 a 4.4370944,4.4370944 0 0 1 -2.46464,2.50937 v 0 a 4.4361424,4.4361424 0 0 1 2.46464,2.5094 l 0.44359,1.27083 0.44362,-1.27083 a 4.4370944,4.4370944 0 0 1 2.46845,-2.50844 v 0 a 4.4370944,4.4370944 0 0 1 -2.46845,-2.51033 z"
     class="cls-8"
     inkscape:connector-curvature="0" />
  <path
     style="fill:#ffffff;stroke-width:4.37195015"
     id="path2457-9-9-4"
     d="m 95.974236,221.18785 -0.67352,-1.57511 -0.67349,1.57511 a 6.7366613,5.4992609 0 0 1 -3.74198,3.11007 v 0 a 6.7352161,5.4980811 0 0 1 3.74198,3.1101 l 0.67349,1.57506 0.67352,-1.57506 a 6.7366613,5.4992609 0 0 1 3.74773,-3.10892 v 0 a 6.7366613,5.4992609 0 0 1 -3.74773,-3.11125 z"
     class="cls-8"
     inkscape:connector-curvature="0" />
  <path
     style="fill:#ffffff;stroke-width:2.76269054"
     id="path2457-9-9-26"
     d="m 118.37857,32.077809 -0.48959,-0.86525 -0.48957,0.86525 a 4.8970079,3.0208724 0 0 1 -2.72012,1.70842 v 0 a 4.8959573,3.0202243 0 0 1 2.72012,1.70846 l 0.48957,0.86522 0.48959,-0.86522 a 4.8970079,3.0208724 0 0 1 2.7243,-1.70779 v 0 a 4.8970079,3.0208724 0 0 1 -2.7243,-1.70909 z"
     class="cls-8"
     inkscape:connector-curvature="0" />
  <path
     style="fill:#ffffff;stroke-width:3.18712664"
     id="path2457-9-9-9"
     d="m 100.2512,65.621629 -0.443634,-1.27087 -0.44359,1.27087 a 4.4370944,4.4370944 0 0 1 -2.46465,2.50936 v 0 a 4.4361424,4.4361424 0 0 1 2.46465,2.5094 l 0.44359,1.27084 0.443634,-1.27084 a 4.4370944,4.4370944 0 0 1 2.46844,-2.50843 v 0 a 4.4370944,4.4370944 0 0 1 -2.46844,-2.51033 z"
     class="cls-8"
     inkscape:connector-curvature="0" />
  <rect
     y="17.941223"
     x="8.118885"
     height="144.81021"
     width="248.19525"
     id="rect5957"
     style="opacity:1;fill:#ffffff;fill-opacity:0;stroke:none;stroke-width:0.99999988;stroke-opacity:1" />
  <path
     style="fill:#ffffff;stroke-width:6.82099581"
     id="path2457-9-96"
     d="m 242.7279,109.79729 0.82102,2.76134 1.07568,-2.67243 a 9.4961413,9.4961413 0 0 1 5.52047,-5.11759 v 0 a 9.4941039,9.4941039 0 0 1 -5.0175,-5.611651 l -0.82096,-2.76128 -1.07576,2.67237 a 9.4961413,9.4961413 0 0 1 -5.52845,5.115211 v 0 a 9.4961413,9.4961413 0 0 1 5.0255,5.61403 z"
     class="cls-8"
     inkscape:connector-curvature="0" />
  <path
     style="fill:#ffffff;stroke-width:3.18712664"
     id="path2457-9-9-72-8"
     d="m 124.36082,229.17371 0.38363,1.29025 0.5026,-1.24869 a 4.4370944,4.4370944 0 0 1 2.57945,-2.39122 v 0 a 4.4361424,4.4361424 0 0 1 -2.34444,-2.62207 l -0.38359,-1.29021 -0.50264,1.24868 a 4.4370944,4.4370944 0 0 1 -2.58318,2.39008 v 0 a 4.4370944,4.4370944 0 0 1 2.34817,2.62318 z"
     class="cls-8"
     inkscape:connector-curvature="0" />
  <path
     style="fill:#ffffff;stroke-width:4.37195063"
     id="path2457-9-9-4-6"
     d="m 146.68574,189.90805 0.59904,1.60491 0.74651,-1.54185 a 6.7366613,5.4992609 2.6838959 0 1 3.88351,-2.93144 v 0 a 6.7352161,5.4980811 2.6838959 0 1 -3.59223,-3.2819 l -0.59903,-1.60487 -0.74653,1.54179 a 6.7366613,5.4992609 2.6838959 0 1 -3.88918,2.93001 v 0 a 6.7366613,5.4992609 2.6838959 0 1 3.59791,3.28335 z"
     class="cls-8"
     inkscape:connector-curvature="0" />
  <path
     style="fill:#ffffff;stroke-width:2.76269054"
     id="path2457-9-9-26-4"
     d="m 184.88634,200.05509 0.44854,0.88722 0.52958,-0.84135 a 4.8970079,3.0208724 2.6838959 0 1 2.79711,-1.5792 v 0 a 4.8959573,3.0202243 2.6838959 0 1 -2.63714,-1.83397 l -0.44851,-0.88718 -0.52958,0.84133 a 4.8970079,3.0208724 2.6838959 0 1 -2.80127,1.57837 v 0 a 4.8970079,3.0208724 2.6838959 0 1 2.64127,1.83478 z"
     class="cls-8"
     inkscape:connector-curvature="0" />
  <path
     style="fill:#ffffff;stroke-width:3.18712664"
     id="path2457-9-9-9-2"
     d="m 178.26176,174.90974 0.38361,1.29024 0.50262,-1.2487 a 4.4370944,4.4370944 0 0 1 2.57945,-2.3912 v 0 a 4.4361424,4.4361424 0 0 1 -2.34444,-2.62207 l -0.3836,-1.29021 -0.50263,1.24865 a 4.4370944,4.4370944 0 0 1 -2.58318,2.39011 v 0 a 4.4370944,4.4370944 0 0 1 2.34817,2.62318 z"
     class="cls-8"
     inkscape:connector-curvature="0" />
  <rect
     y="143.23517"
     x="87.406387"
     height="43.80455"
     width="39.33984"
     id="rect7216"
     style="opacity:1;fill:#5b8dd8;fill-opacity:1;stroke:none;stroke-width:0.60984015;stroke-opacity:1" />
  <rect
     y="130.03543"
     x="119.99327"
     height="38.579548"
     width="11.185139"
     id="rect7216-5"
     style="opacity:1;fill:#5b8dd8;fill-opacity:1;stroke:none;stroke-width:0.30516827;stroke-opacity:1" />
  <rect
     transform="rotate(90)"
     y="-139.49785"
     x="85.941765"
     height="12.984366"
     width="11.185139"
     id="rect7216-5-5"
     style="opacity:1;fill:#5b8dd8;fill-opacity:1;stroke:none;stroke-width:0.17703992;stroke-opacity:1" />
  <rect
     transform="rotate(90)"
     y="-152.22173"
     x="73.46125"
     height="38.579548"
     width="18.010521"
     id="rect7216-5-5-5"
     style="opacity:1;fill:#5b8dd8;fill-opacity:1;stroke:none;stroke-width:0.38724148;stroke-opacity:1" />
  <rect
     transform="rotate(90)"
     y="-226.82243"
     x="44.722496"
     height="38.579548"
     width="36.780323"
     id="rect7216-5-5-5-3"
     style="opacity:1;fill:#5b8dd8;fill-opacity:1;stroke:none;stroke-width:0.55338383;stroke-opacity:1" />
  <rect
     transform="rotate(90)"
     y="-57.784962"
     x="213.25897"
     height="41.572987"
     width="15.87759"
     id="rect7216-5-5-5-3-0"
     style="opacity:1;fill:#5b8dd8;fill-opacity:1;stroke:none;stroke-width:0.36358929;stroke-opacity:1" />
  <rect
     transform="rotate(90)"
     y="-41.958271"
     x="142.7821"
     height="15.353105"
     width="72.613571"
     id="rect7216-5-5-5-3-0-9"
     style="opacity:1;fill:#5b8dd8;fill-opacity:1;stroke:none;stroke-width:0.77754867;stroke-opacity:1" />
  <rect
     transform="rotate(90)"
     y="-52.666706"
     x="3.6352386"
     height="28.323715"
     width="72.613571"
     id="rect7216-5-5-5-3-0-9-7"
     style="opacity:1;fill:#5b8dd8;fill-opacity:1;stroke:none;stroke-width:0.77754867;stroke-opacity:1" />
  <rect
     transform="rotate(90)"
     y="-221.68858"
     x="45.024132"
     height="33.45163"
     width="31.350765"
     id="rect7216-5-5-5-3-9"
     style="opacity:1;fill:#ffffff;fill-opacity:1;stroke:none;stroke-width:0.4757435;stroke-opacity:1" />
  <rect
     y="130.06274"
     x="119.49425"
     height="32.153446"
     width="7.4183407"
     id="rect7216-5-8"
     style="opacity:1;fill:#ffffff;fill-opacity:1;stroke:none;stroke-width:0.15581019;stroke-opacity:1" />
  <rect
     y="143.21844"
     x="87.359451"
     height="36.979164"
     width="34.220802"
     id="rect7216-2"
     style="opacity:1;fill:#ffffff;fill-opacity:1;stroke:none;stroke-width:0.60984015;stroke-opacity:1" />
  <rect
     transform="rotate(90)"
     y="-148.14757"
     x="73.2938"
     height="34.356556"
     width="15.899029"
     id="rect7216-5-5-5-4"
     style="opacity:1;fill:#ffffff;fill-opacity:1;stroke:none;stroke-width:0.38724151;stroke-opacity:1" />
  <rect
     transform="rotate(90)"
     y="-136.07817"
     x="83.364037"
     height="9.9679441"
     width="11.185139"
     id="rect7216-5-5-9"
     style="opacity:1;fill:#ffffff;fill-opacity:1;stroke:none;stroke-width:0.17703992;stroke-opacity:1" />
  <rect
     transform="rotate(90)"
     y="-47.888447"
     x="-2.5489485e-14"
     height="23.631262"
     width="67.92112"
     id="rect7216-5-5-5-3-0-9-7-7"
     style="opacity:1;fill:#ffffff;fill-opacity:1;stroke:none;stroke-width:0.77754867;stroke-opacity:1" />
  <rect
     transform="rotate(90)"
     y="-54.868183"
     x="213.1377"
     height="38.579548"
     width="11.654601"
     id="rect7216-5-5-5-3-0-7"
     style="opacity:1;fill:#ffffff;fill-opacity:1;stroke:none;stroke-width:0.36358926;stroke-opacity:1" />
  <rect
     inkscape:transform-center-y="0.8376487"
     inkscape:transform-center-x="-0.17900605"
     transform="matrix(0.59671652,0.80245211,-0.75475268,0.65600944,0,0)"
     y="-55.890209"
     x="145.73291"
     height="8.8776255"
     width="10.295578"
     id="rect7216-5-5-9-9"
     style="opacity:1;fill:#ffffff;fill-opacity:1;stroke:none;stroke-width:0.17729677;stroke-opacity:1" />
  <rect
     transform="matrix(-0.72299657,0.69085162,-0.65871207,-0.75239512,0,0)"
     y="-187.45096"
     x="109.56287"
     height="14.478517"
     width="9.5797348"
     id="rect7216-5-5-5-3-0-7-1"
     style="opacity:1;fill:#ffffff;fill-opacity:1;stroke:none;stroke-width:0.36376181;stroke-opacity:1" />
  <rect
     style="opacity:1;fill:#ffffff;fill-opacity:1;stroke:none;stroke-width:0.77754867;stroke-opacity:1"
     id="rect7216-5-5-5-3-0-9-5"
     width="75.328346"
     height="38.579548"
     x="142.84142"
     y="-38.579548"
     transform="rotate(90)" />
  <ellipse
     class="cls-1"
     cx="286.97662"
     cy="334.98346"
     rx="169.63673"
     ry="7.8437042"
     id="ellipse8077"
     style="opacity:0.15;fill:#2c2a40;stroke-width:1" />
  <rect
     class="cls-2"
     x="-439.31482"
     y="-266.82742"
     width="64.098068"
     height="13.848349"
     rx="3.0739999"
     ry="3.0739999"
     transform="scale(-1)"
     id="rect8079"
     style="fill:#63676d;stroke-width:1" />
  <path
     class="cls-2"
     d="m 430.81422,167.76818 11.75764,1.37376 a 13.177297,13.177297 0 0 1 11.42845,15.47533 l -11.55348,62.7164 a 13.177297,13.177297 0 0 1 -13.45268,10.77956 l -28.66212,-1.05881 a 13.175714,13.175714 0 0 1 -12.37172,-16.04351 l 14.09524,-63.03135 a 13.177297,13.177297 0 0 1 12.85918,-10.30159 h 14.36905 a 13.177297,13.177297 0 0 1 1.53044,0.0902 z"
     id="path8081"
     inkscape:connector-curvature="0"
     style="fill:#63676d;stroke-width:1" />
  <path
     class="cls-3"
     d="m 425.65155,176.69443 9.43271,1.10787 a 10.570642,10.570642 0 0 1 9.1684,12.41445 l -9.27286,50.31303 a 10.570642,10.570642 0 0 1 -10.78588,8.6477 l -22.99301,-0.84989 A 10.570642,10.570642 0 0 1 391.276,235.45733 l 11.30816,-50.56467 A 10.570642,10.570642 0 0 1 412.9,176.62954 h 11.52815 a 10.561146,10.561146 0 0 1 1.2234,0.0649 z"
     id="path8083"
     inkscape:connector-curvature="0"
     style="fill:#404348;stroke-width:1" />
  <polygon
     class="cls-2"
     points="162.063,174.801 170.065,142.778 172.808,131.806 173.333,129.701 170.19,128.838 169.448,131.806 166.708,142.778 158.705,174.801 "
     id="polygon8085"
     style="fill:#63676d;stroke-width:0.63184428"
     transform="matrix(1.5826684,0,0,1.5826684,114.13177,58.222219)" />
  <polygon
     class="cls-3"
     points="170.065,142.778 172.808,131.806 169.448,131.806 166.708,142.778 "
     id="polygon8087"
     style="fill:#404348;stroke-width:0.63184428"
     transform="matrix(1.5826684,0,0,1.5826684,114.13177,58.222219)" />
  <polygon
     class="cls-2"
     points="197.785,131.806 200.528,142.778 208.528,174.801 211.885,174.801 203.885,142.778 201.145,131.806 200.403,128.838 197.26,129.701 "
     id="polygon8089"
     style="fill:#63676d;stroke-width:0.63184428"
     transform="matrix(1.5826684,0,0,1.5826684,114.13177,58.222219)" />
  <polygon
     class="cls-3"
     points="200.528,142.778 203.885,142.778 201.145,131.806 197.785,131.806 "
     id="polygon8091"
     style="fill:#404348;stroke-width:0.63184428"
     transform="matrix(1.5826684,0,0,1.5826684,114.13177,58.222219)" />
  <path
     class="cls-4"
     d="m 402.77883,157.07568 -2.96275,35.43278 c 0,0 -8.43563,16.53097 -13.80404,16.12739 -4.34442,-0.3292 -15.43893,-1.45922 -20.91496,-2.02582 -1.92611,-0.19783 -3.15742,-0.32919 -3.15742,-0.32919 l -1.97834,-8.66511 c 1.17117,0.0712 2.59241,0.1187 4.16242,0.15035 8.33591,0.15827 20.74403,-0.15035 20.74403,-0.15035 3.3426,-9.45645 17.91106,-40.54005 17.91106,-40.54005 z"
     id="path8093"
     inkscape:connector-curvature="0"
     style="fill:#a0bbe7;stroke-width:1" />
  <path
     class="cls-4"
     d="m 365.0955,206.61003 c -1.92611,-0.19783 -3.15743,-0.32919 -3.15743,-0.32919 l -1.97833,-8.66511 c 1.17117,0.0712 2.59241,0.1187 4.16242,0.15035 a 21.04949,21.04949 0 0 1 0.97334,8.84395 z"
     id="path8095"
     inkscape:connector-curvature="0"
     style="fill:#a0bbe7;stroke-width:1" />
  <path
     class="cls-5"
     d="m 359.95974,197.61573 c 0,0 -2.35501,-3.11786 -3.44231,-4.99649 -1.08729,-1.87862 -3.06562,-0.98916 -1.58266,3.46288 a 29.736757,29.736757 0 0 0 -8.11118,-0.29596 c -2.76967,0.5935 -2.374,7.02388 0.5935,9.89168 2.9675,2.86779 14.52257,0.60616 14.52257,0.60616 0,0 0.47321,-5.23388 -1.97992,-8.66827 z"
     id="path8097"
     inkscape:connector-curvature="0"
     style="fill:#ecb28a;stroke-width:1" />
  <path
     class="cls-6"
     d="m 431.30643,237.79809 c 0,0 -2.33602,17.98387 -25.59017,15.76655 -20.74878,-1.97834 -17.27482,-19.09964 -17.27482,-19.09964 0,0 28.89636,-1.26139 42.86499,3.33309 z"
     id="path8099"
     inkscape:connector-curvature="0"
     style="fill:#2c2a40;stroke-width:1" />
  <path
     class="cls-4"
     d="m 440.98761,159.84535 -4.43147,35.67334 -1.6254,13.10766 -3.62431,29.16858 c -7.31509,1.82482 -14.22344,3.34734 -20.81209,1.83589 -4.11494,-0.9496 -7.33567,-1.52727 -13.41628,-2.59557 a 30.667366,30.667366 0 0 1 -8.63346,-2.57184 l 3.98833,-21.52429 1.09995,-5.94292 9.24753,-49.92527 10.37756,-1.0683 v 0 l 13.74548,-0.40675 z"
     id="path8101"
     inkscape:connector-curvature="0"
     style="fill:#a0bbe7;stroke-width:1" />
  <path
     class="cls-7"
     d="m 436.55614,195.51869 -1.6254,13.10766 a 14.201284,14.201284 0 0 1 -5.48869,4.27321 c -6.5839,2.54493 -33.06195,0.383 -37.0107,0.0427 l 1.09995,-5.94292 c 32.89576,3.20174 42.24142,-11.90958 42.24142,-11.90958 z"
     id="path8103"
     inkscape:connector-curvature="0"
     style="fill:#82a6e1;stroke-width:1" />
  <polygon
     class="cls-6"
     points="191.288,67.802 190.608,67.654 183.451,93.717 185.338,100.564 189.252,94.554 "
     id="polygon8105"
     style="fill:#2c2a40;stroke-width:0.63184428"
     transform="matrix(1.5826684,0,0,1.5826684,114.13177,58.222219)" />
  <polygon
     class="cls-8"
     points="190.696,69.237 193.879,65.283 191.323,63.594 189.686,65.871 "
     id="polygon8107"
     style="fill:#383851;stroke-width:0.63184428"
     transform="matrix(1.5826684,0,0,1.5826684,114.13177,58.222219)" />
  <path
     class="cls-6"
     d="m 403.49895,247.95883 c 0,0 -14.03827,13.57454 -32.44471,15.03535 a 110.11257,110.11257 0 0 1 -4.41881,19.39876 c -3.12577,9.00222 -16.19703,40.64134 -16.19703,40.64134 l -11.69433,-0.3561 20.54303,-74.09262 a 8.7774789,8.7774789 0 0 1 6.17241,-6.12809 l 23.3681,-6.30852 c 0,0 15.42152,5.0598 14.67134,11.80988 z"
     id="path8109"
     inkscape:connector-curvature="0"
     style="fill:#2c2a40;stroke-width:1" />
  <path
     class="cls-9"
     d="m 346.7318,334.66057 -25.00617,0.21366 c 3.41857,-6.51901 16.13373,-9.03387 16.13373,-9.03387 l 0.52702,-2.13028 0.66789,-2.1825 c 3.44547,-1.04297 11.37464,1.50829 11.37464,1.50829 z"
     id="path8111"
     inkscape:connector-curvature="0"
     style="fill:#82423c;stroke-width:1" />
  <path
     class="cls-10"
     d="m 345.89931,327.49899 c -2.64464,-2.16509 -8.03204,-1.66022 -8.03204,-1.66022 l 0.52703,-2.13027 c 5.60106,0.31179 7.50501,3.79049 7.50501,3.79049 z"
     id="path8113"
     inkscape:connector-curvature="0"
     style="fill:#5c1a31;stroke-width:1" />
  <path
     class="cls-8"
     d="m 425.75918,248.09177 c 0,0 -17.27166,20.00968 -34.13183,18.6834 0,0 0.26431,13.89266 -0.52703,23.38867 -0.79133,9.49601 -2.87729,32.87203 -2.87729,32.87203 l -9.88376,0.41307 -2.61774,-62.87466 a 7.2628653,7.2628653 0 0 1 3.68129,-6.62505 l 21.55911,-12.18655 c 0,0 23.84765,-0.39567 24.79725,6.32909 z"
     id="path8115"
     inkscape:connector-curvature="0"
     style="fill:#383851;stroke-width:1" />
  <path
     class="cls-9"
     d="m 386.73374,334.822 -24.97767,0.0522 c 3.41856,-6.51901 16.03084,-9.05761 16.03084,-9.05761 l 0.45265,-2.10654 0.0665,-1.04772 c 3.44547,-1.04298 9.917,0.37351 9.917,0.37351 z"
     id="path8117"
     inkscape:connector-curvature="0"
     style="fill:#82423c;stroke-width:1" />
  <path
     class="cls-10"
     d="m 384.86777,327.49899 c -2.64464,-2.16509 -7.07927,-1.68396 -7.07927,-1.68396 l 0.45264,-2.10653 c 5.59948,0.31179 6.62663,3.79049 6.62663,3.79049 z"
     id="path8119"
     inkscape:connector-curvature="0"
     style="fill:#5c1a31;stroke-width:1" />
  <path
     class="cls-4"
     d="m 448.40241,176.62321 c -3.16533,14.61595 -19.27532,33.33417 -19.27532,33.33417 0,0 -17.38561,3.90127 -34.05585,-1.28197 -0.94961,-0.29279 -1.89129,-0.61407 -2.82823,-0.96859 a 25.629732,25.629732 0 0 1 0,-7.85478 c 0,0 1.18383,0.37192 2.82823,0.71695 a 20.212258,20.212258 0 0 0 6.37024,0.4748 c 6.96374,-0.9496 21.64615,-3.42332 21.64615,-3.42332 0,0 7.19323,-10.3459 17.89682,-37.77038 0,-0.005 10.5833,2.15243 7.41796,16.77312 z"
     id="path8121"
     inkscape:connector-curvature="0"
     style="fill:#a0bbe7;stroke-width:1" />
  <path
     class="cls-11"
     d="m 395.07124,200.5674 v 8.10801 c -0.94961,-0.29279 -1.89129,-0.61407 -2.82823,-0.96859 a 25.629732,25.629732 0 0 1 0,-7.85478 c 0,0 1.18225,0.37192 2.82823,0.71536 z"
     id="path8123"
     inkscape:connector-curvature="0"
     style="fill:#bfd7f7;stroke-width:1" />
  <path
     class="cls-5"
     d="m 392.24142,199.85204 c 0,0 -4.13392,-4.68787 -5.45545,-4.76067 -1.63173,-0.0902 -0.67739,3.12894 -0.67739,3.12894 0,0 -3.67495,-1.84223 -6.19772,-0.0127 -2.29804,1.66655 -1.14586,13.08392 12.33056,9.49602 z"
     id="path8125"
     inkscape:connector-curvature="0"
     style="fill:#ecb28a;stroke-width:1" />
  <path
     class="cls-5"
     d="m 426.01082,153.9325 a 14.77421,14.77421 0 0 1 -12.20079,5.42855 l -1.11895,-4.19724 -1.4244,-5.3415 a 22.526119,22.526119 0 0 1 2.90578,-4.21623 c 2.09071,-2.38825 5.20698,-4.81131 9.00064,-4.31436 z"
     id="path8127"
     inkscape:connector-curvature="0"
     style="fill:#ecb28a;stroke-width:1" />
  <path
     class="cls-12"
     d="m 421.75661,143.221 c 0,0 -1.78842,9.03703 -9.06711,11.94281 l -1.4244,-5.3415 a 22.526119,22.526119 0 0 1 2.90578,-4.21623 z"
     id="path8129"
     inkscape:connector-curvature="0"
     style="fill:#e8967c;stroke-width:1" />
  <path
     class="cls-5"
     d="m 398.95352,118.49813 -1.8992,27.19025 c -0.26159,3.60979 2.61181,6.67514 6.23096,6.6472 6.94317,-0.0728 17.48058,-1.96409 22.38368,-11.93015 3.88101,-7.89281 4.1785,-22.10147 -1.68228,-26.86848 -5.69971,-4.636 -19.68532,-1.53567 -25.03316,4.96118 z"
     id="path8131"
     inkscape:connector-curvature="0"
     style="fill:#ecb28a;stroke-width:1"
     sodipodi:nodetypes="ccccsc" />
  <path
     class="cls-5"
     d="m 398.18909,129.44229 -3.29195,7.5968 a 1.7409352,1.7409352 0 0 0 0.9132,2.29646 l 1.64281,0.70428 c 0,0 2.60982,-2.00207 0.73594,-10.59754 z"
     id="path8133"
     inkscape:connector-curvature="0"
     style="fill:#ecb28a;stroke-width:1" />
  <path
     class="cls-6"
     d="m 292.67611,150.36197 c 0,0 -6.96374,-2.4563 -6.06953,-9.17947 1.66971,-12.64709 24.88904,-3.34891 33.71084,1.25664 9.99929,5.2228 4.9585,22.02441 2.21573,26.86896 a 12.868677,12.868677 0 0 1 -4.11494,4.33651 c -1.7805,1.18542 -4.50111,-0.15827 -5.23705,-2.16667 -0.73594,-2.00841 -1.67446,-4.25422 1.72669,-9.05287 2.49746,-3.52618 -1.15059,-8.61921 -4.88728,-5.26712 -3.73668,3.35209 -5.19906,2.7032 -4.02947,-1.70453 1.16959,-4.40773 -6.7026,-6.82289 -13.31499,-5.09145 z"
     id="path8135"
     inkscape:connector-curvature="0"
     style="fill:#ffffff;stroke-width:1" />
  <path
     class="cls-6"
     d="m 412.99496,127.84537 c 0,0 -3.20333,14.95938 -7.64746,12.75156 a 9.0212099,9.0212099 0 0 0 -8.25203,0.0807 c -3.21757,14.73781 5.02022,14.40228 8.4831,13.36405 5.7071,-1.71719 5.96033,-10.09426 6.39082,-14.29624 0.43048,-4.20199 4.25263,-11.36831 4.25263,-11.36831 z M 399.6863,147.7775 a 6.1913988,6.1913988 0 0 1 -1.58267,-4.39507 0.82457024,0.82457024 0 0 1 0.60774,-0.86414 7.0412917,7.0412917 0 0 1 4.22098,0.17251 c 0.84989,0.56818 -1.44498,6.55858 -3.24764,5.0867 z"
     id="path8137"
     inkscape:connector-curvature="0"
     style="fill:#2c2a40;stroke-width:1" />
  <path
     class="cls-11"
     d="m 416.93263,158.87042 6.2737,4.14343 c 0,0 6.43671,-6.76908 5.22281,-9.91859 -1.21391,-3.14951 -3.06247,-2.05746 -3.06247,-2.05746 0,0 -3.33468,5.69127 -8.43404,7.83262 z"
     id="path8139"
     inkscape:connector-curvature="0"
     style="fill:#bfd7f7;stroke-width:1" />
  <path
     class="cls-11"
     d="m 412.50275,154.3978 c 0,0 -2.72852,2.74118 -2.72852,4.91419 0,2.173 3.65438,4.43147 3.65438,4.43147 l 3.50561,-4.8762 a 17.15296,17.15296 0 0 1 -3.21757,0.21682 z"
     id="path8141"
     inkscape:connector-curvature="0"
     style="fill:#bfd7f7;stroke-width:1" />
  <rect
     class="cls-2"
     x="129.03896"
     y="252.97906"
     width="64.098068"
     height="13.848349"
     rx="3.0739999"
     ry="3.0739999"
     id="rect8143"
     style="fill:#63676d;stroke-width:1" />
  <path
     class="cls-2"
     d="m 137.53785,167.76818 -11.75764,1.37376 a 13.177297,13.177297 0 0 0 -11.42687,15.47691 l 11.55348,62.7164 a 13.177297,13.177297 0 0 0 13.45268,10.77956 l 28.66213,-1.05881 a 13.177297,13.177297 0 0 0 12.37172,-16.04351 l -14.09683,-63.03293 a 13.177297,13.177297 0 0 0 -12.85918,-10.30159 h -14.36905 a 13.177297,13.177297 0 0 0 -1.53044,0.0902 z"
     id="path8145"
     inkscape:connector-curvature="0"
     style="fill:#63676d;stroke-width:1" />
  <path
     class="cls-3"
     d="m 142.70052,176.69443 -9.43271,1.10787 a 10.570642,10.570642 0 0 0 -9.16523,12.41445 l 9.27285,50.31303 a 10.570642,10.570642 0 0 0 10.78589,8.6477 l 22.99301,-0.84989 a 10.570642,10.570642 0 0 0 9.92491,-12.87026 l -11.30817,-50.57101 a 10.570642,10.570642 0 0 0 -10.31583,-8.26311 h -11.52657 a 10.561146,10.561146 0 0 0 -1.22815,0.0712 z"
     id="path8147"
     inkscape:connector-curvature="0"
     style="fill:#404348;stroke-width:1" />
  <polygon
     class="cls-2"
     points="52.821,174.801 44.819,142.778 42.076,131.806 41.551,129.701 44.694,128.838 45.436,131.806 48.176,142.778 56.179,174.801 "
     id="polygon8149"
     style="fill:#63676d;stroke-width:0.63184428"
     transform="matrix(1.5826684,0,0,1.5826684,114.13177,58.222219)" />
  <polygon
     class="cls-3"
     points="44.819,142.778 42.076,131.806 45.436,131.806 48.176,142.778 "
     id="polygon8151"
     style="fill:#404348;stroke-width:0.63184428"
     transform="matrix(1.5826684,0,0,1.5826684,114.13177,58.222219)" />
  <polygon
     class="cls-2"
     points="17.098,131.806 14.356,142.778 6.356,174.801 2.998,174.801 10.998,142.778 13.738,131.806 14.481,128.838 17.623,129.701 "
     id="polygon8153"
     style="fill:#63676d;stroke-width:0.63184428"
     transform="matrix(1.5826684,0,0,1.5826684,114.13177,58.222219)" />
  <polygon
     class="cls-3"
     points="14.356,142.778 10.998,142.778 13.738,131.806 17.098,131.806 "
     id="polygon8155"
     style="fill:#404348;stroke-width:0.63184428"
     transform="matrix(1.5826684,0,0,1.5826684,114.13177,58.222219)" />
  <path
     class="cls-6"
     d="m 165.5495,157.07568 2.71902,18.37636 c 0,0 20.88173,20.03816 26.25172,19.63775 8.96266,-0.66631 21.54487,-6.46362 26.25489,-9.31242 1.65864,-1.00183 2.71428,-1.6444 2.71428,-1.6444 l -1.91028,-8.68093 c -1.02874,0.56501 -2.29329,1.21391 -3.70028,1.91344 -7.46861,3.70661 -23.36019,5.68178 -23.36019,5.68178 -7.06028,-7.12359 -28.96916,-25.97158 -28.96916,-25.97158 z"
     id="path8157"
     inkscape:connector-curvature="0"
     style="fill:#2c2a40;stroke-width:1" />
  <path
     class="cls-13"
     d="m 220.77513,185.77737 c 1.65864,-1.00183 2.71428,-1.6444 2.71428,-1.6444 l -1.91028,-8.68093 c -1.02874,0.56501 -2.29329,1.21391 -3.70028,1.91344 a 21.04949,21.04949 0 0 0 2.89628,8.41189 z"
     id="path8159"
     inkscape:connector-curvature="0"
     style="fill:#ededed;stroke-width:1" />
  <path
     class="cls-5"
     d="m 221.57913,175.45046 c 0,0 0.79133,-3.82373 0.97967,-5.98882 0.18834,-2.16509 2.35026,-2.20308 2.90894,2.45472 a 29.74467,29.74467 0 0 1 7.20589,-3.73035 c 2.75859,-0.64573 5.14526,5.33676 3.68762,9.19847 -1.45764,3.86171 -12.8671,6.74849 -12.8671,6.74849 0,0 -2.66679,-4.52801 -1.91502,-8.68251 z"
     id="path8161"
     inkscape:connector-curvature="0"
     style="fill:#ecb28a;stroke-width:1" />
  <path
     class="cls-6"
     d="m 137.04564,237.79809 c 0,0 2.33602,17.98387 25.59017,15.76655 20.74878,-1.97834 17.27482,-19.09964 17.27482,-19.09964 0,0 -28.90269,-1.26139 -42.86499,3.33309 z"
     id="path8163"
     inkscape:connector-curvature="0"
     style="fill:#2c2a40;stroke-width:1" />
  <path
     class="cls-6"
     d="m 137.04564,237.79809 c 7.31668,1.82166 14.22502,3.34418 20.81369,1.83432 4.11492,-0.9496 7.33723,-1.52886 13.41626,-2.59716 a 30.732255,30.732255 0 0 0 8.63346,-2.57025 l -14.34056,-77.38932 -10.37756,-1.06831 v 0 l -13.74547,-0.40674 -14.08575,4.24788 z"
     id="path8165"
     inkscape:connector-curvature="0"
     style="fill:#2c2a40;stroke-width:1" />
  <path
     class="cls-13"
     d="m 157.86091,239.63241 c 3.92026,-0.44315 9.17946,-0.79134 13.41627,-2.59716 -2.28221,-11.90642 -12.16914,-63.67392 -16.07991,-81.03262 v 0 l -13.74548,-0.40675 c 0,0 13.96705,58.64578 16.40912,84.03653 z"
     id="path8167"
     inkscape:connector-curvature="0"
     style="fill:#ededed;stroke-width:1" />
  <polygon
     class="cls-14"
     points="23.596,67.802 24.275,67.654 31.432,93.717 29.546,100.564 25.632,94.554 "
     id="polygon8169"
     style="fill:#107b85;stroke-width:0.63184428"
     transform="matrix(1.5826684,0,0,1.5826684,114.13177,58.222219)" />
  <polygon
     class="cls-15"
     points="24.188,69.237 21.005,65.283 23.561,63.594 25.198,65.871 "
     id="polygon8171"
     style="fill:#079798;stroke-width:0.63184428"
     transform="matrix(1.5826684,0,0,1.5826684,114.13177,58.222219)" />
  <path
     class="cls-6"
     d="m 164.85471,247.95883 c 0,0 14.03827,13.57454 32.4447,15.03535 a 110.11415,110.11415 0 0 0 4.41881,19.39876 c 3.12577,9.00222 16.19703,40.64134 16.19703,40.64134 l 11.69434,-0.3561 -20.55095,-74.09262 a 8.7774789,8.7774789 0 0 0 -6.17241,-6.12809 l -23.3681,-6.30852 c 0,0 -15.41361,5.0598 -14.66342,11.80988 z"
     id="path8173"
     inkscape:connector-curvature="0"
     style="fill:#2c2a40;stroke-width:1" />
  <path
     class="cls-9"
     d="m 221.62186,334.66057 25.00616,0.21366 c -3.41856,-6.51901 -16.13372,-9.03387 -16.13372,-9.03387 l -0.52703,-2.13028 -0.66789,-2.1825 c -3.44547,-1.04297 -11.37464,1.50829 -11.37464,1.50829 z"
     id="path8175"
     inkscape:connector-curvature="0"
     style="fill:#82423c;stroke-width:1" />
  <path
     class="cls-10"
     d="m 222.45434,327.49899 c 2.64464,-2.16509 8.03204,-1.66022 8.03204,-1.66022 l -0.52702,-2.13027 c -5.60265,0.31179 -7.50502,3.79049 -7.50502,3.79049 z"
     id="path8177"
     inkscape:connector-curvature="0"
     style="fill:#5c1a31;stroke-width:1" />
  <path
     class="cls-8"
     d="m 142.59289,248.09177 c 0,0 17.278,20.00968 34.13183,18.6834 0,0 -0.2643,13.89266 0.52703,23.38867 0.79133,9.49601 2.87729,32.87203 2.87729,32.87203 l 9.88376,0.41307 2.61932,-62.87466 a 7.2628653,7.2628653 0 0 0 -3.68129,-6.62505 l -21.5591,-12.18655 c 0,0 -23.84923,-0.39567 -24.79884,6.32909 z"
     id="path8179"
     inkscape:connector-curvature="0"
     style="fill:#383851;stroke-width:1" />
  <path
     class="cls-9"
     d="m 181.61833,334.822 24.97926,0.0506 c -3.41857,-6.51901 -16.03085,-9.05761 -16.03085,-9.05761 l -0.45264,-2.10653 -0.0665,-1.04773 c -3.44547,-1.04297 -9.917,0.37351 -9.917,0.37351 z"
     id="path8181"
     inkscape:connector-curvature="0"
     style="fill:#82423c;stroke-width:1" />
  <path
     class="cls-10"
     d="m 183.48588,327.49899 c 2.64464,-2.16509 7.07928,-1.68396 7.07928,-1.68396 l -0.45265,-2.10653 c -5.60106,0.31179 -6.62663,3.79049 -6.62663,3.79049 z"
     id="path8183"
     inkscape:connector-curvature="0"
     style="fill:#5c1a31;stroke-width:1" />
  <path
     class="cls-6"
     d="m 124.04877,189.81792 a 29.912433,29.912433 0 0 0 15.17779,20.13946 c 0,0 17.38563,3.90127 34.05586,-1.28197 0.9496,-0.29279 1.8992,-0.61407 2.82823,-0.96859 a 25.629732,25.629732 0 0 0 0,-7.85478 c 0,0 -1.18226,0.37192 -2.82823,0.71695 a 20.212258,20.212258 0 0 1 -6.37024,0.4748 c -6.96374,-0.9496 -21.64616,-3.42332 -21.64616,-3.42332 0,0 -7.19481,-10.35065 -17.8984,-37.77512 0,0 -6.48419,15.35188 -3.31885,29.97257 z"
     id="path8185"
     inkscape:connector-curvature="0"
     style="fill:#2c2a40;stroke-width:1" />
  <path
     class="cls-13"
     d="m 173.28242,200.5674 v 8.10801 c 0.9496,-0.29279 1.8992,-0.61407 2.82823,-0.96859 a 25.629732,25.629732 0 0 0 0,-7.85478 c 0,0 -1.18226,0.37192 -2.82823,0.71536 z"
     id="path8187"
     inkscape:connector-curvature="0"
     style="fill:#ededed;stroke-width:1" />
  <path
     class="cls-5"
     d="m 176.11223,199.85204 c 0,0 4.13393,-4.68787 5.45546,-4.76067 1.63173,-0.0902 0.67738,3.12894 0.67738,3.12894 0,0 3.67495,-1.84223 6.19773,-0.0127 2.29645,1.66655 1.14585,13.08392 -12.33057,9.49602 z"
     id="path8189"
     inkscape:connector-curvature="0"
     style="fill:#ecb28a;stroke-width:1" />
  <path
     class="cls-5"
     d="m 142.38873,153.77106 a 14.77421,14.77421 0 0 0 12.24194,5.3336 l 1.08729,-4.20515 1.38485,-5.35734 a 22.524537,22.524537 0 0 0 -2.93903,-4.19248 c -2.10969,-2.37401 -5.24496,-4.77017 -9.03387,-4.24314 z"
     id="path8191"
     inkscape:connector-curvature="0"
     style="fill:#ecb28a;stroke-width:1" />
  <path
     class="cls-12"
     d="m 146.55906,143.02791 c 0,0 1.85964,9.02121 9.1589,11.87001 l 1.38485,-5.35575 a 22.524537,22.524537 0 0 0 -2.93903,-4.19248 z"
     id="path8193"
     inkscape:connector-curvature="0"
     style="fill:#e8967c;stroke-width:1" />
  <path
     class="cls-5"
     d="m 169.17064,118.12621 2.10812,27.17441 a 6.1993121,6.1993121 0 0 1 -6.17241,6.68836 c -6.94315,-0.019 -17.4964,-1.82798 -22.47389,-11.75606 -7.78356,-15.49907 10.97581,-32.07118 26.53818,-22.10671 z"
     id="path8195"
     inkscape:connector-curvature="0"
     style="fill:#ecb28a;stroke-width:1" />
  <path
     class="cls-5"
     d="m 170.01895,129.06245 3.35526,7.57781 a 1.7409352,1.7409352 0 0 1 -0.89579,2.29804 l -1.63806,0.71694 c 0,0 -2.62723,-1.98308 -0.82141,-10.59279 z"
     id="path8197"
     inkscape:connector-curvature="0"
     style="fill:#ecb28a;stroke-width:1" />
  <path
     class="cls-6"
     d="m 140.60348,111.22577 c -9.93124,5.35259 -4.84297,23.48997 -2.05747,28.31394 a 12.867094,12.867094 0 0 0 4.14343,4.30486 c 1.78999,1.17117 4.49952,-0.19309 5.2228,-2.20624 0.72328,-2.01316 1.64123,-4.27321 -1.79633,-9.03862 -2.53227,-3.50561 1.08255,-8.62871 4.84613,-5.30511 3.76359,3.32361 5.22281,2.66205 4.01523,-1.74093 -1.20757,-4.40298 6.63455,-6.87353 13.26593,-5.18957 0,0 6.8767,-0.53336 5.80681,-8.66669 -1.06988,-8.13332 -10.73682,-9.90274 -10.73682,-9.90274 0,0 3.34893,3.64013 -0.67897,5.38107 -4.02789,1.74093 -15.14613,0.33869 -22.03074,4.05003 z"
     id="path8199"
     inkscape:connector-curvature="0"
     style="fill:#2c2a40;stroke-width:1" />
  <path
     class="cls-16"
     d="m 151.42102,158.87042 -6.26895,4.14501 c 0,0 -6.43671,-6.76907 -5.22281,-9.91858 1.21391,-3.14951 3.06247,-2.05747 3.06247,-2.05747 0,0 3.32993,5.68969 8.42929,7.83104 z"
     id="path8201"
     inkscape:connector-curvature="0"
     style="fill:#ffffff;stroke-width:1" />
  <path
     class="cls-16"
     d="m 155.85091,154.3978 c 0,0 2.72377,2.74435 2.7301,4.91419 0.006,2.16983 -3.65438,4.43147 -3.65438,4.43147 l -3.50561,-4.8762 a 17.154543,17.154543 0 0 0 3.21756,0.21682 z"
     id="path8203"
     inkscape:connector-curvature="0"
     style="fill:#ffffff;stroke-width:1" />
  <rect
     class="cls-9"
     x="189.93999"
     y="219.72562"
     width="8.6144638"
     height="114.65483"
     id="rect8205"
     style="fill:#82423c;stroke-width:1" />
  <rect
     class="cls-10"
     x="189.93999"
     y="219.72562"
     width="8.6144638"
     height="19.909967"
     id="rect8207"
     style="fill:#5c1a31;stroke-width:1" />
  <rect
     class="cls-9"
     x="369.95746"
     y="219.72562"
     width="8.6144638"
     height="114.65483"
     id="rect8209"
     style="fill:#82423c;stroke-width:1" />
  <rect
     class="cls-10"
     x="369.95746"
     y="219.72562"
     width="8.6144638"
     height="19.909967"
     id="rect8211"
     style="fill:#5c1a31;stroke-width:1" />
  <rect
     class="cls-9"
     x="171.67912"
     y="208.6438"
     width="222.58965"
     height="11.081844"
     id="rect8213"
     style="fill:#82423c;stroke-width:1" />
  <rect
     class="cls-10"
     x="198.55602"
     y="250.11758"
     width="171.40141"
     height="5.1610813"
     id="rect8215"
     style="fill:#5c1a31;stroke-width:1" />
  <rect
     class="cls-10"
     x="198.55602"
     y="277.0119"
     width="171.40141"
     height="5.1610813"
     id="rect8217"
     style="fill:#5c1a31;stroke-width:1" />
  <path
     class="cls-17"
     d="M 288.62887,105.1705 A 22.367852,22.367852 0 1 1 310.99673,82.802649 22.393175,22.393175 0 0 1 288.62887,105.1705 Z"
     id="path8219"
     inkscape:connector-curvature="0"
     style="opacity:0.2;stroke-width:1" />
  <path
     class="cls-6"
     d="M 288.62887,102.95951 A 22.367852,22.367852 0 1 1 310.99673,80.591659 22.393175,22.393175 0 0 1 288.62887,102.95951 Z"
     id="path8221"
     inkscape:connector-curvature="0"
     style="fill:#2c2a40;stroke-width:1" />
  <circle
     class="cls-16"
     cx="288.62891"
     cy="80.590065"
     r="19.077484"
     id="circle8223"
     style="fill:#ffffff;stroke-width:1" />
  <path
     class="cls-6"
     d="m 288.62887,67.482419 a 0.63306736,0.63306736 0 0 1 -0.63306,-0.63307 v -3.51669 a 0.63306736,0.63306736 0 0 1 1.25189,0 v 3.52302 a 0.63306736,0.63306736 0 0 1 -0.61883,0.62674 z"
     id="path8225"
     inkscape:connector-curvature="0"
     style="fill:#2c2a40;stroke-width:1" />
  <path
     class="cls-6"
     d="m 288.62887,98.065899 a 0.63306736,0.63306736 0 0 1 -0.63306,-0.63307 v -3.51669 a 0.63306736,0.63306736 0 0 1 1.25189,0 v 3.52302 a 0.63306736,0.63306736 0 0 1 -0.61883,0.62674 z"
     id="path8227"
     inkscape:connector-curvature="0"
     style="fill:#2c2a40;stroke-width:1" />
  <path
     class="cls-6"
     d="m 276.26507,80.379579 a 0.63306736,0.63306736 0 0 1 -0.63307,0.63307 h -3.51511 a 0.63306736,0.63306736 0 0 1 0,-1.25189 h 3.52302 a 0.63306736,0.63306736 0 0 1 0.62516,0.61882 z"
     id="path8229"
     inkscape:connector-curvature="0"
     style="fill:#2c2a40;stroke-width:1" />
  <path
     class="cls-6"
     d="m 306.85013,80.379579 a 0.63306736,0.63306736 0 0 1 -0.63306,0.63307 h -3.52302 a 0.63306736,0.63306736 0 0 1 0,-1.25189 h 3.52302 a 0.63306736,0.63306736 0 0 1 0.63306,0.61882 z"
     id="path8231"
     inkscape:connector-curvature="0"
     style="fill:#2c2a40;stroke-width:1" />
  <path
     class="cls-6"
     d="m 279.74694,71.644829 a 0.63306736,0.63306736 0 0 1 -0.8863,0 l -2.48953,-2.49112 a 0.63306736,0.63306736 0 0 1 0.88629,-0.88629 l 2.49112,2.49112 a 0.63306736,0.63306736 0 0 1 -0.002,0.88629 z"
     id="path8233"
     inkscape:connector-curvature="0"
     style="fill:#2c2a40;stroke-width:1" />
  <path
     class="cls-6"
     d="m 301.3741,93.270419 a 0.63306736,0.63306736 0 0 1 -0.88629,0 l -2.49112,-2.49112 a 0.63306736,0.63306736 0 0 1 0.88629,-0.8863 l 2.49112,2.49112 a 0.63306736,0.63306736 0 0 1 0,0.8863 z"
     id="path8235"
     inkscape:connector-curvature="0"
     style="fill:#2c2a40;stroke-width:1" />
  <path
     class="cls-6"
     d="m 280.12994,89.509999 a 0.63306736,0.63306736 0 0 1 0,0.88629 l -2.49112,2.48637 a 0.63306736,0.63306736 0 0 1 -0.88629,-0.88629 l 2.49112,-2.49112 a 0.63306736,0.63306736 0 0 1 0.88629,0.005 z"
     id="path8237"
     inkscape:connector-curvature="0"
     style="fill:#2c2a40;stroke-width:1" />
  <path
     class="cls-6"
     d="m 301.75711,67.884409 a 0.63306736,0.63306736 0 0 1 0,0.8863 l -2.49112,2.49112 a 0.63306736,0.63306736 0 1 1 -0.8863,-0.8863 l 2.49112,-2.49112 a 0.63306736,0.63306736 0 0 1 0.8863,0 z"
     id="path8239"
     inkscape:connector-curvature="0"
     style="fill:#2c2a40;stroke-width:1" />
  <path
     class="cls-17"
     d="m 307.70477,80.590079 q 0,0.83248 -0.0712,1.64597 a 19.075902,19.075902 0 0 0 -38.01094,0 q -0.0728,-0.81191 -0.0712,-1.64597 a 19.076694,19.076694 0 0 1 38.15338,0 z"
     id="path8241"
     inkscape:connector-curvature="0"
     style="opacity:0.2;stroke-width:1" />
  <polygon
     class="cls-18"
     points="110.574,14.4 113.99,22.635 109.999,14.796 "
     id="polygon8243"
     style="fill:#ff6160;stroke-width:0.63184428"
     transform="matrix(1.5826684,0,0,1.5826684,114.13177,58.222219)" />
  <circle
     class="cls-6"
     cx="288.76184"
     cy="80.385918"
     r="2.0258155"
     id="circle8245"
     style="fill:#2c2a40;stroke-width:1" />
  <polygon
     class="cls-6"
     points="109.241,14.004 107.272,9.119 110.339,13.401 "
     id="polygon8247"
     style="fill:#2c2a40;stroke-width:0.63184428"
     transform="matrix(1.5826684,0,0,1.5826684,114.13177,58.222219)" />
  <polygon
     class="cls-6"
     points="110.435,13.303 118.12,16.532 109.999,14.652 "
     id="polygon8249"
     style="fill:#2c2a40;stroke-width:0.63184428"
     transform="matrix(1.5826684,0,0,1.5826684,114.13177,58.222219)" />
  <path
     class="cls-8"
     d="m 287.27569,181.58804 v 9.00539 H 246.4745 a 2.3249399,2.3249399 0 0 1 -2.32494,-2.32494 v -4.35551 a 2.3249399,2.3249399 0 0 1 2.32494,-2.32494 z"
     id="path8251"
     inkscape:connector-curvature="0"
     style="fill:#383851;stroke-width:1" />
  <path
     class="cls-13"
     d="m 287.27569,182.72757 v 6.72634 h -37.0202 a 2.147681,2.147681 0 0 1 -2.14768,-2.14927 v -2.42465 a 2.1492637,2.1492637 0 0 1 2.14768,-2.15242 z"
     id="path8253"
     inkscape:connector-curvature="0"
     style="fill:#ededed;stroke-width:1" />
  <rect
     class="cls-19"
     x="251.86662"
     y="184.09186"
     width="35.412205"
     height="0.59350067"
     id="rect8255"
     style="fill:#9ca4ae;stroke-width:1" />
  <rect
     class="cls-19"
     x="251.86662"
     y="185.79318"
     width="35.412205"
     height="0.59350067"
     id="rect8257"
     style="fill:#9ca4ae;stroke-width:1" />
  <rect
     class="cls-19"
     x="251.86662"
     y="187.49457"
     width="35.412205"
     height="0.59350067"
     id="rect8259"
     style="fill:#9ca4ae;stroke-width:1" />
  <path
     class="cls-18"
     d="m 287.27569,190.59343 v 9.00538 H 246.4745 a 2.3249399,2.3249399 0 0 1 -2.32494,-2.32494 v -4.3555 a 2.3249399,2.3249399 0 0 1 2.32494,-2.32494 z"
     id="path8261"
     inkscape:connector-curvature="0"
     style="fill:#ff6160;stroke-width:1" />
  <path
     class="cls-13"
     d="m 287.27569,191.73295 v 6.72634 h -37.0202 a 2.147681,2.147681 0 0 1 -2.14768,-2.14926 v -2.42465 a 2.1492637,2.1492637 0 0 1 2.14768,-2.15243 z"
     id="path8263"
     inkscape:connector-curvature="0"
     style="fill:#ededed;stroke-width:1" />
  <rect
     class="cls-19"
     x="251.86662"
     y="193.09723"
     width="35.412205"
     height="0.59350067"
     id="rect8265"
     style="fill:#9ca4ae;stroke-width:1" />
  <rect
     class="cls-19"
     x="251.86662"
     y="194.79858"
     width="35.412205"
     height="0.59350067"
     id="rect8267"
     style="fill:#9ca4ae;stroke-width:1" />
  <rect
     class="cls-19"
     x="251.86662"
     y="196.49997"
     width="35.412205"
     height="0.59350067"
     id="rect8269"
     style="fill:#9ca4ae;stroke-width:1" />
  <path
     class="cls-20"
     d="m 287.27569,199.59881 v 9.00538 H 246.4745 a 2.3249399,2.3249399 0 0 1 -2.32494,-2.32494 v -4.35075 a 2.3249399,2.3249399 0 0 1 2.32494,-2.32494 h 40.80119 z"
     id="path8271"
     inkscape:connector-curvature="0"
     style="fill:#00b3d8;stroke-width:1" />
  <path
     class="cls-13"
     d="m 287.27569,200.73833 v 6.72951 h -37.0202 a 2.147681,2.147681 0 0 1 -2.14768,-2.14927 v -2.42781 a 2.1492637,2.1492637 0 0 1 2.14768,-2.15243 z"
     id="path8273"
     inkscape:connector-curvature="0"
     style="fill:#ededed;stroke-width:1" />
  <rect
     class="cls-19"
     x="251.86662"
     y="202.10263"
     width="35.412205"
     height="0.59350067"
     id="rect8275"
     style="fill:#9ca4ae;stroke-width:1" />
  <rect
     class="cls-19"
     x="251.86662"
     y="203.80396"
     width="35.412205"
     height="0.59350067"
     id="rect8277"
     style="fill:#9ca4ae;stroke-width:1" />
  <rect
     class="cls-19"
     x="251.86662"
     y="205.50534"
     width="35.412205"
     height="0.59350067"
     id="rect8279"
     style="fill:#9ca4ae;stroke-width:1" />
  <path
     class="cls-8"
     d="m 322.3318,191.95769 v -5.61848 h -17.03268 v 22.55303 h 17.03268 v -3.45338 a 6.740585,6.740585 0 0 0 0,-13.48117 z m 0,10.70675 v -7.93233 a 3.968541,3.968541 0 0 1 0,7.93708 z"
     id="path8281"
     inkscape:connector-curvature="0"
     style="fill:#383851;stroke-width:1" />
</svg>
