<?xml version="1.0" encoding="UTF-8" standalone="no"?>
<!-- Created with Inkscape (http://www.inkscape.org/) -->

<svg
   xmlns:dc="http://purl.org/dc/elements/1.1/"
   xmlns:cc="http://creativecommons.org/ns#"
   xmlns:rdf="http://www.w3.org/1999/02/22-rdf-syntax-ns#"
   xmlns:svg="http://www.w3.org/2000/svg"
   xmlns="http://www.w3.org/2000/svg"
   xmlns:xlink="http://www.w3.org/1999/xlink"
   xmlns:sodipodi="http://sodipodi.sourceforge.net/DTD/sodipodi-0.dtd"
   xmlns:inkscape="http://www.inkscape.org/namespaces/inkscape"
   width="208.64285mm"
   height="34.773811mm"
   viewBox="0 0 208.64285 34.773812"
   version="1.1"
   id="svg8"
   inkscape:version="0.92.4 (5da689c313, 2019-01-14)"
   sodipodi:docname="lightbox-header.svg">
  <defs
     id="defs2">
    <clipPath
       clipPathUnits="userSpaceOnUse"
       id="clipPath1646">
      <path
         style="fill:none;stroke:#000000;stroke-width:1px;stroke-linecap:butt;stroke-linejoin:miter;stroke-opacity:1"
         d="m -1512.2443,-1632.9085 h -988.216 v 286.056 h 172.1176 v 318.8409 h 276.517 v 67.71845 h 158.0096 v 118.50725 l 379.8332,0.87366 z"
         id="path1648"
         inkscape:connector-curvature="0"
         sodipodi:nodetypes="ccccccccccc" />
    </clipPath>
    <clipPath
       clipPathUnits="userSpaceOnUse"
       id="clipPath1646-4">
      <path
         style="fill:none;stroke:#000000;stroke-width:1px;stroke-linecap:butt;stroke-linejoin:miter;stroke-opacity:1"
         d="m -1512.2443,-1632.9085 h -988.216 v 286.056 h 172.1176 v 318.8409 h 276.517 v 67.71845 h 158.0096 v 118.50725 l 379.8332,0.87366 z"
         id="path1648-7"
         inkscape:connector-curvature="0"
         sodipodi:nodetypes="ccccccccccc" />
    </clipPath>
    <linearGradient
       id="linearGradient4318"
       inkscape:collect="always">
      <stop
         id="stop4314"
         offset="0"
         style="stop-color:#325fa2;stop-opacity:1;" />
      <stop
         style="stop-color:#2d65c0;stop-opacity:1"
         offset="0.29245761"
         id="stop4862" />
      <stop
         id="stop4316"
         offset="1"
         style="stop-color:#4178d2;stop-opacity:1" />
    </linearGradient>
    <clipPath
       id="clipPath6031"
       clipPathUnits="userSpaceOnUse">
      <path
         inkscape:connector-curvature="0"
         id="path6033"
         d="m -330.97342,196.03003 h 169.40392 v -28.85746 h 72.143624 V 69.377884 h 44.889362 V -4.3689314 H 27.607132 V -41.242341 H -331.50782 Z"
         style="fill:none;stroke:#000000;stroke-width:0.26458332px;stroke-linecap:butt;stroke-linejoin:miter;stroke-opacity:1" />
    </clipPath>
    <clipPath
       id="clipPath6031-3"
       clipPathUnits="userSpaceOnUse">
      <path
         inkscape:connector-curvature="0"
         id="path6033-6"
         d="m -330.97342,196.03003 h 169.40392 v -28.85746 h 72.143624 V 69.377884 h 44.889362 V -4.3689314 H 27.607132 V -41.242341 H -331.50782 Z"
         style="fill:none;stroke:#000000;stroke-width:0.26458332px;stroke-linecap:butt;stroke-linejoin:miter;stroke-opacity:1" />
    </clipPath>
    <clipPath
       id="clipPath6031-6"
       clipPathUnits="userSpaceOnUse">
      <path
         inkscape:connector-curvature="0"
         id="path6033-4"
         d="m -330.97342,196.03003 h 169.40392 v -28.85746 h 72.143624 V 69.377884 h 44.889362 V -4.3689314 H 27.607132 V -41.242341 H -331.50782 Z"
         style="fill:none;stroke:#000000;stroke-width:0.26458332px;stroke-linecap:butt;stroke-linejoin:miter;stroke-opacity:1" />
    </clipPath>
    <linearGradient
       inkscape:collect="always"
       xlink:href="#linearGradient4318"
       id="linearGradient7835"
       x1="301.62155"
       y1="-65.09774"
       x2="303.88937"
       y2="-17.472742"
       gradientUnits="userSpaceOnUse"
       gradientTransform="translate(1.5119107,1.4226205)" />
  </defs>
  <sodipodi:namedview
     id="base"
     pagecolor="#ffffff"
     bordercolor="#666666"
     borderopacity="1.0"
     inkscape:pageopacity="0.0"
     inkscape:pageshadow="2"
     inkscape:zoom="0.7"
     inkscape:cx="75.847947"
     inkscape:cy="-66.979373"
     inkscape:document-units="mm"
     inkscape:current-layer="layer1-3"
     showgrid="false"
     inkscape:window-width="1920"
     inkscape:window-height="1017"
     inkscape:window-x="-8"
     inkscape:window-y="-8"
     inkscape:window-maximized="1" />
  <metadata
     id="metadata5">
    <rdf:RDF>
      <cc:Work
         rdf:about="">
        <dc:format>image/svg+xml</dc:format>
        <dc:type
           rdf:resource="http://purl.org/dc/dcmitype/StillImage" />
        <dc:title />
      </cc:Work>
    </rdf:RDF>
  </metadata>
  <g
     inkscape:label="Layer 1"
     inkscape:groupmode="layer"
     id="layer1"
     transform="translate(-1.5119107,-1.4226205)">
    <g
       transform="translate(-200.32392,58.96084)"
       id="layer1-3"
       inkscape:label="Layer 1">
      <rect
         style="opacity:0.98000004;fill:url(#linearGradient7835);fill-opacity:1;stroke:none;stroke-width:1;stroke-miterlimit:4;stroke-dasharray:none;stroke-opacity:0.98039216"
         id="rect7827"
         width="215.06845"
         height="34.773811"
         x="198.43405"
         y="-57.538219" />
      <rect
         style="fill:none;fill-opacity:1;stroke:none;stroke-width:2.22326946;stroke-linejoin:round;stroke-miterlimit:4;stroke-dasharray:none;stroke-opacity:1"
         id="rect1665"
         width="508"
         height="285.75003"
         x="-328.84274"
         y="-37.883472"
         inkscape:export-filename="D:\Users\Lyosha\Desktop\evolo-landing-page\web\images\rect1665.png"
         inkscape:export-xdpi="96"
         inkscape:export-ydpi="96" />
      <path
         style="fill:#ffffff;stroke-width:0.31295687"
         id="path2457-9-9-7-2"
         d="m 364.06489,-28.058192 0.15108,-0.415724 0.15108,0.415724 a 1.5111205,1.4514472 0 0 0 0.83936,0.820855 v 0 a 1.5107964,1.4511359 0 0 0 -0.83936,0.820867 l -0.15108,0.415712 -0.15108,-0.415712 a 1.5111205,1.4514472 0 0 0 -0.84067,-0.820549 v 0 a 1.5111205,1.4514472 0 0 0 0.84067,-0.821173 z"
         class="cls-8"
         inkscape:connector-curvature="0" />
      <path
         style="fill:#ffffff;stroke-width:0.53789026"
         id="path2457-9-9-1-6"
         d="m 355.39453,-35.376765 0.28951,-0.640876 0.28949,0.640876 a 2.8956659,2.2375369 0 0 0 1.60844,1.265422 v 0 a 2.8950447,2.2370569 0 0 0 -1.60844,1.26544 l -0.28949,0.640859 -0.28951,-0.640859 a 2.8956659,2.2375369 0 0 0 -1.6109,-1.264949 v 0 a 2.8956659,2.2375369 0 0 0 1.6109,-1.265913 z"
         class="cls-8"
         inkscape:connector-curvature="0" />
      <path
         style="fill:#ffffff;stroke-width:0.424602"
         id="path2457-9-9-72-2"
         d="m 309.44651,-36.064735 0.20497,-0.564031 0.20497,0.564031 a 2.0502021,1.9692407 0 0 0 1.13881,1.113688 v 0 a 2.0497622,1.9688182 0 0 0 -1.13881,1.113706 l -0.20497,0.564013 -0.20497,-0.564013 a 2.0502021,1.9692407 0 0 0 -1.14057,-1.113275 v 0 a 2.0502021,1.9692407 0 0 0 1.14057,-1.114119 z"
         class="cls-8"
         inkscape:connector-curvature="0" />
      <path
         style="fill:#ffffff;stroke-width:0.38645321"
         id="path2457-9-9-26-6"
         d="m 252.70241,-35.032485 0.16761,-0.57142 0.16759,0.57142 a 1.6763831,1.9950416 0 0 0 0.93117,1.12828 v 0 a 1.6760234,1.9946135 0 0 0 -0.93117,1.128294 l -0.16759,0.571405 -0.16761,-0.571405 a 1.6763831,1.9950416 0 0 0 -0.9326,-1.127854 v 0 a 1.6763831,1.9950416 0 0 0 0.9326,-1.12872 z"
         class="cls-8"
         inkscape:connector-curvature="0" />
      <path
         style="fill:#ffffff;stroke-width:0.52787626"
         id="path2457-9-9-9-7"
         d="m 223.51104,-40.122772 0.25484,-0.701218 0.25482,0.701218 a 2.5488645,2.4482111 0 0 0 1.4158,1.384568 v 0 a 2.5483176,2.4476859 0 0 0 -1.4158,1.384586 l -0.25482,0.701198 -0.25484,-0.701198 a 2.5488645,2.4482111 0 0 0 -1.41797,-1.384051 v 0 a 2.5488645,2.4482111 0 0 0 1.41797,-1.385103 z"
         class="cls-8"
         inkscape:connector-curvature="0" />
      <path
         style="fill:#ffffff;stroke-width:0.44143978"
         id="path2457-9-96"
         d="m 267.83052,-51.490984 -0.18429,0.595336 -0.24145,-0.576167 a 2.1315037,2.0473317 0 0 0 -1.23912,-1.103332 v 0 a 2.1310464,2.0468925 0 0 0 1.12622,-1.209852 l 0.18428,-0.595323 0.24146,0.576153 a 2.1315037,2.0473317 0 0 0 1.24092,1.10282 v 0 a 2.1315037,2.0473317 0 0 0 -1.12802,1.210365 z"
         class="cls-8"
         inkscape:connector-curvature="0" />
      <path
         style="fill:#ffffff;stroke-width:0.75684762"
         id="path2457-9-9-72-8-1"
         d="m 383.95796,-46.155516 -0.31596,1.02071 -0.41395,-0.98784 a 3.6544588,3.5101461 0 0 0 -2.12448,-1.89167 v 0 a 3.6536748,3.509393 0 0 0 1.93092,-2.07429 l 0.31594,-1.020678 0.41397,0.987822 a 3.6544588,3.5101461 0 0 0 2.12756,1.890776 v 0 a 3.6544588,3.5101461 0 0 0 -1.934,2.07517 z"
         class="cls-8"
         inkscape:connector-curvature="0" />
    </g>
  </g>
</svg>
