<?xml version="1.0" encoding="UTF-8" standalone="no"?>
<!-- Created with Inkscape (http://www.inkscape.org/) -->

<svg
   xmlns:dc="http://purl.org/dc/elements/1.1/"
   xmlns:cc="http://creativecommons.org/ns#"
   xmlns:rdf="http://www.w3.org/1999/02/22-rdf-syntax-ns#"
   xmlns:svg="http://www.w3.org/2000/svg"
   xmlns="http://www.w3.org/2000/svg"
   xmlns:sodipodi="http://sodipodi.sourceforge.net/DTD/sodipodi-0.dtd"
   xmlns:inkscape="http://www.inkscape.org/namespaces/inkscape"
   width="286.97742mm"
   height="144.64943mm"
   viewBox="0 0 286.97742 144.64943"
   version="1.1"
   id="svg8"
   inkscape:version="0.92.4 (5da689c313, 2019-01-14)"
   sodipodi:docname="solution-3.svg">
  <defs
     id="defs2">
    <inkscape:perspective
       id="perspective18024"
       inkscape:persp3d-origin="131.70185 : 65.544548 : 1"
       inkscape:vp_z="263.40369 : 98.316823 : 1"
       inkscape:vp_y="0 : 1000.0001 : 0"
       inkscape:vp_x="0 : 98.316823 : 1"
       sodipodi:type="inkscape:persp3d" />
    <inkscape:perspective
       sodipodi:type="inkscape:persp3d"
       inkscape:vp_x="0 : 98.316825 : 1"
       inkscape:vp_y="0 : 1000.0001 : 0"
       inkscape:vp_z="263.40371 : 98.316825 : 1"
       inkscape:persp3d-origin="131.70186 : 65.544549 : 1"
       id="perspective18024-5" />
  </defs>
  <sodipodi:namedview
     id="base"
     pagecolor="#ffffff"
     bordercolor="#666666"
     borderopacity="1.0"
     inkscape:pageopacity="0.0"
     inkscape:pageshadow="2"
     inkscape:zoom="0.7"
     inkscape:cx="423.18354"
     inkscape:cy="304.98605"
     inkscape:document-units="mm"
     inkscape:current-layer="layer1-2"
     showgrid="false"
     inkscape:snap-global="false"
     inkscape:window-width="1920"
     inkscape:window-height="1017"
     inkscape:window-x="-8"
     inkscape:window-y="-8"
     inkscape:window-maximized="1" />
  <metadata
     id="metadata5">
    <rdf:RDF>
      <cc:Work
         rdf:about="">
        <dc:format>image/svg+xml</dc:format>
        <dc:type
           rdf:resource="http://purl.org/dc/dcmitype/StillImage" />
        <dc:title />
      </cc:Work>
    </rdf:RDF>
  </metadata>
  <g
     inkscape:label="Layer 1"
     inkscape:groupmode="layer"
     id="layer1"
     transform="translate(6.661322,-118.84196)">
    <g
       transform="translate(78.524371,70.78878)"
       id="layer1-2"
       inkscape:label="Layer 1">
      <g
         style="stroke-width:6.08495712"
         transform="matrix(0.04348154,0,0,0.04348154,-38.745413,148.672)"
         id="g13183">
        <path
           style="fill:#babac0;stroke-width:6.08495712"
           inkscape:connector-curvature="0"
           d="m 484.333,256 c 0,-19.732 -2.515,-39.248 -7.485,-58.162 l 28.9,-21.26 -56.093,-97.155 -32.912,14.42 C 388.604,65.905 354.148,45.996 316.054,35.663 L 312.092,0 H 256 L 234.667,256 256,512 h 56.092 l 3.962,-35.663 c 38.095,-10.333 72.551,-30.242 100.689,-58.18 l 32.912,14.42 56.093,-97.155 -28.9,-21.26 c 4.971,-18.914 7.485,-38.43 7.485,-58.162 z"
           id="path13152" />
        <path
           style="fill:#d8d8d8;stroke-width:6.08495712"
           inkscape:connector-curvature="0"
           d="m 199.908,0 -3.962,35.662 C 157.851,45.995 123.395,65.904 95.257,93.842 l -32.912,-14.42 -56.094,97.155 28.9,21.26 c -4.971,18.914 -7.485,38.431 -7.485,58.162 0,19.731 2.515,39.248 7.485,58.162 l -28.9,21.26 56.093,97.155 32.912,-14.42 c 28.139,27.938 62.595,47.847 100.689,58.18 L 199.908,512 H 256 V 0 Z"
           id="path13154" />
        <path
           style="fill:#ececf1;stroke-width:6.08495712"
           inkscape:connector-curvature="0"
           d="M 256,85.333 233.245,256 256,426.667 c 94.257,0 170.667,-76.41 170.667,-170.667 0,-94.257 -76.41,-170.667 -170.667,-170.667 z"
           id="path13156" />
        <path
           style="fill:#ffffff;stroke-width:6.08495712"
           inkscape:connector-curvature="0"
           d="m 85.333,256 c 0,94.257 76.41,170.667 170.667,170.667 V 85.333 C 161.743,85.333 85.333,161.743 85.333,256 Z"
           id="path13158" />
        <path
           style="fill:#12b0ff;stroke-width:6.08495712"
           inkscape:connector-curvature="0"
           d="m 176.171,311.551 -56.018,-54.862 54.861,-56.019 21.434,20.99 -33.871,34.586 34.585,33.872 z"
           id="path13160" />
        <path
           style="fill:#0093fd;stroke-width:6.08495712"
           inkscape:connector-curvature="0"
           d="m 335.829,311.552 -20.991,-21.434 34.586,-33.872 -33.872,-34.586 21.434,-20.99 54.862,56.019 z"
           id="path13162" />
        <path
           style="fill:#fc3636;stroke-width:6.08495712"
           inkscape:connector-curvature="0"
           d="M 292.012,157.757 262.655,151.576 256,183.186 245.333,288 256,328.813 Z"
           id="path13164" />
        <path
           style="fill:#fc5b3f;stroke-width:6.08495712"
           inkscape:connector-curvature="0"
           d="M 249.345,360.423 256,328.813 V 183.186 l -36.012,171.057 z"
           id="path13166" />
      </g>
      <g
         style="fill:#333333;stroke-width:0.79642516"
         transform="matrix(0.33221369,0,0,0.33221369,-37.801985,122.85706)"
         id="g13591">
        <g
           style="fill:#333333;stroke-width:0.79642516"
           id="g13530">
          <path
             style="fill:#333333;stroke-width:0.79642516"
             inkscape:connector-curvature="0"
             d="m 42.5,22 h -25 c -0.552,0 -1,0.447 -1,1 0,0.553 0.448,1 1,1 h 25 c 0.552,0 1,-0.447 1,-1 0,-0.553 -0.448,-1 -1,-1 z"
             id="path13518" />
          <path
             style="fill:#333333;stroke-width:0.79642516"
             inkscape:connector-curvature="0"
             d="m 17.5,16 h 10 c 0.552,0 1,-0.447 1,-1 0,-0.553 -0.448,-1 -1,-1 h -10 c -0.552,0 -1,0.447 -1,1 0,0.553 0.448,1 1,1 z"
             id="path13520" />
          <path
             style="fill:#333333;stroke-width:0.79642516"
             inkscape:connector-curvature="0"
             d="m 42.5,30 h -25 c -0.552,0 -1,0.447 -1,1 0,0.553 0.448,1 1,1 h 25 c 0.552,0 1,-0.447 1,-1 0,-0.553 -0.448,-1 -1,-1 z"
             id="path13522" />
          <path
             style="fill:#333333;stroke-width:0.79642516"
             inkscape:connector-curvature="0"
             d="m 42.5,38 h -25 c -0.552,0 -1,0.447 -1,1 0,0.553 0.448,1 1,1 h 25 c 0.552,0 1,-0.447 1,-1 0,-0.553 -0.448,-1 -1,-1 z"
             id="path13524" />
          <path
             style="fill:#333333;stroke-width:0.79642516"
             inkscape:connector-curvature="0"
             d="m 42.5,46 h -25 c -0.552,0 -1,0.447 -1,1 0,0.553 0.448,1 1,1 h 25 c 0.552,0 1,-0.447 1,-1 0,-0.553 -0.448,-1 -1,-1 z"
             id="path13526" />
          <path
             style="fill:#333333;stroke-width:0.79642516"
             inkscape:connector-curvature="0"
             d="M 38.914,0 H 6.5 v 60 h 47 V 14.586 Z M 39.5,3.414 50.086,14 H 39.5 Z M 8.5,58 V 2 h 29 v 14 h 14 v 42 z"
             id="path13528" />
        </g>
        <g
           style="fill:#333333;stroke-width:0.79642516"
           id="g13532" />
        <g
           style="fill:#333333;stroke-width:0.79642516"
           id="g13534" />
        <g
           style="fill:#333333;stroke-width:0.79642516"
           id="g13536" />
        <g
           style="fill:#333333;stroke-width:0.79642516"
           id="g13538" />
        <g
           style="fill:#333333;stroke-width:0.79642516"
           id="g13540" />
        <g
           style="fill:#333333;stroke-width:0.79642516"
           id="g13542" />
        <g
           style="fill:#333333;stroke-width:0.79642516"
           id="g13544" />
        <g
           style="fill:#333333;stroke-width:0.79642516"
           id="g13546" />
        <g
           style="fill:#333333;stroke-width:0.79642516"
           id="g13548" />
        <g
           style="fill:#333333;stroke-width:0.79642516"
           id="g13550" />
        <g
           style="fill:#333333;stroke-width:0.79642516"
           id="g13552" />
        <g
           style="fill:#333333;stroke-width:0.79642516"
           id="g13554" />
        <g
           style="fill:#333333;stroke-width:0.79642516"
           id="g13556" />
        <g
           style="fill:#333333;stroke-width:0.79642516"
           id="g13558" />
        <g
           style="fill:#333333;stroke-width:0.79642516"
           id="g13560" />
      </g>
      <g
         style="stroke-width:7.43518066"
         transform="matrix(0.03558532,0,0,0.03558532,-37.844503,95.593303)"
         id="g13752"
         inkscape:transform-center-x="-0.36431806"
         inkscape:transform-center-y="-12.751138">
        <path
           inkscape:connector-curvature="0"
           style="fill:#dfeaef;stroke-width:7.43518066"
           d="m 20.757,53.941 v 403.6 c 0,29.791 105.322,53.941 235.243,53.941 129.921,0 235.243,-24.15 235.243,-53.941 v -403.6 c 0,0 -470.486,0 -470.486,0 z"
           id="path13658" />
        <path
           inkscape:connector-curvature="0"
           style="fill:#bfcfd6;stroke-width:7.43518066"
           d="m 437.492,53.941 v 134.533 0 c 0,27.706 -91.105,50.53 -208.368,53.588 8.822,0.23 17.786,0.352 26.875,0.352 73.063,0 138.345,-7.638 181.492,-19.621 v 100.213 c 0,27.706 -91.105,50.53 -208.368,53.588 8.822,0.23 17.786,0.353 26.875,0.353 73.063,0 138.345,-7.638 181.492,-19.621 v 100.731 c 0,27.706 -91.105,50.53 -208.368,53.588 8.824,0.233 17.788,0.355 26.878,0.355 129.921,0 235.243,-24.15 235.243,-53.941 V 323.526 h -0.029 c 0.007,-0.173 0.029,-0.345 0.029,-0.518 v -134.534 0 -134.533 z"
           id="path13660" />
        <g
           style="stroke-width:7.43518066"
           id="g13668">
          <path
             inkscape:connector-curvature="0"
             style="fill:#86aebc;stroke-width:7.43518066"
             d="m 256,226.711 c -129.921,0 -235.243,-24.15 -235.243,-53.941 v 15.704 c 0,29.791 105.322,53.941 235.243,53.941 129.921,0 235.243,-24.15 235.243,-53.941 V 172.77 c 0,29.791 -105.322,53.941 -235.243,53.941 z"
             id="path13662" />
          <path
             inkscape:connector-curvature="0"
             style="fill:#86aebc;stroke-width:7.43518066"
             d="m 256,361.241 c -129.921,0 -235.243,-24.15 -235.243,-53.941 v 15.704 c 0,29.791 105.322,53.941 235.243,53.941 129.921,0 235.243,-24.15 235.243,-53.941 V 307.3 c 0,29.791 -105.322,53.941 -235.243,53.941 z"
             id="path13664" />
          <path
             inkscape:connector-curvature="0"
             style="fill:#86aebc;stroke-width:7.43518066"
             d="m 256,495.801 c -129.921,0 -235.243,-24.15 -235.243,-53.941 v 15.704 c 0,29.791 105.322,53.941 235.243,53.941 129.921,0 235.243,-24.15 235.243,-53.941 V 441.86 c 0,29.791 -105.322,53.941 -235.243,53.941 z"
             id="path13666" />
        </g>
        <ellipse
           style="fill:#9ebecc;stroke-width:7.43518066"
           cx="256"
           cy="53.941002"
           rx="235.24001"
           ry="53.941002"
           id="ellipse13670" />
        <path
           inkscape:connector-curvature="0"
           style="fill:#86aebc;stroke-width:7.43518066"
           d="m 256,0 c -9.09,0 -18.054,0.122 -26.875,0.352 117.262,3.059 208.368,25.882 208.368,53.588 0,27.706 -91.105,50.53 -208.368,53.588 8.821,0.23 17.785,0.352 26.875,0.352 129.921,0 235.243,-24.15 235.243,-53.941 C 491.243,24.15 385.921,0 256,0 Z"
           id="path13672" />
        <circle
           style="fill:#fc9f3d;stroke-width:7.43518066"
           cx="398.87"
           cy="162.28999"
           r="22.385"
           id="circle13674" />
        <path
           inkscape:connector-curvature="0"
           style="fill:#9ebecc;stroke-width:7.43518066"
           d="m 256,183.327 c -64.447,0 -124.835,-5.843 -170.039,-16.452 -4.152,-0.974 -6.729,-5.131 -5.754,-9.284 0.975,-4.153 5.139,-6.725 9.284,-5.754 44.081,10.346 103.216,16.043 166.51,16.043 26.512,0 52.515,-1.011 77.288,-3.004 4.253,-0.342 7.975,2.828 8.317,7.078 0.342,4.252 -2.827,7.975 -7.078,8.317 -25.184,2.028 -51.605,3.056 -78.528,3.056 z"
           id="path13676" />
        <circle
           style="fill:#fc9f3d;stroke-width:7.43518066"
           cx="398.87"
           cy="295.04999"
           r="22.385"
           id="circle13678" />
        <path
           inkscape:connector-curvature="0"
           style="fill:#9ebecc;stroke-width:7.43518066"
           d="m 256,316.09 c -64.443,0 -124.831,-5.843 -170.039,-16.452 -4.152,-0.974 -6.729,-5.131 -5.754,-9.284 0.975,-4.154 5.132,-6.725 9.284,-5.754 44.085,10.346 103.22,16.043 166.51,16.043 26.512,0 52.515,-1.011 77.288,-3.004 4.274,-0.356 7.975,2.828 8.317,7.078 0.342,4.252 -2.827,7.975 -7.078,8.317 -25.184,2.029 -51.605,3.056 -78.528,3.056 z"
           id="path13680" />
        <circle
           style="fill:#fc9f3d;stroke-width:7.43518066"
           cx="398.87"
           cy="428.01999"
           r="22.385"
           id="circle13682" />
        <path
           inkscape:connector-curvature="0"
           style="fill:#9ebecc;stroke-width:7.43518066"
           d="m 256,449.055 c -64.447,0 -124.835,-5.843 -170.039,-16.452 -4.152,-0.974 -6.729,-5.131 -5.754,-9.284 0.975,-4.153 5.139,-6.723 9.284,-5.754 44.081,10.346 103.216,16.043 166.51,16.043 26.512,0 52.515,-1.011 77.288,-3.004 4.253,-0.35 7.975,2.827 8.317,7.078 0.342,4.252 -2.827,7.975 -7.078,8.317 -25.184,2.028 -51.605,3.056 -78.528,3.056 z"
           id="path13684" />
        <g
           style="stroke-width:7.43518066"
           id="g13686" />
        <g
           style="stroke-width:7.43518066"
           id="g13688" />
        <g
           style="stroke-width:7.43518066"
           id="g13690" />
        <g
           style="stroke-width:7.43518066"
           id="g13692" />
        <g
           style="stroke-width:7.43518066"
           id="g13694" />
        <g
           style="stroke-width:7.43518066"
           id="g13696" />
        <g
           style="stroke-width:7.43518066"
           id="g13698" />
        <g
           style="stroke-width:7.43518066"
           id="g13700" />
        <g
           style="stroke-width:7.43518066"
           id="g13702" />
        <g
           style="stroke-width:7.43518066"
           id="g13704" />
        <g
           style="stroke-width:7.43518066"
           id="g13706" />
        <g
           style="stroke-width:7.43518066"
           id="g13708" />
        <g
           style="stroke-width:7.43518066"
           id="g13710" />
        <g
           style="stroke-width:7.43518066"
           id="g13712" />
        <g
           style="stroke-width:7.43518066"
           id="g13714" />
      </g>
      <g
         id="g2297"
         transform="matrix(0.04178762,0,0,0.04178762,-40.325051,65.454928)"
         style="stroke-width:6.52271509">
        <path
           id="path2269"
           d="M 373.904,0 H 123.096 C 81.644,0 48.04,33.604 48.04,75.056 v 346.887 c 0,41.452 33.604,75.056 75.056,75.056 h 250.807 c 41.452,0 75.056,-33.604 75.056,-75.056 V 75.056 C 448.96,33.604 415.356,0 373.904,0 Z"
           inkscape:connector-curvature="0"
           style="fill:#5c586f;stroke-width:6.52271509" />
        <path
           id="path2271"
           d="M 122.779,228.582 C 122.779,139.504 139.635,58.793 181.397,0 h -58.3 C 81.644,0 48.04,33.604 48.04,75.056 v 346.888 c 0,41.453 33.604,75.056 75.056,75.056 h 117.86 C 169.583,438.286 122.779,339.974 122.779,228.582 Z"
           inkscape:connector-curvature="0"
           style="fill:#4f4c5f;stroke-width:6.52271509" />
        <path
           id="path2273"
           d="m 123.096,397.436 c -8.446,0 -15.318,-6.871 -15.318,-15.318 V 75.056 c 0,-8.446 6.872,-15.318 15.318,-15.318 h 250.807 c 8.446,0 15.318,6.872 15.318,15.318 v 307.062 c 0,8.446 -6.871,15.318 -15.318,15.318 z"
           inkscape:connector-curvature="0"
           style="fill:#78cbec;stroke-width:6.52271509" />
        <circle
           id="circle2275"
           r="78.925003"
           cy="275.383"
           cx="248.5"
           style="fill:#ff748f;stroke-width:6.52271509" />
        <path
           id="path2277"
           d="m 268.5,334.308 c -43.589,0 -78.925,-35.336 -78.925,-78.925 0,-16.686 5.191,-32.151 14.027,-44.898 -20.555,14.248 -34.027,37.994 -34.027,64.898 0,43.589 35.336,78.925 78.925,78.925 26.904,0 50.65,-13.472 64.898,-34.027 -12.747,8.836 -28.213,14.027 -44.898,14.027 z"
           inkscape:connector-curvature="0"
           style="fill:#fd5f7e;stroke-width:6.52271509" />
        <path
           id="path2279"
           d="M 284.839,264.019 239.462,241.33 c -8.448,-4.224 -18.387,1.919 -18.387,11.364 v 45.377 c 0,9.445 9.94,15.588 18.387,11.364 l 45.377,-22.689 c 9.365,-4.682 9.365,-18.045 0,-22.727 z"
           inkscape:connector-curvature="0"
           style="fill:#ffffff;stroke-width:6.52271509" />
        <circle
           id="circle2281"
           r="21.386999"
           cy="447.21799"
           cx="248.5"
           style="fill:#4f4c5f;stroke-width:6.52271509" />
        <circle
           id="circle2283"
           r="6.6100001"
           cy="29.868999"
           cx="248.5"
           style="fill:#4f4c5f;stroke-width:6.52271509" />
        <g
           id="g2293"
           style="fill:#ffffff;stroke-width:6.52271509">
          <path
             id="path2285"
             d="m 181.632,154.848 c -0.015,0 -0.028,0 -0.043,0 -4.987,0.028 -10.338,0.048 -14.465,0.052 V 99.554 c 0,-4.142 -3.357,-7.5 -7.5,-7.5 -4.143,0 -7.5,3.358 -7.5,7.5 v 62.794 c 0,3.654 2.633,6.776 6.234,7.393 1.667,0.286 20.013,0.126 23.314,0.107 4.142,-0.023 7.481,-3.4 7.458,-7.542 -0.022,-4.128 -3.375,-7.458 -7.498,-7.458 z"
             inkscape:connector-curvature="0"
             style="stroke-width:6.52271509" />
          <path
             id="path2287"
             d="m 209.803,92.054 c -4.143,0 -7.5,3.358 -7.5,7.5 v 62.847 c 0,4.142 3.357,7.5 7.5,7.5 4.143,0 7.5,-3.358 7.5,-7.5 V 99.554 c 0,-4.142 -3.357,-7.5 -7.5,-7.5 z"
             inkscape:connector-curvature="0"
             style="stroke-width:6.52271509" />
          <path
             id="path2289"
             d="m 337.376,154.901 h -18.739 v -16.136 h 16.805 c 4.143,0 7.5,-3.358 7.5,-7.5 0,-4.142 -3.357,-7.5 -7.5,-7.5 h -16.805 v -16.137 h 18.739 c 4.143,0 7.5,-3.357 7.5,-7.5 0,-4.142 -3.357,-7.5 -7.5,-7.5 h -26.239 c -4.143,0 -7.5,3.358 -7.5,7.5 v 62.273 c 0,4.142 3.357,7.5 7.5,7.5 h 26.239 c 4.143,0 7.5,-3.358 7.5,-7.5 0,-4.142 -3.358,-7.5 -7.5,-7.5 z"
             inkscape:connector-curvature="0"
             style="stroke-width:6.52271509" />
          <path
             id="path2291"
             d="m 285.696,92.552 c -3.927,-1.306 -8.176,0.822 -9.481,4.753 L 261.343,142.072 245.73,97.095 c -1.358,-3.913 -5.635,-5.984 -9.544,-4.626 -3.913,1.358 -5.984,5.632 -4.626,9.545 l 21.505,61.955 c 1.264,3.555 4.635,5.933 8.403,5.933 h 0.063 c 3.793,-0.026 7.161,-2.457 8.397,-6.097 l 20.521,-61.77 c 1.306,-3.931 -0.822,-8.177 -4.753,-9.483 z"
             inkscape:connector-curvature="0"
             style="stroke-width:6.52271509" />
        </g>
        <path
           id="path2295"
           d="m 122.779,228.582 c 0,-61.817 8.11,-119.61 27.03,-168.843 h -26.713 c -8.446,0 -15.318,6.872 -15.318,15.318 v 307.062 c 0,8.446 6.872,15.318 15.318,15.318 H 162.22 C 137.192,348.201 122.779,290.403 122.779,228.582 Z"
           inkscape:connector-curvature="0"
           style="fill:#34b5e1;stroke-width:6.52271509" />
      </g>
      <text
         id="text13766-9-4-1"
         y="118.79124"
         x="-57.452282"
         style="font-style:normal;font-variant:normal;font-weight:bold;font-stretch:normal;font-size:6.15844202px;line-height:1.25;font-family:sans-serif;-inkscape-font-specification:'sans-serif, Bold';font-variant-ligatures:normal;font-variant-caps:normal;font-variant-numeric:normal;font-feature-settings:normal;text-align:center;letter-spacing:0px;word-spacing:0px;writing-mode:lr-tb;text-anchor:middle;fill:#666666;fill-opacity:1;stroke:none;stroke-width:0.26458332"
         xml:space="preserve"><tspan
           style="font-style:normal;font-variant:normal;font-weight:bold;font-stretch:normal;font-size:6.15844202px;font-family:sans-serif;-inkscape-font-specification:'sans-serif, Bold';font-variant-ligatures:normal;font-variant-caps:normal;font-variant-numeric:normal;font-feature-settings:normal;text-align:center;writing-mode:lr-tb;text-anchor:middle;opacity:0.98000004;fill:#666666;stroke-width:0.26458332"
           y="118.79124"
           x="-57.452282"
           sodipodi:role="line"
           id="tspan2344">Databases</tspan></text>
      <text
         id="text13766-9-4-5"
         y="146.22507"
         x="-59.010048"
         style="font-style:normal;font-variant:normal;font-weight:bold;font-stretch:normal;font-size:6.15844202px;line-height:1.25;font-family:sans-serif;-inkscape-font-specification:'sans-serif, Bold';font-variant-ligatures:normal;font-variant-caps:normal;font-variant-numeric:normal;font-feature-settings:normal;text-align:center;letter-spacing:0px;word-spacing:0px;writing-mode:lr-tb;text-anchor:middle;fill:#666666;fill-opacity:1;stroke:none;stroke-width:0.26458332"
         xml:space="preserve"><tspan
           style="font-style:normal;font-variant:normal;font-weight:bold;font-stretch:normal;font-size:6.15844202px;font-family:sans-serif;-inkscape-font-specification:'sans-serif, Bold';font-variant-ligatures:normal;font-variant-caps:normal;font-variant-numeric:normal;font-feature-settings:normal;text-align:center;writing-mode:lr-tb;text-anchor:middle;opacity:0.98000004;fill:#666666;stroke-width:0.26458332"
           id="tspan13819-0"
           y="146.22507"
           x="-59.010048"
           sodipodi:role="line">Files</tspan></text>
      <text
         id="text13766-9-5-4-5"
         y="61.42675"
         x="-51.92662"
         style="font-style:normal;font-variant:normal;font-weight:bold;font-stretch:normal;font-size:6.15844202px;line-height:1.25;font-family:sans-serif;-inkscape-font-specification:'sans-serif, Bold';font-variant-ligatures:normal;font-variant-caps:normal;font-variant-numeric:normal;font-feature-settings:normal;text-align:center;letter-spacing:0px;word-spacing:0px;writing-mode:lr-tb;text-anchor:middle;fill:#666666;fill-opacity:1;stroke:none;stroke-width:0.26458332"
         xml:space="preserve"><tspan
           style="font-style:normal;font-variant:normal;font-weight:bold;font-stretch:normal;font-size:6.15844202px;font-family:sans-serif;-inkscape-font-specification:'sans-serif, Bold';font-variant-ligatures:normal;font-variant-caps:normal;font-variant-numeric:normal;font-feature-settings:normal;text-align:center;writing-mode:lr-tb;text-anchor:middle;fill:#666666;stroke-width:0.26458332"
           id="tspan13770-2-3-4-0"
           y="61.42675"
           x="-51.92662"
           sodipodi:role="line">Upstream Apps</tspan></text>
      <text
         id="text13766-9-5-4-4"
         y="173.64522"
         x="-58.327965"
         style="font-style:normal;font-variant:normal;font-weight:bold;font-stretch:normal;font-size:6.15844202px;line-height:1.25;font-family:sans-serif;-inkscape-font-specification:'sans-serif, Bold';font-variant-ligatures:normal;font-variant-caps:normal;font-variant-numeric:normal;font-feature-settings:normal;text-align:center;letter-spacing:0px;word-spacing:0px;writing-mode:lr-tb;text-anchor:middle;fill:#666666;fill-opacity:1;stroke:none;stroke-width:0.26458332"
         xml:space="preserve"><tspan
           style="font-style:normal;font-variant:normal;font-weight:bold;font-stretch:normal;font-size:6.15844202px;font-family:sans-serif;-inkscape-font-specification:'sans-serif, Bold';font-variant-ligatures:normal;font-variant-caps:normal;font-variant-numeric:normal;font-feature-settings:normal;text-align:center;writing-mode:lr-tb;text-anchor:middle;fill:#666666;stroke-width:0.26458332"
           id="tspan13770-2-3-4-4"
           y="173.64522"
           x="-58.327965"
           sodipodi:role="line">REST API</tspan></text>
      <path
         style="opacity:0.98000004;fill:#92a7ac;fill-opacity:1;stroke:#92a7ac;stroke-width:0.89958334;stroke-miterlimit:4;stroke-dasharray:none;stroke-opacity:1"
         d="M -9.0066833,95.321678 H 9.16765 V 174.96548 H -9.0066833 l 4.5435903,-40.78147 z"
         id="rect2685"
         inkscape:connector-curvature="0"
         sodipodi:nodetypes="cccccc" />
      <text
         id="text13766-9-5-4-56"
         y="-0.56590569"
         x="135.50876"
         style="font-style:normal;font-variant:normal;font-weight:bold;font-stretch:normal;font-size:6.15844202px;line-height:1.25;font-family:sans-serif;-inkscape-font-specification:'sans-serif, Bold';font-variant-ligatures:normal;font-variant-caps:normal;font-variant-numeric:normal;font-feature-settings:normal;text-align:center;letter-spacing:0px;word-spacing:0px;writing-mode:lr-tb;text-anchor:middle;fill:#ffffff;fill-opacity:1;stroke:none;stroke-width:0.26458332"
         xml:space="preserve"
         transform="rotate(90)"><tspan
           style="font-style:normal;font-variant:normal;font-weight:bold;font-stretch:normal;font-size:6.15844202px;font-family:sans-serif;-inkscape-font-specification:'sans-serif, Bold';font-variant-ligatures:normal;font-variant-caps:normal;font-variant-numeric:normal;font-feature-settings:normal;text-align:center;writing-mode:lr-tb;text-anchor:middle;fill:#ffffff;stroke-width:0.26458332"
           id="tspan13770-2-3-4-5"
           y="-0.56590569"
           x="135.50876"
           sodipodi:role="line">Realtime, batch, delta</tspan></text>
      <rect
         style="opacity:0.98000004;fill:#ffffff;fill-opacity:1;stroke:#ecc32b;stroke-width:0.89958334;stroke-miterlimit:4;stroke-dasharray:none;stroke-opacity:1"
         id="rect2706"
         width="32.179787"
         height="48.108513"
         x="11.57307"
         y="113.22742" />
      <rect
         style="opacity:0.98000004;fill:#ffffff;fill-opacity:1;stroke:#9dd359;stroke-width:0.89958334;stroke-miterlimit:4;stroke-dasharray:none;stroke-opacity:1"
         id="rect2706-7"
         width="42.763123"
         height="48.108513"
         x="46.112461"
         y="113.22742" />
      <rect
         style="opacity:0.98000004;fill:#ffffff;fill-opacity:1;stroke:#2d66b7;stroke-width:0.89958334;stroke-miterlimit:4;stroke-dasharray:none;stroke-opacity:1"
         id="rect2706-1"
         width="36.715504"
         height="48.108513"
         x="90.751846"
         y="113.44884" />
      <rect
         style="opacity:0.98000004;fill:#ffffff;fill-opacity:1;stroke:#07c6e2;stroke-width:0.89958334;stroke-miterlimit:4;stroke-dasharray:none;stroke-opacity:1"
         id="rect2706-7-5"
         width="35.959553"
         height="48.108513"
         x="129.07097"
         y="113.44884" />
      <text
         id="text13766-9-5-4-7"
         y="138.24347"
         x="26.894281"
         style="font-style:normal;font-variant:normal;font-weight:bold;font-stretch:normal;font-size:6.15844202px;line-height:1.25;font-family:sans-serif;-inkscape-font-specification:'sans-serif, Bold';font-variant-ligatures:normal;font-variant-caps:normal;font-variant-numeric:normal;font-feature-settings:normal;text-align:center;letter-spacing:0px;word-spacing:0px;writing-mode:lr-tb;text-anchor:middle;fill:#666666;fill-opacity:1;stroke:none;stroke-width:0.26458332"
         xml:space="preserve"><tspan
           style="font-style:normal;font-variant:normal;font-weight:bold;font-stretch:normal;font-size:6.15844202px;font-family:sans-serif;-inkscape-font-specification:'sans-serif, Bold';font-variant-ligatures:normal;font-variant-caps:normal;font-variant-numeric:normal;font-feature-settings:normal;text-align:center;writing-mode:lr-tb;text-anchor:middle;fill:#666666;stroke-width:0.26458332"
           id="tspan13770-2-3-4-6"
           y="138.24347"
           x="26.894281"
           sodipodi:role="line">Profile</tspan></text>
      <text
         id="text13766-9-5-4-7-0"
         y="135.7538"
         x="49.231667"
         style="font-style:normal;font-variant:normal;font-weight:bold;font-stretch:normal;font-size:6.15844202px;line-height:1.25;font-family:sans-serif;-inkscape-font-specification:'sans-serif, Bold';font-variant-ligatures:normal;font-variant-caps:normal;font-variant-numeric:normal;font-feature-settings:normal;text-align:center;letter-spacing:0px;word-spacing:0px;writing-mode:lr-tb;text-anchor:middle;fill:#666666;fill-opacity:1;stroke:none;stroke-width:0.26458332"
         xml:space="preserve"><tspan
           style="font-style:normal;font-variant:normal;font-weight:bold;font-stretch:normal;font-size:6.15844202px;font-family:sans-serif;-inkscape-font-specification:'sans-serif, Bold';font-variant-ligatures:normal;font-variant-caps:normal;font-variant-numeric:normal;font-feature-settings:normal;text-align:start;writing-mode:lr-tb;text-anchor:start;fill:#666666;stroke-width:0.26458332"
           id="tspan13770-2-3-4-6-9"
           y="135.7538"
           x="49.231667"
           sodipodi:role="line">Transform</tspan><tspan
           style="font-style:normal;font-variant:normal;font-weight:bold;font-stretch:normal;font-size:6.15844202px;font-family:sans-serif;-inkscape-font-specification:'sans-serif, Bold';font-variant-ligatures:normal;font-variant-caps:normal;font-variant-numeric:normal;font-feature-settings:normal;text-align:start;writing-mode:lr-tb;text-anchor:start;fill:#666666;stroke-width:0.26458332"
           y="143.45186"
           x="49.231667"
           sodipodi:role="line"
           id="tspan3044">Enrich</tspan></text>
      <text
         id="text13766-9-5-4-2"
         y="131.31096"
         x="95.501732"
         style="font-style:normal;font-variant:normal;font-weight:bold;font-stretch:normal;font-size:6.15844202px;line-height:1.25;font-family:sans-serif;-inkscape-font-specification:'sans-serif, Bold';font-variant-ligatures:normal;font-variant-caps:normal;font-variant-numeric:normal;font-feature-settings:normal;text-align:center;letter-spacing:0px;word-spacing:0px;writing-mode:lr-tb;text-anchor:middle;fill:#666666;fill-opacity:1;stroke:none;stroke-width:0.26458332"
         xml:space="preserve"><tspan
           style="font-style:normal;font-variant:normal;font-weight:bold;font-stretch:normal;font-size:6.15844202px;font-family:sans-serif;-inkscape-font-specification:'sans-serif, Bold';font-variant-ligatures:normal;font-variant-caps:normal;font-variant-numeric:normal;font-feature-settings:normal;text-align:start;writing-mode:lr-tb;text-anchor:start;fill:#666666;stroke-width:0.26458332"
           id="tspan13770-2-3-4-8"
           y="131.31096"
           x="95.501732"
           sodipodi:role="line">Cleanse</tspan><tspan
           style="font-style:normal;font-variant:normal;font-weight:bold;font-stretch:normal;font-size:6.15844202px;font-family:sans-serif;-inkscape-font-specification:'sans-serif, Bold';font-variant-ligatures:normal;font-variant-caps:normal;font-variant-numeric:normal;font-feature-settings:normal;text-align:start;writing-mode:lr-tb;text-anchor:start;fill:#666666;stroke-width:0.26458332"
           y="139.00902"
           x="95.501732"
           sodipodi:role="line"
           id="tspan3079">Validate</tspan><tspan
           style="font-style:normal;font-variant:normal;font-weight:bold;font-stretch:normal;font-size:6.15844202px;font-family:sans-serif;-inkscape-font-specification:'sans-serif, Bold';font-variant-ligatures:normal;font-variant-caps:normal;font-variant-numeric:normal;font-feature-settings:normal;text-align:start;writing-mode:lr-tb;text-anchor:start;fill:#666666;stroke-width:0.26458332"
           y="146.70706"
           x="95.501732"
           sodipodi:role="line"
           id="tspan3081">Match</tspan></text>
      <text
         id="text13766-9-5-4-2-0"
         y="127.11697"
         x="134.14182"
         style="font-style:normal;font-variant:normal;font-weight:bold;font-stretch:normal;font-size:6.15844202px;line-height:1.25;font-family:sans-serif;-inkscape-font-specification:'sans-serif, Bold';font-variant-ligatures:normal;font-variant-caps:normal;font-variant-numeric:normal;font-feature-settings:normal;text-align:center;letter-spacing:0px;word-spacing:0px;writing-mode:lr-tb;text-anchor:middle;fill:#666666;fill-opacity:1;stroke:none;stroke-width:0.26458332"
         xml:space="preserve"><tspan
           style="font-style:normal;font-variant:normal;font-weight:bold;font-stretch:normal;font-size:6.15844202px;font-family:sans-serif;-inkscape-font-specification:'sans-serif, Bold';font-variant-ligatures:normal;font-variant-caps:normal;font-variant-numeric:normal;font-feature-settings:normal;text-align:start;writing-mode:lr-tb;text-anchor:start;fill:#666666;stroke-width:0.26458332"
           y="127.11697"
           x="134.14182"
           sodipodi:role="line"
           id="tspan3081-0">Merge</tspan><tspan
           style="font-style:normal;font-variant:normal;font-weight:bold;font-stretch:normal;font-size:6.15844202px;font-family:sans-serif;-inkscape-font-specification:'sans-serif, Bold';font-variant-ligatures:normal;font-variant-caps:normal;font-variant-numeric:normal;font-feature-settings:normal;text-align:start;writing-mode:lr-tb;text-anchor:start;fill:#666666;stroke-width:0.26458332"
           y="134.81503"
           x="134.14182"
           sodipodi:role="line"
           id="tspan3112">View</tspan><tspan
           style="font-style:normal;font-variant:normal;font-weight:bold;font-stretch:normal;font-size:6.15844202px;font-family:sans-serif;-inkscape-font-specification:'sans-serif, Bold';font-variant-ligatures:normal;font-variant-caps:normal;font-variant-numeric:normal;font-feature-settings:normal;text-align:start;writing-mode:lr-tb;text-anchor:start;fill:#666666;stroke-width:0.26458332"
           y="142.51308"
           x="134.14182"
           sodipodi:role="line"
           id="tspan3114">Manage</tspan><tspan
           style="font-style:normal;font-variant:normal;font-weight:bold;font-stretch:normal;font-size:6.15844202px;font-family:sans-serif;-inkscape-font-specification:'sans-serif, Bold';font-variant-ligatures:normal;font-variant-caps:normal;font-variant-numeric:normal;font-feature-settings:normal;text-align:start;writing-mode:lr-tb;text-anchor:start;fill:#666666;stroke-width:0.26458332"
           y="150.21114"
           x="134.14182"
           sodipodi:role="line"
           id="tspan3116">Relate</tspan></text>
      <path
         style="opacity:0.98000004;fill:#92a7ac;fill-opacity:1;stroke:#92a7ac;stroke-width:0.89958334;stroke-miterlimit:4;stroke-dasharray:none;stroke-opacity:1"
         d="M 185.14856,93.667248 H 166.97423 V 175.4515 h 18.17433 l 7.17367,-41.87748 z"
         id="rect2685-4"
         inkscape:connector-curvature="0"
         sodipodi:nodetypes="cccccc" />
      <text
         id="text13766-9-5-4-56-8"
         y="-173.80853"
         x="134.75601"
         style="font-style:normal;font-variant:normal;font-weight:bold;font-stretch:normal;font-size:6.15844202px;line-height:1.25;font-family:sans-serif;-inkscape-font-specification:'sans-serif, Bold';font-variant-ligatures:normal;font-variant-caps:normal;font-variant-numeric:normal;font-feature-settings:normal;text-align:center;letter-spacing:0px;word-spacing:0px;writing-mode:lr-tb;text-anchor:middle;fill:#ffffff;fill-opacity:1;stroke:none;stroke-width:0.26458332"
         xml:space="preserve"
         transform="rotate(90)"><tspan
           style="font-style:normal;font-variant:normal;font-weight:bold;font-stretch:normal;font-size:6.15844202px;font-family:sans-serif;-inkscape-font-specification:'sans-serif, Bold';font-variant-ligatures:normal;font-variant-caps:normal;font-variant-numeric:normal;font-feature-settings:normal;text-align:center;writing-mode:lr-tb;text-anchor:middle;fill:#ffffff;stroke-width:0.26458332"
           id="tspan13770-2-3-4-5-2"
           y="-173.80853"
           x="134.75601"
           sodipodi:role="line">Data quality firewall</tspan></text>
      <rect
         style="opacity:0.98000004;fill:#9dd359;fill-opacity:0.98039216;stroke:#9dd359;stroke-width:0.89958328;stroke-miterlimit:4;stroke-dasharray:none;stroke-opacity:1"
         id="rect2706-7-8"
         width="39.017246"
         height="11.822798"
         x="39.509861"
         y="70.85788" />
      <rect
         style="opacity:0.98000004;fill:#cdd7d9;fill-opacity:1;stroke:#cdd7d9;stroke-width:0.89958334;stroke-miterlimit:4;stroke-dasharray:none;stroke-opacity:1"
         id="rect3166"
         width="153.45833"
         height="12.473214"
         x="11.771441"
         y="98.124908" />
      <text
         id="text13766-9-5-4-7-6"
         y="106.09646"
         x="84.939476"
         style="font-style:normal;font-variant:normal;font-weight:bold;font-stretch:normal;font-size:6.15844202px;line-height:1.25;font-family:sans-serif;-inkscape-font-specification:'sans-serif, Bold';font-variant-ligatures:normal;font-variant-caps:normal;font-variant-numeric:normal;font-feature-settings:normal;text-align:center;letter-spacing:0px;word-spacing:0px;writing-mode:lr-tb;text-anchor:middle;fill:#666666;fill-opacity:1;stroke:none;stroke-width:0.26458332"
         xml:space="preserve"><tspan
           style="font-style:normal;font-variant:normal;font-weight:bold;font-stretch:normal;font-size:6.15844202px;font-family:sans-serif;-inkscape-font-specification:'sans-serif, Bold';font-variant-ligatures:normal;font-variant-caps:normal;font-variant-numeric:normal;font-feature-settings:normal;text-align:center;writing-mode:lr-tb;text-anchor:middle;fill:#666666;stroke-width:0.26458332"
           id="tspan13770-2-3-4-6-2"
           y="106.09646"
           x="84.939476"
           sodipodi:role="line">Repository access</tspan></text>
      <text
         id="text13766-9-5-4-7-4"
         y="79.062157"
         x="58.481125"
         style="font-style:normal;font-variant:normal;font-weight:bold;font-stretch:normal;font-size:6.15844202px;line-height:1.25;font-family:sans-serif;-inkscape-font-specification:'sans-serif, Bold';font-variant-ligatures:normal;font-variant-caps:normal;font-variant-numeric:normal;font-feature-settings:normal;text-align:center;letter-spacing:0px;word-spacing:0px;writing-mode:lr-tb;text-anchor:middle;fill:#ffffff;fill-opacity:1;stroke:none;stroke-width:0.26458332"
         xml:space="preserve"><tspan
           style="font-style:normal;font-variant:normal;font-weight:bold;font-stretch:normal;font-size:6.15844202px;font-family:sans-serif;-inkscape-font-specification:'sans-serif, Bold';font-variant-ligatures:normal;font-variant-caps:normal;font-variant-numeric:normal;font-feature-settings:normal;text-align:center;writing-mode:lr-tb;text-anchor:middle;fill:#ffffff;stroke-width:0.26458332"
           id="tspan13770-2-3-4-6-5"
           y="79.062157"
           x="58.481125"
           sodipodi:role="line">Metadata</tspan></text>
      <rect
         style="opacity:0.98000004;fill:#07c6e2;fill-opacity:1;stroke:#07c6e2;stroke-width:0.89958328;stroke-miterlimit:4;stroke-dasharray:none;stroke-opacity:1"
         id="rect2706-7-8-8"
         width="43.174984"
         height="11.822798"
         x="125.31044"
         y="56.305794" />
      <text
         id="text13766-9-5-4-7-4-4"
         y="64.519096"
         x="146.54958"
         style="font-style:normal;font-variant:normal;font-weight:bold;font-stretch:normal;font-size:6.15844202px;line-height:1.25;font-family:sans-serif;-inkscape-font-specification:'sans-serif, Bold';font-variant-ligatures:normal;font-variant-caps:normal;font-variant-numeric:normal;font-feature-settings:normal;text-align:center;letter-spacing:0px;word-spacing:0px;writing-mode:lr-tb;text-anchor:middle;fill:#ffffff;fill-opacity:1;stroke:none;stroke-width:0.26458332"
         xml:space="preserve"><tspan
           style="font-style:normal;font-variant:normal;font-weight:bold;font-stretch:normal;font-size:6.15844202px;font-family:sans-serif;-inkscape-font-specification:'sans-serif, Bold';font-variant-ligatures:normal;font-variant-caps:normal;font-variant-numeric:normal;font-feature-settings:normal;text-align:center;writing-mode:lr-tb;text-anchor:middle;fill:#ffffff;stroke-width:0.26458332"
           id="tspan13770-2-3-4-6-5-9"
           y="64.519096"
           x="146.54958"
           sodipodi:role="line">Master data</tspan></text>
      <rect
         style="opacity:0.98000004;fill:#07c6e2;fill-opacity:1;stroke:#07c6e2;stroke-width:0.89958328;stroke-miterlimit:4;stroke-dasharray:none;stroke-opacity:1"
         id="rect2706-7-8-8-5"
         width="48.844627"
         height="11.822798"
         x="122.47564"
         y="70.85788" />
      <text
         id="text13766-9-5-4-7-4-4-0"
         y="78.489319"
         x="147.11655"
         style="font-style:normal;font-variant:normal;font-weight:bold;font-stretch:normal;font-size:6.15844202px;line-height:1.25;font-family:sans-serif;-inkscape-font-specification:'sans-serif, Bold';font-variant-ligatures:normal;font-variant-caps:normal;font-variant-numeric:normal;font-feature-settings:normal;text-align:center;letter-spacing:0px;word-spacing:0px;writing-mode:lr-tb;text-anchor:middle;fill:#ffffff;fill-opacity:1;stroke:none;stroke-width:0.26458332"
         xml:space="preserve"><tspan
           style="font-style:normal;font-variant:normal;font-weight:bold;font-stretch:normal;font-size:6.15844202px;font-family:sans-serif;-inkscape-font-specification:'sans-serif, Bold';font-variant-ligatures:normal;font-variant-caps:normal;font-variant-numeric:normal;font-feature-settings:normal;text-align:center;writing-mode:lr-tb;text-anchor:middle;fill:#ffffff;stroke-width:0.26458332"
           id="tspan13770-2-3-4-6-5-9-2"
           y="78.489319"
           x="147.11655"
           sodipodi:role="line">Relationships</tspan></text>
      <rect
         style="opacity:0.98000004;fill:#ecc32b;fill-opacity:1;stroke:#ecc32b;stroke-width:0.89958328;stroke-miterlimit:4;stroke-dasharray:none;stroke-opacity:1"
         id="rect2706-7-8-7"
         width="39.01725"
         height="11.822798"
         x="-2.4455006"
         y="70.85788" />
      <text
         id="text13766-9-5-4-7-4-7"
         y="79.071182"
         x="16.525766"
         style="font-style:normal;font-variant:normal;font-weight:bold;font-stretch:normal;font-size:6.15844202px;line-height:1.25;font-family:sans-serif;-inkscape-font-specification:'sans-serif, Bold';font-variant-ligatures:normal;font-variant-caps:normal;font-variant-numeric:normal;font-feature-settings:normal;text-align:center;letter-spacing:0px;word-spacing:0px;writing-mode:lr-tb;text-anchor:middle;fill:#ffffff;fill-opacity:1;stroke:none;stroke-width:0.26458332"
         xml:space="preserve"><tspan
           style="font-style:normal;font-variant:normal;font-weight:bold;font-stretch:normal;font-size:6.15844202px;font-family:sans-serif;-inkscape-font-specification:'sans-serif, Bold';font-variant-ligatures:normal;font-variant-caps:normal;font-variant-numeric:normal;font-feature-settings:normal;text-align:center;writing-mode:lr-tb;text-anchor:middle;fill:#ffffff;stroke-width:0.26458332"
           id="tspan13770-2-3-4-6-5-1"
           y="79.071182"
           x="16.525766"
           sodipodi:role="line">Profiles</tspan></text>
      <rect
         style="opacity:0.98000004;fill:#2964b5;fill-opacity:1;stroke:#2964b5;stroke-width:0.89958328;stroke-miterlimit:4;stroke-dasharray:none;stroke-opacity:1"
         id="rect2706-7-8-75"
         width="39.01725"
         height="11.822798"
         x="81.087227"
         y="70.85788" />
      <text
         id="text13766-9-5-4-7-4-2"
         y="79.062157"
         x="100.05851"
         style="font-style:normal;font-variant:normal;font-weight:bold;font-stretch:normal;font-size:6.15844202px;line-height:1.25;font-family:sans-serif;-inkscape-font-specification:'sans-serif, Bold';font-variant-ligatures:normal;font-variant-caps:normal;font-variant-numeric:normal;font-feature-settings:normal;text-align:center;letter-spacing:0px;word-spacing:0px;writing-mode:lr-tb;text-anchor:middle;fill:#ffffff;fill-opacity:1;stroke:none;stroke-width:0.26458332"
         xml:space="preserve"><tspan
           style="font-style:normal;font-variant:normal;font-weight:bold;font-stretch:normal;font-size:6.15844202px;font-family:sans-serif;-inkscape-font-specification:'sans-serif, Bold';font-variant-ligatures:normal;font-variant-caps:normal;font-variant-numeric:normal;font-feature-settings:normal;text-align:center;writing-mode:lr-tb;text-anchor:middle;fill:#ffffff;stroke-width:0.26458332"
           id="tspan13770-2-3-4-6-5-8"
           y="79.062157"
           x="100.05851"
           sodipodi:role="line">Rules</tspan></text>
      <g
         id="g3336"
         style="stroke:#cdd7d9;stroke-width:1.39999998;stroke-miterlimit:4;stroke-dasharray:none;stroke-opacity:0.98039216"
         transform="translate(-54.680913,3.3549661)">
        <path
           inkscape:connector-curvature="0"
           id="path3290"
           d="M 70.610092,86.076501 H 202.14581"
           style="fill:none;stroke:#cdd7d9;stroke-width:1.39999998;stroke-linecap:butt;stroke-linejoin:miter;stroke-miterlimit:4;stroke-dasharray:none;stroke-opacity:0.98039216" />
        <path
           inkscape:connector-curvature="0"
           id="path3292"
           d="m 137.1339,86.076501 v 9.449403"
           style="fill:none;stroke:#cdd7d9;stroke-width:1.39999998;stroke-linecap:butt;stroke-linejoin:miter;stroke-miterlimit:4;stroke-dasharray:none;stroke-opacity:0.98039216" />
        <path
           inkscape:connector-curvature="0"
           id="path3294"
           d="M 156.03271,86.076501 V 81.540786"
           style="fill:none;stroke:#cdd7d9;stroke-width:1.39999998;stroke-linecap:butt;stroke-linejoin:miter;stroke-miterlimit:4;stroke-dasharray:none;stroke-opacity:0.98039216" />
        <path
           style="fill:none;stroke:#cdd7d9;stroke-width:1.39999998;stroke-linecap:butt;stroke-linejoin:miter;stroke-miterlimit:4;stroke-dasharray:none;stroke-opacity:0.98039216"
           d="m 201.39626,81.540776 v 4.535715"
           id="path3298"
           inkscape:connector-curvature="0" />
        <path
           style="fill:none;stroke:#cdd7d9;stroke-width:1.39999998;stroke-linecap:butt;stroke-linejoin:miter;stroke-miterlimit:4;stroke-dasharray:none;stroke-opacity:0.98039216"
           d="M 111.80051,86.11485 V 81.579135"
           id="path3298-9"
           inkscape:connector-curvature="0" />
        <path
           style="fill:none;stroke:#cdd7d9;stroke-width:1.39999998;stroke-linecap:butt;stroke-linejoin:miter;stroke-miterlimit:4;stroke-dasharray:none;stroke-opacity:0.98039216"
           d="M 71.34126,85.986587 V 81.450872"
           id="path3298-9-4"
           inkscape:connector-curvature="0" />
      </g>
      <text
         id="text13766-9-5-4-5-0"
         y="181.17081"
         x="85.334702"
         style="font-style:normal;font-variant:normal;font-weight:bold;font-stretch:normal;font-size:6.15844202px;line-height:1.25;font-family:sans-serif;-inkscape-font-specification:'sans-serif, Bold';font-variant-ligatures:normal;font-variant-caps:normal;font-variant-numeric:normal;font-feature-settings:normal;text-align:center;letter-spacing:0px;word-spacing:0px;writing-mode:lr-tb;text-anchor:middle;fill:#666666;fill-opacity:1;stroke:none;stroke-width:0.26458332"
         xml:space="preserve"><tspan
           style="font-style:normal;font-variant:normal;font-weight:bold;font-stretch:normal;font-size:8.46666622px;font-family:sans-serif;-inkscape-font-specification:'sans-serif, Bold';font-variant-ligatures:normal;font-variant-caps:normal;font-variant-numeric:normal;font-feature-settings:normal;text-align:center;writing-mode:lr-tb;text-anchor:middle;fill:#666666;stroke-width:0.26458332"
           id="tspan13770-2-3-4-0-9"
           y="181.17081"
           x="85.334702"
           sodipodi:role="line">Master Data Managment</tspan></text>
    </g>
  </g>
</svg>
